STARTFONT 2.1
COMMENT
COMMENT Converted from OpenType font "NimbusSans-Regular.otf" by "otf2bdf 3.0".
COMMENT
FONT -FreeType-Nimbus Sans-Medium-R-Normal--86-620-100-100-P-447-ISO10646-1
SIZE 62 100 100
FONTBOUNDINGBOX 107 119 -18 -26
STARTPROPERTIES 19
FOUNDRY "FreeType"
FAMILY_NAME "Nimbus Sans"
WEIGHT_NAME "Medium"
SLANT "R"
SETWIDTH_NAME "Normal"
ADD_STYLE_NAME ""
PIXEL_SIZE 86
POINT_SIZE 620
RESOLUTION_X 100
RESOLUTION_Y 100
SPACING "P"
AVERAGE_WIDTH 447
CHARSET_REGISTRY "ISO10646"
CHARSET_ENCODING "1"
FONT_ASCENT 62
FONT_DESCENT 23
COPYRIGHT "(URW)++,Copyright 2014 by (URW)++ Design & Development"
_OTF_FONTFILE "NimbusSans-Regular.otf"
_OTF_PSNAME "NimbusSans-Regular"
ENDPROPERTIES
CHARS 854
STARTCHAR 0020
ENCODING 32
SWIDTH 278 0
DWIDTH 24 0
BBX 0 0 0 0
BITMAP
ENDCHAR
STARTCHAR 0021
ENCODING 33
SWIDTH 278 0
DWIDTH 24 0
BBX 7 63 11 0
BITMAP
FE
FE
FE
FE
FE
FE
FE
FE
FE
FE
FE
FE
FE
FE
FE
FE
FE
FE
FE
FE
FE
FE
FE
FE
FE
FE
FE
FE
FE
FE
FE
FE
FE
FC
FC
FC
FC
7C
7C
7C
7C
7C
7C
78
78
78
78
38
38
00
00
00
00
00
FE
FE
FE
FE
FE
FE
FE
FE
FE
ENDCHAR
STARTCHAR 0022
ENCODING 34
SWIDTH 360 0
DWIDTH 31 0
BBX 22 21 4 40
BITMAP
FF03FC
FF03FC
FF03FC
FF03FC
FF03FC
FF03FC
FF03FC
FF03FC
FF03FC
FF03FC
7F03FC
7F01FC
7F01FC
7F01F8
7E01F8
3E01F8
3E00F8
3E00F8
3E00F0
3C00F0
1C00F0
ENDCHAR
STARTCHAR 0023
ENCODING 35
SWIDTH 557 0
DWIDTH 48 0
BBX 46 62 1 -2
BITMAP
00007E003F80
00007E003F80
0000FE003F00
0000FE003F00
0000FE007F00
0000FC007F00
0000FC007F00
0000FC007E00
0001FC007E00
0001FC00FE00
0001FC00FE00
0001F800FE00
0001F800FE00
0003F800FC00
0003F800FC00
0003F801FC00
0003F001FC00
1FFFFFFFFFFC
1FFFFFFFFFFC
1FFFFFFFFFFC
1FFFFFFFFFFC
1FFFFFFFFFFC
1FFFFFFFFFFC
0007E003F000
000FE003F000
000FE003F000
000FE007F000
000FC007F000
000FC007F000
000FC007E000
001FC007E000
001FC00FE000
001FC00FE000
001F800FE000
001F800FC000
003F800FC000
003F800FC000
003F801FC000
FFFFFFFFFFE0
FFFFFFFFFFE0
FFFFFFFFFFE0
FFFFFFFFFFE0
FFFFFFFFFFE0
FFFFFFFFFFE0
007E003F8000
007E003F8000
00FE003F0000
00FE003F0000
00FE007F0000
00FC007F0000
00FC007F0000
00FC007E0000
01FC007E0000
01FC00FE0000
01FC00FE0000
01F800FE0000
01F800FC0000
03F800FC0000
03F800FC0000
03F801FC0000
03F001FC0000
03F001FC0000
ENDCHAR
STARTCHAR 0024
ENCODING 36
SWIDTH 557 0
DWIDTH 48 0
BBX 42 77 3 -11
BITMAP
00001F000000
00001F000000
00001F000000
00001F000000
00003F800000
0007FFFC0000
001FFFFF0000
007FFFFFC000
01FFFFFFE000
03FFFFFFF000
07FFDFFFF800
07FE1F0FFC00
0FF81F07FC00
1FE01F01FE00
1FE01F01FE00
1FC01F00FF00
3F801F007F00
3F801F007F00
3F801F007F00
3F801F007F00
3F801F007F00
3F801F000000
3F801F000000
3F801F000000
3F801F000000
3FC01F000000
3FC01F000000
1FE01F000000
1FF81F000000
1FFC1F000000
0FFF9F000000
07FFFF000000
03FFFFC00000
01FFFFF80000
00FFFFFF0000
003FFFFFC000
000FFFFFF000
0001FFFFF800
00003FFFFC00
00001FFFFE00
00001F1FFF00
00001F07FF80
00001F01FF80
00001F00FF80
00001F007FC0
00001F003FC0
00001F001FC0
00001F001FC0
FE001F001FC0
FE001F001FC0
FF001F001FC0
7F001F001FC0
7F001F001FC0
7F001F001FC0
7F001F003FC0
7F801F003F80
7F801F007F80
3FC01F007F80
3FE01F00FF00
1FF01F01FF00
1FFC1F07FE00
0FFF1F1FFC00
07FFFFFFF800
03FFFFFFF000
01FFFFFFE000
007FFFFF8000
001FFFFE0000
0001FFE00000
00001F000000
00001F000000
00001F000000
00001F000000
00001F000000
00001F000000
00001F000000
00001F000000
00001F000000
ENDCHAR
STARTCHAR 0025
ENCODING 37
SWIDTH 894 0
DWIDTH 77 0
BBX 71 63 3 -2
BITMAP
0000000000007E0000
0000000000007C0000
001FC0000000FC0000
00FFF8000000F80000
03FFFC000001F80000
07FFFF000003F00000
0FFFFF800003F00000
1FFFFFC00007E00000
3FE07FC00007C00000
3F801FE0000FC00000
7F000FE0000F800000
7E0007F0001F800000
FE0003F0001F000000
FC0003F0003F000000
FC0001F8003E000000
FC0001F8007E000000
F80001F8007C000000
F80001F800FC000000
FC0001F801F8000000
FC0001F801F8000000
FC0003F003F0000000
FE0003F003E0000000
7E0007F007E0000000
7F000FE007C0000000
7F801FE00FC0000000
3FE07FC00F80000000
1FFFFFC01F80000000
0FFFFF801F00000000
07FFFF003F00000000
03FFFC007E00000000
00FFF8007E00000000
003FC000FC00000000
00000000FC00000000
00000001F800000000
00000001F00007F000
00000003F0003FFE00
00000003E000FFFF80
00000007E001FFFFC0
00000007C003FFFFE0
0000000FC007FFFFF0
0000000F800FF81FF8
0000001F801FE007F8
0000003F001FC003FC
0000003F001F8001FC
0000007E003F8000FC
0000007E003F0000FE
000000FC003F00007E
000000F8003F00007E
000001F8003F00007E
000001F0003F00007E
000003F0003F00007E
000003E0003F00007E
000007E0003F8000FC
000007C0001F8001FC
00000FC0001FC003FC
00001F80001FE007F8
00001F80000FFC1FF8
00003F000007FFFFF0
00003F000003FFFFE0
00007E000001FFFFC0
00007C000000FFFF00
0000FC0000003FFE00
0000F80000000FF000
ENDCHAR
STARTCHAR 0026
ENCODING 38
SWIDTH 661 0
DWIDTH 57 0
BBX 50 63 4 -2
BITMAP
00003FC0000000
0001FFF8000000
0003FFFE000000
000FFFFF000000
001FFFFF800000
003FFFFFC00000
003FE07FC00000
007F801FE00000
007F000FE00000
00FE000FF00000
00FE0007F00000
00FE0007F00000
00FE0007F00000
01FE0007F00000
01FE0007F00000
00FE0007F00000
00FE0007F00000
00FF000FF00000
00FF001FE00000
007F801FE00000
007FC03FC00000
003FE0FFC00000
001FE1FF800000
001FF7FF000000
000FFFFC000000
0007FFF8000000
0003FFF0000000
0003FFC0000000
0007FF00000000
001FFF80000000
003FFFC0000000
00FFFFE0000000
01FF9FF003F800
03FF1FF003F800
07FE0FF803F800
0FF807FC03F800
1FF003FE03F800
1FE001FF03F800
3FC001FF83F800
3F8000FF87F000
7F80007FC7F000
7F00003FEFF000
7F00001FFFE000
7F00001FFFE000
7F00000FFFC000
FF000007FFC000
FF000003FF8000
7F000001FF8000
7F000001FF8000
7F800000FFC000
7F800001FFC000
7FC00003FFE000
3FE00007FFF000
3FF0001FFFF800
3FF8003FFFFC00
1FFE00FFE7FC00
0FFFFFFFC3FE00
07FFFFFF81FF00
03FFFFFF01FF80
01FFFFFC00FFC0
00FFFFF8007FC0
003FFFC0000000
0007FE00000000
ENDCHAR
STARTCHAR 0027
ENCODING 39
SWIDTH 185 0
DWIDTH 16 0
BBX 8 21 4 40
BITMAP
FF
FF
FF
FF
FF
FF
FF
FF
FF
FF
FF
7F
7F
7E
7E
7E
3E
3E
3C
3C
3C
ENDCHAR
STARTCHAR 0028
ENCODING 40
SWIDTH 336 0
DWIDTH 29 0
BBX 19 81 6 -18
BITMAP
0003E0
0007C0
0007C0
000F80
001F00
001F00
003E00
007E00
007E00
00FC00
00FC00
01F800
01F800
03F000
03F000
03F000
07E000
07E000
0FE000
0FC000
0FC000
1FC000
1FC000
1F8000
1F8000
3F8000
3F8000
3F0000
3F0000
7F0000
7F0000
7F0000
7F0000
7F0000
7F0000
7E0000
FE0000
FE0000
FE0000
FE0000
FE0000
FE0000
FE0000
FE0000
FE0000
7E0000
7F0000
7F0000
7F0000
7F0000
7F0000
7F0000
3F0000
3F8000
3F8000
3F8000
3F8000
1F8000
1FC000
1FC000
0FC000
0FC000
0FE000
07E000
07E000
03F000
03F000
03F000
01F800
01F800
00FC00
00FC00
007E00
007E00
003F00
001F00
001F80
000F80
000FC0
0007C0
0003E0
ENDCHAR
STARTCHAR 0029
ENCODING 41
SWIDTH 336 0
DWIDTH 29 0
BBX 18 81 4 -18
BITMAP
F00000
F80000
7C0000
7E0000
3E0000
3F0000
1F0000
1F8000
0FC000
0FC000
07E000
07E000
03F000
03F000
03F000
01F800
01F800
01FC00
00FC00
00FC00
00FE00
007E00
007E00
007F00
007F00
007F00
003F00
003F80
003F80
003F80
003F80
003F80
001F80
001FC0
001FC0
001FC0
001FC0
001FC0
001FC0
001FC0
001FC0
001FC0
001FC0
001FC0
001FC0
001FC0
001FC0
001FC0
001F80
001F80
003F80
003F80
003F80
003F80
003F00
003F00
007F00
007F00
007E00
007E00
00FE00
00FC00
00FC00
01FC00
01F800
01F800
03F000
03F000
03E000
07E000
07E000
0FC000
0F8000
1F8000
1F0000
3F0000
3E0000
7E0000
7C0000
F80000
F00000
ENDCHAR
STARTCHAR 002A
ENCODING 42
SWIDTH 394 0
DWIDTH 34 0
BBX 25 24 4 38
BITMAP
003E0000
003E0000
003E0000
003E0000
003E0000
003E0000
003E0000
703E0700
FE3E3F80
FFFFFF80
FFFFFF80
FFFFFF80
1FFFFC00
01FFC000
00FF8000
00FF8000
01FFC000
03F7E000
07E3F000
07E3F800
0FC1F800
1F80FC00
0F80F800
07007000
ENDCHAR
STARTCHAR 002B
ENCODING 43
SWIDTH 580 0
DWIDTH 50 0
BBX 42 42 4 -1
BITMAP
00003F000000
00003F000000
00003F000000
00003F000000
00003F000000
00003F000000
00003F000000
00003F000000
00003F000000
00003F000000
00003F000000
00003F000000
00003F000000
00003F000000
00003F000000
00003F000000
00003F000000
00003F000000
FFFFFFFFFFC0
FFFFFFFFFFC0
FFFFFFFFFFC0
FFFFFFFFFFC0
FFFFFFFFFFC0
FFFFFFFFFFC0
00003F000000
00003F000000
00003F000000
00003F000000
00003F000000
00003F000000
00003F000000
00003F000000
00003F000000
00003F000000
00003F000000
00003F000000
00003F000000
00003F000000
00003F000000
00003F000000
00003F000000
00003F000000
ENDCHAR
STARTCHAR 002C
ENCODING 44
SWIDTH 278 0
DWIDTH 24 0
BBX 10 22 7 -13
BITMAP
FFC0
FFC0
FFC0
FFC0
FFC0
FFC0
FFC0
FFC0
FFC0
03C0
03C0
03C0
0380
0380
0780
0780
0780
0F00
FE00
FE00
F800
E000
ENDCHAR
STARTCHAR 002D
ENCODING 45
SWIDTH 336 0
DWIDTH 29 0
BBX 20 6 4 21
BITMAP
FFFFF0
FFFFF0
FFFFF0
FFFFF0
FFFFF0
FFFFF0
ENDCHAR
STARTCHAR 002E
ENCODING 46
SWIDTH 278 0
DWIDTH 24 0
BBX 9 9 7 0
BITMAP
FF80
FF80
FF80
FF80
FF80
FF80
FF80
FF80
FF80
ENDCHAR
STARTCHAR 002F
ENCODING 47
SWIDTH 278 0
DWIDTH 24 0
BBX 25 65 -1 -2
BITMAP
00000780
00000F80
00000F80
00000F00
00001F00
00001F00
00001E00
00003E00
00003E00
00003C00
00007C00
00007C00
00007C00
0000F800
0000F800
0000F800
0000F000
0001F000
0001F000
0001E000
0003E000
0003E000
0003C000
0007C000
0007C000
00078000
000F8000
000F8000
000F8000
001F0000
001F0000
001F0000
001E0000
003E0000
003E0000
003C0000
007C0000
007C0000
00780000
00F80000
00F80000
00F00000
01F00000
01F00000
01E00000
03E00000
03E00000
03E00000
07C00000
07C00000
07C00000
07800000
0F800000
0F800000
0F000000
1F000000
1F000000
1E000000
3E000000
3E000000
3C000000
7C000000
7C000000
7C000000
F8000000
ENDCHAR
STARTCHAR 0030
ENCODING 48
SWIDTH 557 0
DWIDTH 48 0
BBX 40 64 4 -2
BITMAP
0001FF0000
0007FFE000
001FFFF800
007FFFFE00
00FFFFFF00
01FFFFFF80
03FFFFFFC0
07FF00FFC0
07FC007FE0
0FF8003FE0
0FF0001FF0
1FE0000FF0
1FE00007F8
3FC00007F8
3FC00003FC
3FC00003FC
7F800003FC
7F800003FC
7F800001FE
7F800001FE
7F000001FE
FF000001FE
FF000001FE
FF000001FE
FF000000FE
FF000000FE
FF000000FF
FF000000FF
FF000000FF
FF000000FF
FE000000FF
FE000000FF
FE000000FF
FE000000FF
FF000000FF
FF000000FF
FF000000FF
FF000000FF
FF000000FE
FF000000FE
FF000000FE
FF000001FE
FF000001FE
7F000001FE
7F000001FE
7F800001FC
7F800001FC
7F800003FC
3F800003FC
3FC00003F8
3FC00007F8
1FE00007F8
1FE0000FF0
0FF0000FF0
0FF8001FE0
07FC003FE0
07FE007FC0
03FFC7FF80
01FFFFFF80
00FFFFFF00
007FFFFC00
003FFFF800
000FFFE000
0001FF0000
ENDCHAR
STARTCHAR 0031
ENCODING 49
SWIDTH 557 0
DWIDTH 48 0
BBX 21 62 9 0
BITMAP
0000F8
0001F8
0001F8
0001F8
0003F8
0003F8
0007F8
0007F8
000FF8
001FF8
00FFF8
0FFFF8
FFFFF8
FFFFF8
FFFFF8
FFFFF8
FFFFF8
FFFFF8
0007F8
0007F8
0007F8
0007F8
0007F8
0007F8
0007F8
0007F8
0007F8
0007F8
0007F8
0007F8
0007F8
0007F8
0007F8
0007F8
0007F8
0007F8
0007F8
0007F8
0007F8
0007F8
0007F8
0007F8
0007F8
0007F8
0007F8
0007F8
0007F8
0007F8
0007F8
0007F8
0007F8
0007F8
0007F8
0007F8
0007F8
0007F8
0007F8
0007F8
0007F8
0007F8
0007F8
0007F8
ENDCHAR
STARTCHAR 0032
ENCODING 50
SWIDTH 557 0
DWIDTH 48 0
BBX 41 62 3 0
BITMAP
0000FFE00000
0007FFFC0000
001FFFFF0000
007FFFFFC000
00FFFFFFE000
01FFFFFFF000
03FFFFFFF800
07FF803FFC00
0FFE000FFC00
0FF80007FE00
1FF00003FE00
1FE00001FF00
1FE00000FF00
3FC00000FF00
3FC000007F80
3FC000007F80
3F8000007F80
3F8000007F80
7F8000007F80
7F8000007F80
7F8000007F80
000000007F80
000000007F00
00000000FF00
00000000FF00
00000001FE00
00000003FE00
00000007FC00
0000000FFC00
0000001FF800
0000007FF000
000000FFE000
000003FFC000
00000FFF8000
00003FFF0000
00007FFC0000
0001FFF80000
0007FFE00000
000FFF800000
001FFE000000
007FFC000000
00FFF0000000
01FFC0000000
03FF80000000
07FE00000000
07FC00000000
0FF800000000
1FF000000000
1FE000000000
3FC000000000
3FC000000000
3F8000000000
7F8000000000
7F8000000000
7F0000000000
7FFFFFFFFF80
FFFFFFFFFF80
FFFFFFFFFF80
FFFFFFFFFF80
FFFFFFFFFF80
FFFFFFFFFF80
FFFFFFFFFF80
ENDCHAR
STARTCHAR 0033
ENCODING 51
SWIDTH 557 0
DWIDTH 48 0
BBX 41 64 3 -2
BITMAP
0001FFC00000
000FFFF80000
003FFFFE0000
00FFFFFF8000
01FFFFFFC000
03FFFFFFE000
07FFFFFFF000
0FFE007FF000
0FF8001FF800
1FF0000FF800
1FE00007FC00
3FC00003FC00
3FC00003FC00
3F800003FE00
3F800001FE00
7F800001FE00
7F800001FE00
7F800001FE00
7F800001FE00
7F800001FE00
00000001FC00
00000003FC00
00000003FC00
00000007F800
0000000FF800
0000001FF000
000000FFE000
0000FFFFC000
0000FFFF8000
0000FFFE0000
0000FFFF0000
0000FFFFC000
0000FFFFE000
000007FFF800
0000003FFC00
0000000FFC00
00000003FE00
00000001FE00
00000001FF00
00000000FF00
00000000FF00
000000007F00
000000007F80
000000007F80
FE0000007F80
FE0000007F80
FF0000007F80
FF0000007F00
FF000000FF00
FF000000FF00
7F800000FF00
7F800001FF00
7FC00001FE00
3FC00003FE00
3FE00007FC00
1FF8000FFC00
1FFE007FF800
0FFFFFFFF000
07FFFFFFE000
03FFFFFFC000
01FFFFFF8000
007FFFFE0000
001FFFF80000
0001FF800000
ENDCHAR
STARTCHAR 0034
ENCODING 52
SWIDTH 557 0
DWIDTH 48 0
BBX 43 62 2 0
BITMAP
0000000FC000
0000001FC000
0000003FC000
0000003FC000
0000007FC000
000000FFC000
000001FFC000
000001FFC000
000003FFC000
000007FFC000
000007FFC000
00000FFFC000
00001FFFC000
00003FFFC000
00003FBFC000
00007F3FC000
0000FF3FC000
0000FE3FC000
0001FC3FC000
0003F83FC000
0003F83FC000
0007F03FC000
000FE03FC000
001FE03FC000
001FC03FC000
003F803FC000
007F803FC000
007F003FC000
00FE003FC000
01FC003FC000
03FC003FC000
03F8003FC000
07F0003FC000
0FF0003FC000
0FE0003FC000
1FC0003FC000
3FC0003FC000
7F80003FC000
7F00003FC000
FF00003FC000
FFFFFFFFFFE0
FFFFFFFFFFE0
FFFFFFFFFFE0
FFFFFFFFFFE0
FFFFFFFFFFE0
FFFFFFFFFFE0
FFFFFFFFFFE0
0000003FC000
0000003FC000
0000003FC000
0000003FC000
0000003FC000
0000003FC000
0000003FC000
0000003FC000
0000003FC000
0000003FC000
0000003FC000
0000003FC000
0000003FC000
0000003FC000
0000003FC000
ENDCHAR
STARTCHAR 0035
ENCODING 53
SWIDTH 557 0
DWIDTH 48 0
BBX 41 63 3 -2
BITMAP
03FFFFFFFC00
03FFFFFFFC00
03FFFFFFFC00
03FFFFFFFC00
03FFFFFFFC00
03FFFFFFFC00
03FFFFFFFC00
07FFFFFFFC00
07F000000000
07F000000000
07F000000000
07F000000000
07F000000000
07F000000000
0FF000000000
0FE000000000
0FE000000000
0FE000000000
0FE000000000
0FE000000000
0FE000000000
0FE07FC00000
1FC3FFFC0000
1FCFFFFF0000
1FFFFFFF8000
1FFFFFFFE000
1FFFFFFFF000
1FFFFFFFF800
1FFE007FF800
3FF8001FFC00
3FF00007FE00
3FE00003FE00
3FC00001FF00
00000001FF00
00000000FF00
00000000FF80
000000007F80
000000007F80
000000007F80
000000007F80
000000007F80
000000007F80
000000007F80
000000007F80
000000007F80
000000007F80
FF0000007F80
FF0000007F00
7F000000FF00
7F800000FF00
7F800001FE00
7FC00001FE00
3FE00003FE00
3FF00007FC00
1FF8001FF800
0FFE007FF800
0FFFFFFFF000
07FFFFFFE000
03FFFFFFC000
00FFFFFF0000
007FFFFE0000
000FFFF00000
0001FF800000
ENDCHAR
STARTCHAR 0036
ENCODING 54
SWIDTH 557 0
DWIDTH 48 0
BBX 40 64 4 -2
BITMAP
00007FC000
0003FFF800
000FFFFE00
003FFFFF00
007FFFFF80
00FFFFFFC0
01FFFFFFE0
03FF807FF0
03FE001FF0
07FC000FF8
0FF80007F8
0FF00003FC
1FE00003FC
1FE00003FC
1FC00001FE
3FC00001FE
3F80000000
3F80000000
7F80000000
7F80000000
7F00000000
7F00000000
FF00000000
FF00000000
FF007FC000
FF03FFF800
FF0FFFFE00
FF1FFFFF80
FF7FFFFFC0
FE7FFFFFE0
FEFFFFFFF0
FFFF007FF8
FFFC001FF8
FFF0000FFC
FFE00007FC
FFC00003FE
FFC00001FE
FF800001FE
FF800000FF
FF000000FF
FF000000FF
FF000000FF
FF000000FF
FF000000FF
FF000000FF
7F000000FF
7F000000FF
7F000000FF
7F800000FF
3F800001FE
3FC00001FE
3FC00001FE
1FE00003FC
1FF00007FC
0FF8000FF8
0FFC001FF8
07FF007FF0
03FFFFFFE0
01FFFFFFC0
00FFFFFF80
007FFFFF00
003FFFFC00
000FFFF000
0001FF8000
ENDCHAR
STARTCHAR 0037
ENCODING 55
SWIDTH 557 0
DWIDTH 48 0
BBX 41 61 4 0
BITMAP
FFFFFFFFFF80
FFFFFFFFFF80
FFFFFFFFFF80
FFFFFFFFFF80
FFFFFFFFFF80
FFFFFFFFFF80
FFFFFFFFFF80
000000007F00
00000000FE00
00000000FC00
00000001FC00
00000003F800
00000003F000
00000007F000
0000000FE000
0000000FC000
0000001FC000
0000003F8000
0000003F0000
0000007F0000
000000FE0000
000000FE0000
000001FC0000
000001F80000
000003F80000
000007F00000
000007F00000
00000FE00000
00000FE00000
00001FC00000
00001FC00000
00003F800000
00003F800000
00007F000000
00007F000000
0000FF000000
0000FE000000
0001FE000000
0001FC000000
0001FC000000
0003F8000000
0003F8000000
0007F8000000
0007F0000000
0007F0000000
000FF0000000
000FE0000000
000FE0000000
001FE0000000
001FE0000000
001FC0000000
003FC0000000
003FC0000000
003FC0000000
003F80000000
007F80000000
007F80000000
007F80000000
007F00000000
00FF00000000
00FF00000000
ENDCHAR
STARTCHAR 0038
ENCODING 56
SWIDTH 557 0
DWIDTH 48 0
BBX 41 64 3 -2
BITMAP
0000FFC00000
0007FFF80000
001FFFFE0000
007FFFFF8000
00FFFFFFC000
01FFFFFFE000
03FFFFFFF000
07FF007FF000
0FFC001FF800
0FF8000FFC00
1FF00007FC00
1FE00003FC00
1FE00003FE00
1FE00001FE00
3FC00001FE00
3FC00001FE00
3FC00001FE00
3FC00001FE00
3FC00001FE00
1FC00001FE00
1FE00001FE00
1FE00003FC00
1FF00003FC00
0FF80007F800
07FC000FF800
07FE003FF000
03FFE1FFE000
00FFFFFFC000
007FFFFF0000
003FFFFE0000
007FFFFF0000
01FFFFFFC000
03FFFFFFE000
07FF807FF800
0FFC001FF800
1FF00007FC00
1FE00003FE00
3FC00001FF00
7FC00000FF00
7F800000FF00
7F8000007F80
7F0000007F80
FF0000007F80
FF0000007F80
FF0000007F80
FF0000007F80
FF0000007F80
FF0000007F80
7F0000007F80
7F8000007F80
7F800000FF00
7FC00000FF00
3FC00001FF00
3FE00003FE00
1FF00007FE00
1FFC000FFC00
0FFF003FF800
07FFFFFFF800
03FFFFFFF000
01FFFFFFC000
00FFFFFF8000
003FFFFE0000
000FFFF80000
0000FFC00000
ENDCHAR
STARTCHAR 0039
ENCODING 57
SWIDTH 557 0
DWIDTH 48 0
BBX 41 64 3 -2
BITMAP
0000FF800000
000FFFF00000
003FFFFC0000
007FFFFF0000
01FFFFFF8000
03FFFFFFC000
07FFFFFFE000
07FF007FF000
0FFC001FF000
1FF0000FF800
1FE00007F800
3FE00003FC00
3FC00003FC00
7F800001FE00
7F800001FE00
7F800000FE00
7F000000FF00
FF000000FF00
FF000000FF00
FF0000007F00
FF0000007F00
FF0000007F00
FF000000FF80
FF000000FF80
7F800000FF80
7F800000FF80
7F800001FF80
7FC00001FF80
3FC00003FF80
3FE00007FF80
1FF0000FFF80
1FF8001FFF80
0FFE007FFF80
07FFFFFFFF80
07FFFFFF7F80
03FFFFFE7F80
00FFFFFC7F80
007FFFF07F80
001FFFC07F00
0003FE007F00
000000007F00
00000000FF00
00000000FF00
00000000FF00
00000000FE00
00000000FE00
00000001FE00
00000001FE00
3F800001FC00
3FC00003FC00
3FC00003FC00
3FC00007F800
1FE00007F800
1FF0000FF000
0FF0001FF000
0FFC003FE000
07FE00FFC000
07FFFFFFC000
03FFFFFF8000
01FFFFFE0000
00FFFFFC0000
003FFFF80000
001FFFC00000
0003FE000000
ENDCHAR
STARTCHAR 003A
ENCODING 58
SWIDTH 278 0
DWIDTH 24 0
BBX 9 45 9 0
BITMAP
FF80
FF80
FF80
FF80
FF80
FF80
FF80
FF80
FF80
0000
0000
0000
0000
0000
0000
0000
0000
0000
0000
0000
0000
0000
0000
0000
0000
0000
0000
0000
0000
0000
0000
0000
0000
0000
0000
0000
FF80
FF80
FF80
FF80
FF80
FF80
FF80
FF80
FF80
ENDCHAR
STARTCHAR 003B
ENCODING 59
SWIDTH 278 0
DWIDTH 24 0
BBX 10 58 9 -13
BITMAP
7FC0
7FC0
7FC0
7FC0
7FC0
7FC0
7FC0
7FC0
7FC0
0000
0000
0000
0000
0000
0000
0000
0000
0000
0000
0000
0000
0000
0000
0000
0000
0000
0000
0000
0000
0000
0000
0000
0000
0000
0000
0000
FFC0
FFC0
FFC0
FFC0
FFC0
FFC0
FFC0
FFC0
FFC0
03C0
03C0
0380
0380
0380
0780
0780
0700
0F00
FE00
FE00
F800
E000
ENDCHAR
STARTCHAR 003C
ENCODING 60
SWIDTH 580 0
DWIDTH 50 0
BBX 42 41 4 0
BITMAP
0000000001C0
0000000007C0
000000001FC0
00000000FFC0
00000003FFC0
0000000FFFC0
0000007FFF80
000001FFFE00
000007FFF000
00003FFFC000
0000FFFE0000
0007FFF80000
001FFFE00000
007FFF000000
03FFFC000000
0FFFE0000000
3FFF80000000
FFFC00000000
FFF000000000
FF8000000000
FF8000000000
FFE000000000
FFFC00000000
7FFF00000000
1FFFE0000000
07FFF8000000
00FFFE000000
003FFFC00000
000FFFF00000
0001FFFE0000
00007FFF8000
00001FFFE000
000003FFFC00
000000FFFF00
0000001FFFC0
00000007FFC0
00000001FFC0
000000003FC0
000000000FC0
0000000003C0
000000000040
ENDCHAR
STARTCHAR 003D
ENCODING 61
SWIDTH 580 0
DWIDTH 50 0
BBX 42 20 4 10
BITMAP
FFFFFFFFFFC0
FFFFFFFFFFC0
FFFFFFFFFFC0
FFFFFFFFFFC0
FFFFFFFFFFC0
FFFFFFFFFFC0
000000000000
000000000000
000000000000
000000000000
000000000000
000000000000
000000000000
000000000000
FFFFFFFFFFC0
FFFFFFFFFFC0
FFFFFFFFFFC0
FFFFFFFFFFC0
FFFFFFFFFFC0
FFFFFFFFFFC0
ENDCHAR
STARTCHAR 003E
ENCODING 62
SWIDTH 580 0
DWIDTH 50 0
BBX 42 42 4 -1
BITMAP
800000000000
E00000000000
F80000000000
FF0000000000
FFC000000000
FFF000000000
FFFE00000000
7FFF80000000
1FFFE0000000
03FFFC000000
00FFFF000000
001FFFC00000
0007FFF80000
0001FFFE0000
00003FFFC000
00000FFFF000
000001FFFC00
0000007FFF80
0000001FFFC0
00000003FFC0
00000000FFC0
000000003FC0
00000001FFC0
00000007FFC0
0000001FFFC0
000000FFFE00
000003FFF800
00001FFFE000
00007FFF0000
0003FFFC0000
000FFFE00000
007FFF800000
01FFFE000000
0FFFF0000000
3FFFC0000000
FFFF00000000
FFF800000000
FFE000000000
FF8000000000
FC0000000000
F00000000000
800000000000
ENDCHAR
STARTCHAR 003F
ENCODING 63
SWIDTH 557 0
DWIDTH 48 0
BBX 37 64 7 0
BITMAP
0007FF0000
003FFFE000
00FFFFF800
03FFFFFE00
07FFFFFF00
0FFFFFFF80
1FFFFFFFC0
1FF801FFC0
3FE0007FE0
3FC0003FE0
7F80001FF0
7F80000FF0
7F00000FF0
FF000007F8
FF000007F8
FE000007F8
FE000007F8
FE000007F8
FE000007F8
FE000007F8
0000000FF0
0000000FF0
0000001FF0
0000001FE0
0000003FE0
0000007FC0
000000FF80
000001FF80
000003FF00
000007FE00
00000FFC00
00001FF800
00003FF000
00007FE000
0000FFC000
0001FF8000
0001FF0000
0003FE0000
0003FC0000
0003FC0000
0003FC0000
0003FC0000
0003F80000
0003F80000
0003F80000
0003F80000
0003F80000
0000000000
0000000000
0000000000
0000000000
0000000000
0000000000
0000000000
0000000000
0003F80000
0003F80000
0003F80000
0003F80000
0003F80000
0003F80000
0003F80000
0003F80000
0003F80000
ENDCHAR
STARTCHAR 0040
ENCODING 64
SWIDTH 1010 0
DWIDTH 87 0
BBX 79 76 3 -12
BITMAP
000000000FFF80000000
00000000FFFFF8000000
0000000FFFFFFF000000
0000003FFFFFFFE00000
000000FFFFFFFFF80000
000003FFFFFFFFFE0000
00000FFFFFFFFFFF0000
00003FFFC0007FFFC000
00007FFC00000FFFE000
0000FFF0000003FFF000
0003FFC00000007FF800
0007FF000000003FFC00
000FFC000000000FFE00
001FF80000000007FF00
003FF00000000003FF80
003FE00000000001FFC0
007FC00000000000FFC0
00FF8000000000007FE0
01FF0000000000003FE0
01FE000003F800001FF0
03FC00001FFF00000FF0
07F800007FFF83F80FF8
07F80001FFFFC3F807F8
0FF00003FFFFE7F807FC
0FE0000FFFFFE7F003FC
1FE0001FF807F7F003FC
1FC0003FE001FFF003FC
1FC0007FC000FFE001FE
3FC0007F8000FFE001FE
3F8000FF00007FE001FE
3F8001FE00007FC001FE
7F8001FE00007FC001FE
7F0003FC00007FC001FE
7F0003FC00007F8001FE
7F0007F800007F8001FE
FF0007F800007F8001FE
FF0007F000007F0001FE
FE000FF000007F0001FC
FE000FF00000FF0001FC
FE000FF00000FE0001FC
FE000FF00000FE0003FC
FE000FF00000FE0003F8
FE000FE00001FC0007F8
FE000FF00001FC0007F0
FF000FF00003FC0007F0
FF000FF00003F8000FE0
FF000FF00007F8001FE0
FF000FF00007F8003FC0
7F8007F8000FF8003FC0
7F8007FC001FF8007F80
7F8007FC003FF800FF00
3FC003FF007FFC03FE00
3FC001FF81FFFE0FFC00
3FE001FFFFFBFFFFF800
1FE000FFFFF1FFFFF000
1FF0007FFFE1FFFFE000
0FF8001FFF80FFFF8000
0FF80007FE007FFE0000
07FC000000001FF00000
03FE0000000000000000
03FF0000000000000000
01FF8000000000000000
00FFC000000000000000
007FF000000000000000
003FF800000000000000
001FFE00000000000000
000FFF80000000000000
0007FFF0000007800000
0003FFFE0000FF800000
0000FFFFFFFFFF800000
00003FFFFFFFFFC00000
00001FFFFFFFFFC00000
000003FFFFFFFFC00000
000000FFFFFFFE000000
0000001FFFFFE0000000
00000000FFFC00000000
ENDCHAR
STARTCHAR 0041
ENCODING 65
SWIDTH 661 0
DWIDTH 57 0
BBX 54 63 2 0
BITMAP
000003FF000000
000007FF800000
000007FF800000
000007FF800000
00000FFFC00000
00000FFFC00000
00000FFFC00000
00001FFFE00000
00001FFFE00000
00003FFFF00000
00003FCFF00000
00003FCFF00000
00007FCFF80000
00007F87F80000
00007F87F80000
0000FF07FC0000
0000FF03FC0000
0000FF03FC0000
0001FE03FE0000
0001FE01FE0000
0001FE01FE0000
0003FC01FF0000
0003FC00FF0000
0007FC00FF0000
0007F800FF8000
0007F8007F8000
000FF0007F8000
000FF0007FC000
000FF0003FC000
001FE0003FE000
001FE0003FE000
001FE0001FE000
003FC0001FF000
003FC0001FF000
003FC0000FF000
007F80000FF800
007F80000FF800
007FFFFFFFF800
00FFFFFFFFFC00
00FFFFFFFFFC00
01FFFFFFFFFC00
01FFFFFFFFFE00
01FFFFFFFFFE00
03FFFFFFFFFE00
03FC000001FF00
03FC000001FF00
07FC000000FF00
07F8000000FF80
07F8000000FF80
0FF80000007FC0
0FF00000007FC0
0FF00000007FC0
1FF00000003FE0
1FE00000003FE0
3FE00000003FE0
3FE00000001FF0
3FC00000001FF0
7FC00000001FF0
7FC00000000FF8
7F800000000FF8
FF800000000FF8
FF8000000007FC
FF0000000007FC
ENDCHAR
STARTCHAR 0042
ENCODING 66
SWIDTH 661 0
DWIDTH 57 0
BBX 47 63 7 0
BITMAP
FFFFFFFE0000
FFFFFFFFC000
FFFFFFFFF000
FFFFFFFFFC00
FFFFFFFFFE00
FFFFFFFFFF00
FFFFFFFFFF80
FF00000FFFC0
FF000001FFC0
FF0000007FE0
FF0000003FE0
FF0000003FE0
FF0000001FF0
FF0000001FF0
FF0000000FF0
FF0000000FF0
FF0000000FF0
FF0000000FF0
FF0000000FF0
FF0000000FF0
FF0000001FE0
FF0000001FE0
FF0000001FE0
FF0000003FC0
FF0000007F80
FF000001FF80
FF000007FF00
FFFFFFFFFE00
FFFFFFFFF800
FFFFFFFFE000
FFFFFFFFF800
FFFFFFFFFE00
FFFFFFFFFF80
FFFFFFFFFFC0
FF000001FFE0
FF0000003FF0
FF0000001FF8
FF0000000FF8
FF00000007FC
FF00000007FC
FF00000003FC
FF00000003FC
FF00000003FE
FF00000001FE
FF00000001FE
FF00000001FE
FF00000001FE
FF00000003FE
FF00000003FC
FF00000003FC
FF00000003FC
FF00000007FC
FF0000000FF8
FF0000001FF8
FF0000003FF0
FF000001FFF0
FFFFFFFFFFE0
FFFFFFFFFFC0
FFFFFFFFFF80
FFFFFFFFFF00
FFFFFFFFFC00
FFFFFFFFF800
FFFFFFFF8000
ENDCHAR
STARTCHAR 0043
ENCODING 67
SWIDTH 720 0
DWIDTH 62 0
BBX 54 66 4 -2
BITMAP
000001FFE00000
00001FFFFE0000
0000FFFFFF8000
0003FFFFFFE000
0007FFFFFFF000
001FFFFFFFFC00
003FFFFFFFFE00
007FFF00FFFF00
00FFF0000FFF00
00FFC00003FF80
01FF800000FFC0
03FF0000007FC0
03FE0000003FE0
07FC0000003FE0
0FF80000001FE0
0FF00000001FF0
1FF00000000FF0
1FE00000000FF0
1FE00000000FF8
3FC000000007F8
3FC000000007F8
3FC00000000000
7F800000000000
7F800000000000
7F800000000000
7F800000000000
7F800000000000
7F800000000000
FF000000000000
FF000000000000
FF000000000000
FF000000000000
FF000000000000
FF000000000000
FF000000000000
FF000000000000
FF000000000000
FF000000000000
FF800000000000
7F800000000000
7F800000000000
7F8000000003FC
7F8000000003FC
7FC000000003FC
3FC000000007FC
3FC000000007FC
3FE000000007F8
3FE000000007F8
1FF00000000FF8
1FF00000000FF8
0FF80000001FF0
0FF80000001FF0
07FC0000003FE0
07FE0000007FE0
03FF0000007FC0
01FF800001FFC0
01FFE00003FF80
00FFF8000FFF00
007FFF007FFF00
003FFFFFFFFE00
001FFFFFFFFC00
000FFFFFFFF000
0003FFFFFFE000
0000FFFFFF8000
00003FFFFC0000
000003FFC00000
ENDCHAR
STARTCHAR 0044
ENCODING 68
SWIDTH 720 0
DWIDTH 62 0
BBX 49 63 8 0
BITMAP
FFFFFFF8000000
FFFFFFFF800000
FFFFFFFFE00000
FFFFFFFFF80000
FFFFFFFFFE0000
FFFFFFFFFF0000
FFFFFFFFFF8000
FF00001FFFC000
FF000003FFE000
FF000000FFF000
FF0000003FF000
FF0000001FF800
FF0000000FF800
FF00000007FC00
FF00000007FC00
FF00000003FE00
FF00000001FE00
FF00000001FE00
FF00000001FF00
FF00000000FF00
FF00000000FF00
FF00000000FF80
FF000000007F80
FF000000007F80
FF000000007F80
FF000000007F80
FF000000007F80
FF000000007F80
FF000000007F80
FF000000007F80
FF000000007F80
FF000000007F80
FF000000007F80
FF000000007F80
FF000000007F80
FF000000007F80
FF000000007F80
FF000000007F80
FF000000007F80
FF000000007F80
FF000000007F80
FF00000000FF00
FF00000000FF00
FF00000000FF00
FF00000001FF00
FF00000001FE00
FF00000001FE00
FF00000003FE00
FF00000003FC00
FF00000007FC00
FF0000000FF800
FF0000001FF800
FF0000003FF000
FF0000007FE000
FF000003FFE000
FF00001FFFC000
FFFFFFFFFF8000
FFFFFFFFFF0000
FFFFFFFFFC0000
FFFFFFFFF80000
FFFFFFFFE00000
FFFFFFFF800000
FFFFFFF8000000
ENDCHAR
STARTCHAR 0045
ENCODING 69
SWIDTH 661 0
DWIDTH 57 0
BBX 45 63 8 0
BITMAP
FFFFFFFFFFE0
FFFFFFFFFFE0
FFFFFFFFFFE0
FFFFFFFFFFE0
FFFFFFFFFFE0
FFFFFFFFFFE0
FFFFFFFFFFE0
FF0000000000
FF0000000000
FF0000000000
FF0000000000
FF0000000000
FF0000000000
FF0000000000
FF0000000000
FF0000000000
FF0000000000
FF0000000000
FF0000000000
FF0000000000
FF0000000000
FF0000000000
FF0000000000
FF0000000000
FF0000000000
FF0000000000
FF0000000000
FFFFFFFFFFC0
FFFFFFFFFFC0
FFFFFFFFFFC0
FFFFFFFFFFC0
FFFFFFFFFFC0
FFFFFFFFFFC0
FFFFFFFFFFC0
FF0000000000
FF0000000000
FF0000000000
FF0000000000
FF0000000000
FF0000000000
FF0000000000
FF0000000000
FF0000000000
FF0000000000
FF0000000000
FF0000000000
FF0000000000
FF0000000000
FF0000000000
FF0000000000
FF0000000000
FF0000000000
FF0000000000
FF0000000000
FF0000000000
FF0000000000
FFFFFFFFFFF8
FFFFFFFFFFF8
FFFFFFFFFFF8
FFFFFFFFFFF8
FFFFFFFFFFF8
FFFFFFFFFFF8
FFFFFFFFFFF8
ENDCHAR
STARTCHAR 0046
ENCODING 70
SWIDTH 615 0
DWIDTH 53 0
BBX 42 63 8 0
BITMAP
FFFFFFFFFFC0
FFFFFFFFFFC0
FFFFFFFFFFC0
FFFFFFFFFFC0
FFFFFFFFFFC0
FFFFFFFFFFC0
FFFFFFFFFFC0
FF0000000000
FF0000000000
FF0000000000
FF0000000000
FF0000000000
FF0000000000
FF0000000000
FF0000000000
FF0000000000
FF0000000000
FF0000000000
FF0000000000
FF0000000000
FF0000000000
FF0000000000
FF0000000000
FF0000000000
FF0000000000
FF0000000000
FF0000000000
FFFFFFFFFC00
FFFFFFFFFC00
FFFFFFFFFC00
FFFFFFFFFC00
FFFFFFFFFC00
FFFFFFFFFC00
FFFFFFFFFC00
FF0000000000
FF0000000000
FF0000000000
FF0000000000
FF0000000000
FF0000000000
FF0000000000
FF0000000000
FF0000000000
FF0000000000
FF0000000000
FF0000000000
FF0000000000
FF0000000000
FF0000000000
FF0000000000
FF0000000000
FF0000000000
FF0000000000
FF0000000000
FF0000000000
FF0000000000
FF0000000000
FF0000000000
FF0000000000
FF0000000000
FF0000000000
FF0000000000
FF0000000000
ENDCHAR
STARTCHAR 0047
ENCODING 71
SWIDTH 778 0
DWIDTH 67 0
BBX 57 66 4 -2
BITMAP
000000FFF0000000
00000FFFFF000000
00007FFFFFE00000
0001FFFFFFF80000
0007FFFFFFFE0000
000FFFFFFFFF0000
001FFFFFFFFF8000
003FFF803FFFC000
007FFC0003FFE000
00FFF00000FFF000
01FFC000003FF800
03FF8000001FF800
03FE0000000FFC00
07FC00000007FC00
0FFC00000003FE00
0FF800000003FE00
1FF000000001FE00
1FF000000001FF00
3FE000000000FF00
3FC000000000FF00
3FC0000000000000
7FC0000000000000
7F80000000000000
7F80000000000000
7F80000000000000
7F80000000000000
FF00000000000000
FF00000000000000
FF00000000000000
FF00000000000000
FF00000000000000
FF000001FFFFFF80
FF000001FFFFFF80
FF000001FFFFFF80
FF000001FFFFFF80
FF000001FFFFFF80
FF000001FFFFFF80
FF000001FFFFFF80
FF00000000003F80
FF00000000003F80
FF80000000003F80
7F80000000003F80
7F80000000003F80
7F80000000003F80
7FC0000000007F80
3FC0000000007F80
3FE0000000007F80
3FE0000000007F80
1FF000000000FF80
1FF000000000FF80
0FF800000001FF80
0FFC00000003FF80
07FC00000007FF80
07FE0000000FFF80
03FF8000001FFF80
01FFC000003FFF80
01FFF00000FFFF80
00FFFC0003FFBF80
007FFFC01FFF1F80
003FFFFFFFFC1F80
000FFFFFFFF81F80
0007FFFFFFF01F80
0001FFFFFFC01F80
00007FFFFF000F80
00001FFFFC000000
000001FFC0000000
ENDCHAR
STARTCHAR 0048
ENCODING 72
SWIDTH 720 0
DWIDTH 62 0
BBX 48 63 7 0
BITMAP
FF00000000FF
FF00000000FF
FF00000000FF
FF00000000FF
FF00000000FF
FF00000000FF
FF00000000FF
FF00000000FF
FF00000000FF
FF00000000FF
FF00000000FF
FF00000000FF
FF00000000FF
FF00000000FF
FF00000000FF
FF00000000FF
FF00000000FF
FF00000000FF
FF00000000FF
FF00000000FF
FF00000000FF
FF00000000FF
FF00000000FF
FF00000000FF
FF00000000FF
FF00000000FF
FF00000000FF
FFFFFFFFFFFF
FFFFFFFFFFFF
FFFFFFFFFFFF
FFFFFFFFFFFF
FFFFFFFFFFFF
FFFFFFFFFFFF
FFFFFFFFFFFF
FF00000000FF
FF00000000FF
FF00000000FF
FF00000000FF
FF00000000FF
FF00000000FF
FF00000000FF
FF00000000FF
FF00000000FF
FF00000000FF
FF00000000FF
FF00000000FF
FF00000000FF
FF00000000FF
FF00000000FF
FF00000000FF
FF00000000FF
FF00000000FF
FF00000000FF
FF00000000FF
FF00000000FF
FF00000000FF
FF00000000FF
FF00000000FF
FF00000000FF
FF00000000FF
FF00000000FF
FF00000000FF
FF00000000FF
ENDCHAR
STARTCHAR 0049
ENCODING 73
SWIDTH 278 0
DWIDTH 24 0
BBX 8 63 9 0
BITMAP
FF
FF
FF
FF
FF
FF
FF
FF
FF
FF
FF
FF
FF
FF
FF
FF
FF
FF
FF
FF
FF
FF
FF
FF
FF
FF
FF
FF
FF
FF
FF
FF
FF
FF
FF
FF
FF
FF
FF
FF
FF
FF
FF
FF
FF
FF
FF
FF
FF
FF
FF
FF
FF
FF
FF
FF
FF
FF
FF
FF
FF
FF
FF
ENDCHAR
STARTCHAR 004A
ENCODING 74
SWIDTH 499 0
DWIDTH 43 0
BBX 36 65 1 -2
BITMAP
0000000FF0
0000000FF0
0000000FF0
0000000FF0
0000000FF0
0000000FF0
0000000FF0
0000000FF0
0000000FF0
0000000FF0
0000000FF0
0000000FF0
0000000FF0
0000000FF0
0000000FF0
0000000FF0
0000000FF0
0000000FF0
0000000FF0
0000000FF0
0000000FF0
0000000FF0
0000000FF0
0000000FF0
0000000FF0
0000000FF0
0000000FF0
0000000FF0
0000000FF0
0000000FF0
0000000FF0
0000000FF0
0000000FF0
0000000FF0
0000000FF0
0000000FF0
0000000FF0
0000000FF0
0000000FF0
0000000FF0
0000000FF0
0000000FF0
0000000FF0
FF80000FF0
FF80000FF0
FF80000FF0
FF80000FF0
FF80000FF0
FF80000FF0
FF80001FF0
7F80001FE0
7F80001FE0
7FC0001FE0
7FC0003FE0
7FE0003FE0
3FE0007FC0
3FF000FFC0
1FFC03FF80
1FFFFFFF00
0FFFFFFF00
07FFFFFE00
03FFFFF800
00FFFFF000
003FFFC000
0007FE0000
ENDCHAR
STARTCHAR 004B
ENCODING 75
SWIDTH 661 0
DWIDTH 57 0
BBX 49 63 7 0
BITMAP
FF00000001FF80
FF00000003FF00
FF00000007FE00
FF0000000FFC00
FF0000001FF800
FF0000003FF000
FF0000007FE000
FF000000FFC000
FF000001FF8000
FF000003FF0000
FF000007FE0000
FF00000FFC0000
FF00001FF80000
FF00003FF00000
FF00007FE00000
FF0000FFC00000
FF0001FF800000
FF0003FF000000
FF0007FE000000
FF000FFC000000
FF001FF8000000
FF003FF0000000
FF007FE0000000
FF00FFC0000000
FF01FF80000000
FF03FF00000000
FF07FF00000000
FF0FFF80000000
FF1FFFC0000000
FF3FFFC0000000
FF7FFFE0000000
FFFF9FF0000000
FFFF1FF8000000
FFFE0FF8000000
FFFC07FC000000
FFF807FE000000
FFF003FE000000
FFE001FF000000
FFC001FF800000
FF8000FF800000
FF00007FC00000
FF00007FE00000
FF00003FE00000
FF00001FF00000
FF00001FF80000
FF00000FFC0000
FF000007FC0000
FF000003FE0000
FF000003FF0000
FF000001FF0000
FF000000FF8000
FF000000FFC000
FF0000007FC000
FF0000003FE000
FF0000003FF000
FF0000001FF000
FF0000000FF800
FF0000000FFC00
FF00000007FE00
FF00000003FE00
FF00000003FF00
FF00000001FF80
FF00000000FF80
ENDCHAR
STARTCHAR 004C
ENCODING 76
SWIDTH 557 0
DWIDTH 48 0
BBX 39 63 7 0
BITMAP
FF00000000
FF00000000
FF00000000
FF00000000
FF00000000
FF00000000
FF00000000
FF00000000
FF00000000
FF00000000
FF00000000
FF00000000
FF00000000
FF00000000
FF00000000
FF00000000
FF00000000
FF00000000
FF00000000
FF00000000
FF00000000
FF00000000
FF00000000
FF00000000
FF00000000
FF00000000
FF00000000
FF00000000
FF00000000
FF00000000
FF00000000
FF00000000
FF00000000
FF00000000
FF00000000
FF00000000
FF00000000
FF00000000
FF00000000
FF00000000
FF00000000
FF00000000
FF00000000
FF00000000
FF00000000
FF00000000
FF00000000
FF00000000
FF00000000
FF00000000
FF00000000
FF00000000
FF00000000
FF00000000
FF00000000
FF00000000
FFFFFFFFFE
FFFFFFFFFE
FFFFFFFFFE
FFFFFFFFFE
FFFFFFFFFE
FFFFFFFFFE
FFFFFFFFFE
ENDCHAR
STARTCHAR 004D
ENCODING 77
SWIDTH 836 0
DWIDTH 72 0
BBX 60 63 6 0
BITMAP
FFF000000000FFF0
FFF000000000FFF0
FFF000000000FFF0
FFF800000001FFF0
FFF800000001FFF0
FFF800000001FFF0
FFFC00000003FFF0
FFFC00000003FFF0
FFFC00000003FFF0
FFFE00000007FFF0
FFFE00000007FFF0
FFFE00000007FFF0
FF7F0000000FEFF0
FF7F0000000FEFF0
FF7F0000000FEFF0
FF3F8000001FCFF0
FF3F8000001FCFF0
FF3FC000001FCFF0
FF1FC000003F8FF0
FF1FC000003F8FF0
FF1FE000003F8FF0
FF0FE000007F0FF0
FF0FE000007F0FF0
FF0FF000007E0FF0
FF07F00000FE0FF0
FF07F00000FE0FF0
FF03F80000FC0FF0
FF03F80001FC0FF0
FF03F80001FC0FF0
FF01FC0001F80FF0
FF01FC0003F80FF0
FF01FC0003F80FF0
FF00FE0003F00FF0
FF00FE0007F00FF0
FF00FE0007F00FF0
FF007F0007E00FF0
FF007F000FE00FF0
FF007F000FE00FF0
FF003F800FC00FF0
FF003F801FC00FF0
FF003F801FC00FF0
FF001FC01F800FF0
FF001FC03F800FF0
FF001FC03F800FF0
FF000FE03F000FF0
FF000FE07F000FF0
FF000FE07F000FF0
FF0007F07E000FF0
FF0007F0FE000FF0
FF0007F0FE000FF0
FF0003F8FC000FF0
FF0003F9FC000FF0
FF0003F9FC000FF0
FF0001FDF8000FF0
FF0001FFF8000FF0
FF0001FFF8000FF0
FF0000FFF0000FF0
FF0000FFF0000FF0
FF0000FFF0000FF0
FF00007FE0000FF0
FF00007FE0000FF0
FF00007FE0000FF0
FF00003FC0000FF0
ENDCHAR
STARTCHAR 004E
ENCODING 78
SWIDTH 720 0
DWIDTH 62 0
BBX 49 63 7 0
BITMAP
FF800000007F80
FF800000007F80
FFC00000007F80
FFC00000007F80
FFE00000007F80
FFF00000007F80
FFF00000007F80
FFF80000007F80
FFFC0000007F80
FFFC0000007F80
FFFE0000007F80
FFFF0000007F80
FFFF0000007F80
FEFF8000007F80
FE7F8000007F80
FE7FC000007F80
FE3FE000007F80
FE1FE000007F80
FE1FF000007F80
FE0FF800007F80
FE07F800007F80
FE07FC00007F80
FE03FE00007F80
FE03FE00007F80
FE01FF00007F80
FE00FF00007F80
FE00FF80007F80
FE007FC0007F80
FE003FC0007F80
FE003FE0007F80
FE001FF0007F80
FE000FF0007F80
FE000FF8007F80
FE0007FC007F80
FE0007FC007F80
FE0003FE007F80
FE0001FE007F80
FE0001FF007F80
FE0000FF807F80
FE00007F807F80
FE00007FC07F80
FE00003FE07F80
FE00001FE07F80
FE00001FF07F80
FE00000FF87F80
FE00000FF87F80
FE000007FC7F80
FE000003FC7F80
FE000003FE7F80
FE000001FF7F80
FE000000FF7F80
FE000000FFFF80
FE0000007FFF80
FE0000003FFF80
FE0000003FFF80
FE0000001FFF80
FE0000001FFF80
FE0000000FFF80
FE00000007FF80
FE00000007FF80
FE00000003FF80
FE00000001FF80
FE00000001FF80
ENDCHAR
STARTCHAR 004F
ENCODING 79
SWIDTH 778 0
DWIDTH 67 0
BBX 61 66 3 -2
BITMAP
0000007FF0000000
000007FFFF800000
00003FFFFFE00000
0000FFFFFFF80000
0003FFFFFFFE0000
0007FFFFFFFF8000
001FFFFFFFFFC000
003FFFC01FFFE000
007FFC0001FFF000
00FFF000007FF800
00FFE000001FFC00
01FF8000000FFE00
03FF00000007FE00
07FE00000003FF00
07FC00000001FF00
0FF800000000FF80
0FF800000000FFC0
1FF0000000007FC0
1FF0000000003FC0
3FE0000000003FE0
3FE0000000001FE0
3FC0000000001FE0
3FC0000000001FF0
7FC0000000000FF0
7F80000000000FF0
7F80000000000FF0
7F80000000000FF0
7F80000000000FF8
7F800000000007F8
FF000000000007F8
FF000000000007F8
FF000000000007F8
FF000000000007F8
FF000000000007F8
FF000000000007F8
FF000000000007F8
FF000000000007F8
FF800000000007F8
7F800000000007F8
7F80000000000FF0
7F80000000000FF0
7F80000000000FF0
7FC0000000000FF0
3FC0000000001FF0
3FC0000000001FE0
3FE0000000001FE0
3FE0000000003FE0
1FF0000000003FC0
1FF0000000007FC0
0FF8000000007F80
0FF800000000FF80
07FC00000001FF00
07FE00000003FF00
03FF00000007FE00
01FF8000000FFC00
01FFE000001FFC00
00FFF000007FF800
007FFE0001FFF000
003FFFC01FFFE000
001FFFFFFFFFC000
0007FFFFFFFF8000
0003FFFFFFFE0000
0000FFFFFFF80000
00003FFFFFE00000
000007FFFF800000
0000007FF0000000
ENDCHAR
STARTCHAR 0050
ENCODING 80
SWIDTH 661 0
DWIDTH 57 0
BBX 45 63 8 0
BITMAP
FFFFFFFE0000
FFFFFFFFE000
FFFFFFFFF800
FFFFFFFFFE00
FFFFFFFFFF00
FFFFFFFFFF80
FFFFFFFFFFC0
FF000007FFC0
FF000001FFE0
FF0000007FE0
FF0000003FF0
FF0000001FF0
FF0000001FF8
FF0000000FF8
FF0000000FF8
FF00000007F8
FF00000007F8
FF00000007F8
FF00000007F8
FF00000007F8
FF00000007F8
FF0000000FF8
FF0000000FF8
FF0000000FF8
FF0000001FF0
FF0000003FF0
FF0000007FF0
FF000000FFE0
FF000007FFC0
FFFFFFFFFFC0
FFFFFFFFFF80
FFFFFFFFFF00
FFFFFFFFFE00
FFFFFFFFF800
FFFFFFFFE000
FFFFFFFF0000
FF0000000000
FF0000000000
FF0000000000
FF0000000000
FF0000000000
FF0000000000
FF0000000000
FF0000000000
FF0000000000
FF0000000000
FF0000000000
FF0000000000
FF0000000000
FF0000000000
FF0000000000
FF0000000000
FF0000000000
FF0000000000
FF0000000000
FF0000000000
FF0000000000
FF0000000000
FF0000000000
FF0000000000
FF0000000000
FF0000000000
FF0000000000
ENDCHAR
STARTCHAR 0051
ENCODING 81
SWIDTH 778 0
DWIDTH 67 0
BBX 61 69 3 -5
BITMAP
0000007FF0000000
000007FFFF800000
00003FFFFFE00000
0000FFFFFFF80000
0003FFFFFFFE0000
0007FFFFFFFF8000
001FFFFFFFFFC000
003FFFC01FFFE000
007FFC0001FFF000
00FFF000007FF800
01FFE000001FFC00
01FF8000000FFE00
03FF00000007FE00
07FE00000003FF00
07FC00000001FF80
0FF800000000FF80
0FF800000000FFC0
1FF0000000007FC0
1FF0000000003FC0
3FE0000000003FE0
3FE0000000001FE0
3FC0000000001FE0
3FC0000000001FF0
7FC0000000000FF0
7F80000000000FF0
7F80000000000FF0
7F80000000000FF0
7F80000000000FF8
7F800000000007F8
FF000000000007F8
FF000000000007F8
FF000000000007F8
FF000000000007F8
FF000000000007F8
FF000000000007F8
FF000000000007F8
FF000000000007F8
FF800000000007F8
7F800000000007F8
7F80000000000FF0
7F80000000000FF0
7F80000000000FF0
7FC0000000000FF0
3FC0000000001FF0
3FC0000000001FE0
3FE0000000001FE0
3FE0000002003FE0
1FF0000007003FC0
1FF0000007807FC0
0FF800000FC07F80
0FF800001FE0FF80
07FC00001FF9FF00
07FE00000FFFFF00
03FF000007FFFE00
01FF800003FFFC00
01FFE00000FFFC00
00FFF000007FF800
007FFE0001FFF000
003FFFC01FFFF800
001FFFFFFFFFFC00
0007FFFFFFFFFF00
0003FFFFFFFFFF80
0000FFFFFFF8FFC0
00003FFFFFE07FE0
000007FFFF803FF0
0000007FF0000FE0
00000000000007C0
0000000000000380
0000000000000180
ENDCHAR
STARTCHAR 0052
ENCODING 82
SWIDTH 720 0
DWIDTH 62 0
BBX 50 63 8 0
BITMAP
FFFFFFFFE00000
FFFFFFFFFC0000
FFFFFFFFFF8000
FFFFFFFFFFC000
FFFFFFFFFFE000
FFFFFFFFFFF000
FFFFFFFFFFF800
FF000000FFFC00
FF0000001FFC00
FF0000000FFE00
FF00000007FE00
FF00000003FE00
FF00000001FF00
FF00000001FF00
FF00000001FF00
FF00000000FF00
FF00000000FF00
FF00000000FF00
FF00000000FF00
FF00000000FF00
FF00000000FF00
FF00000001FF00
FF00000001FE00
FF00000001FE00
FF00000003FE00
FF00000003FC00
FF00000007F800
FF0000001FF800
FF000000FFF000
FFFFFFFFFFC000
FFFFFFFFFF8000
FFFFFFFFFE0000
FFFFFFFFFE0000
FFFFFFFFFF8000
FFFFFFFFFFE000
FFFFFFFFFFF000
FF0000007FF000
FF0000001FF800
FF0000000FF800
FF00000007FC00
FF00000003FC00
FF00000003FC00
FF00000003FC00
FF00000001FE00
FF00000001FE00
FF00000001FE00
FF00000001FE00
FF00000001FE00
FF00000001FE00
FF00000001FE00
FF00000001FE00
FF00000001FE00
FF00000001FE00
FF00000001FE00
FF00000001FE00
FF00000001FE00
FF00000001FE00
FF00000001FF00
FF00000001FF00
FF00000000FF80
FF00000000FFC0
FF00000000FFC0
FF000000007FC0
ENDCHAR
STARTCHAR 0053
ENCODING 83
SWIDTH 661 0
DWIDTH 57 0
BBX 49 66 4 -2
BITMAP
00001FFE000000
0003FFFFE00000
000FFFFFF80000
003FFFFFFE0000
007FFFFFFF0000
01FFFFFFFFC000
03FFFFFFFFE000
03FFC003FFF000
07FF00007FF000
0FFC00001FF800
0FF800000FF800
1FF0000007FC00
1FE0000003FC00
1FE0000003FE00
3FC0000001FE00
3FC0000001FE00
3FC0000001FE00
3FC0000000FE00
3FC0000000FE00
3FC0000000FE00
3FE00000000000
3FE00000000000
3FF00000000000
1FF80000000000
1FFE0000000000
0FFF8000000000
0FFFF000000000
07FFFE00000000
03FFFFE0000000
01FFFFFE000000
00FFFFFFE00000
003FFFFFFC0000
000FFFFFFF0000
0001FFFFFFC000
00001FFFFFF000
000001FFFFF800
0000001FFFFC00
00000003FFFE00
000000003FFE00
000000000FFF00
0000000003FF00
0000000001FF80
0000000000FF80
0000000000FF80
FF000000007F80
FF000000007F80
FF000000007F80
FF000000007F80
FF000000007F80
7F800000007F80
7F800000007F80
7F800000007F80
7FC0000000FF80
3FE0000000FF00
3FF0000001FF00
1FF8000003FE00
1FFC000007FE00
0FFF00001FFC00
07FFF001FFF800
03FFFFFFFFF000
01FFFFFFFFE000
00FFFFFFFFC000
003FFFFFFF8000
000FFFFFFE0000
0003FFFFF00000
00001FFE000000
ENDCHAR
STARTCHAR 0054
ENCODING 84
SWIDTH 615 0
DWIDTH 53 0
BBX 49 63 2 0
BITMAP
FFFFFFFFFFFF80
FFFFFFFFFFFF80
FFFFFFFFFFFF80
FFFFFFFFFFFF80
FFFFFFFFFFFF80
FFFFFFFFFFFF80
FFFFFFFFFFFF80
00000FF0000000
00000FF0000000
00000FF0000000
00000FF0000000
00000FF0000000
00000FF0000000
00000FF0000000
00000FF0000000
00000FF0000000
00000FF0000000
00000FF0000000
00000FF0000000
00000FF0000000
00000FF0000000
00000FF0000000
00000FF0000000
00000FF0000000
00000FF0000000
00000FF0000000
00000FF0000000
00000FF0000000
00000FF0000000
00000FF0000000
00000FF0000000
00000FF0000000
00000FF0000000
00000FF0000000
00000FF0000000
00000FF0000000
00000FF0000000
00000FF0000000
00000FF0000000
00000FF0000000
00000FF0000000
00000FF0000000
00000FF0000000
00000FF0000000
00000FF0000000
00000FF0000000
00000FF0000000
00000FF0000000
00000FF0000000
00000FF0000000
00000FF0000000
00000FF0000000
00000FF0000000
00000FF0000000
00000FF0000000
00000FF0000000
00000FF0000000
00000FF0000000
00000FF0000000
00000FF0000000
00000FF0000000
00000FF0000000
00000FF0000000
ENDCHAR
STARTCHAR 0055
ENCODING 85
SWIDTH 720 0
DWIDTH 62 0
BBX 49 65 7 -2
BITMAP
FF000000007F80
FF000000007F80
FF000000007F80
FF000000007F80
FF000000007F80
FF000000007F80
FF000000007F80
FF000000007F80
FF000000007F80
FF000000007F80
FF000000007F80
FF000000007F80
FF000000007F80
FF000000007F80
FF000000007F80
FF000000007F80
FF000000007F80
FF000000007F80
FF000000007F80
FF000000007F80
FF000000007F80
FF000000007F80
FF000000007F80
FF000000007F80
FF000000007F80
FF000000007F80
FF000000007F80
FF000000007F80
FF000000007F80
FF000000007F80
FF000000007F80
FF000000007F80
FF000000007F80
FF000000007F80
FF000000007F80
FF000000007F80
FF000000007F80
FF000000007F80
FF000000007F80
FF000000007F80
FF000000007F80
FF000000007F80
FF000000007F80
FF000000007F80
FF000000007F80
FF00000000FF80
FF00000000FF00
7F80000000FF00
7F80000000FF00
7F80000000FF00
7FC0000001FF00
7FC0000001FE00
3FE0000003FE00
3FF0000007FE00
1FF800000FFC00
1FFC00001FF800
0FFF00007FF800
07FFF007FFF000
03FFFFFFFFE000
01FFFFFFFFC000
00FFFFFFFF0000
003FFFFFFE0000
001FFFFFF80000
0003FFFFC00000
00003FFC000000
ENDCHAR
STARTCHAR 0056
ENCODING 86
SWIDTH 661 0
DWIDTH 57 0
BBX 52 63 3 0
BITMAP
FF000000000FF0
FF800000000FF0
FF800000001FF0
7F800000001FE0
7FC00000001FE0
3FC00000003FE0
3FC00000003FC0
3FE00000003FC0
1FE00000007FC0
1FE00000007F80
1FF00000007F80
0FF0000000FF80
0FF8000000FF00
0FF8000000FF00
07F8000001FF00
07FC000001FE00
07FC000001FE00
03FC000003FC00
03FE000003FC00
01FE000003FC00
01FE000007F800
01FF000007F800
00FF000007F800
00FF00000FF000
00FF80000FF000
007F80000FF000
007F80001FE000
007FC0001FE000
003FC0001FE000
003FC0003FC000
003FE0003FC000
001FE0003FC000
001FE0007F8000
000FF0007F8000
000FF0007F8000
000FF000FF0000
0007F800FF0000
0007F800FF0000
0007FC01FE0000
0003FC01FE0000
0003FC01FE0000
0003FE03FC0000
0001FE03FC0000
0001FE03F80000
0001FF07F80000
0000FF07F80000
0000FF07F00000
00007F87F00000
00007F8FF00000
00007F8FE00000
00003FCFE00000
00003FDFE00000
00003FDFC00000
00001FFFC00000
00001FFFC00000
00001FFF800000
00000FFF800000
00000FFF800000
000007FF000000
000007FF000000
000007FF000000
000003FE000000
000003FE000000
ENDCHAR
STARTCHAR 0057
ENCODING 87
SWIDTH 940 0
DWIDTH 81 0
BBX 78 63 2 0
BITMAP
FF8000003FE0000007FC
FF8000003FF0000007FC
7F8000003FF000000FF8
7FC000003FF000000FF8
7FC000007FF000000FF8
7FC000007FF800000FF8
3FC000007FF800000FF0
3FE000007FF800001FF0
3FE00000FFFC00001FF0
3FE00000FFFC00001FF0
1FE00000FFFC00001FE0
1FF00001FFFC00003FE0
1FF00001FDFE00003FE0
1FF00001FDFE00003FE0
0FF00001FCFE00003FC0
0FF00003FCFF00003FC0
0FF80003F8FF00007FC0
0FF80003F87F00007FC0
07F80003F87F00007F80
07F80007F87F80007F80
07FC0007F07F8000FF80
07FC0007F03F8000FF80
03FC000FF03F8000FF00
03FC000FE03FC000FF00
03FE000FE01FC000FF00
03FE000FE01FC001FF00
01FE001FE01FE001FE00
01FE001FC01FE001FE00
01FE001FC00FE001FE00
01FF001FC00FE003FE00
00FF003FC00FF003FC00
00FF003F800FF003FC00
00FF003F8007F003FC00
00FF807F8007F807FC00
007F807F8007F807F800
007F807F0003F807F800
007F807F0003F807F800
007FC0FF0003FC07F000
003FC0FE0003FC0FF000
003FC0FE0001FC0FF000
003FC0FE0001FE0FF000
003FC1FE0001FE0FE000
001FE1FC0000FE1FE000
001FE1FC0000FE1FE000
001FE3FC0000FF1FE000
001FE3FC0000FF1FC000
000FF3F800007F1FC000
000FF3F800007F3FC000
000FF7F800007FBFC000
0007F7F000007FBF8000
0007F7F000003FBF8000
0007FFF000003FFF8000
0007FFF000003FFF8000
0003FFE000001FFF0000
0003FFE000001FFF0000
0003FFE000001FFF0000
0003FFE000001FFF0000
0001FFC000000FFE0000
0001FFC000000FFE0000
0001FFC000000FFE0000
0001FF80000007FE0000
0000FF80000007FC0000
0000FF80000007FC0000
ENDCHAR
STARTCHAR 0058
ENCODING 88
SWIDTH 661 0
DWIDTH 57 0
BBX 54 63 2 0
BITMAP
3FE00000001FF8
3FF00000003FF0
1FF80000003FE0
0FF80000007FC0
0FFC000000FFC0
07FE000000FF80
03FE000001FF00
03FF000003FF00
01FF800003FE00
00FF800007FC00
00FFC0000FFC00
007FE0000FF800
003FE0001FF000
003FF0003FF000
001FF0003FE000
000FF8007FC000
000FFC00FF8000
0007FC00FF8000
0003FE01FF0000
0003FF01FE0000
0001FF03FE0000
0000FF87FC0000
00007FC7F80000
00007FCFF80000
00003FFFF00000
00001FFFE00000
00001FFFE00000
00000FFFC00000
000007FF800000
000007FF000000
000003FF000000
000003FF000000
000007FF800000
00000FFFC00000
00001FFFC00000
00001FFFE00000
00003FFFF00000
00007FDFF00000
00007FCFF80000
0000FF87FC0000
0001FF07FC0000
0001FF03FE0000
0003FE01FF0000
0007FC01FF0000
0007FC00FF8000
000FF8007FC000
001FF0007FE000
001FF0003FE000
003FE0001FF000
007FC0001FF800
00FFC0000FF800
00FF80000FFC00
01FF000007FE00
03FF000003FE00
03FE000003FF00
07FE000001FF80
0FFC000000FF80
0FF8000000FFC0
1FF80000007FE0
3FF00000003FE0
3FE00000003FF0
7FE00000001FF8
FFC00000000FFC
ENDCHAR
STARTCHAR 0059
ENCODING 89
SWIDTH 661 0
DWIDTH 57 0
BBX 56 63 1 0
BITMAP
FFC000000003FF
7FE000000007FE
3FF000000007FC
3FF00000000FFC
1FF80000000FF8
0FF80000001FF8
0FFC0000001FF0
07FE0000003FE0
07FE0000007FE0
03FF0000007FC0
01FF000000FF80
01FF800000FF80
00FFC00001FF00
007FC00003FF00
007FE00003FE00
003FE00007FC00
001FF00007FC00
001FF8000FF800
000FF8000FF800
000FFC001FF000
0007FC003FE000
0003FE003FE000
0003FF007FC000
0001FF007F8000
0000FF80FF8000
0000FF81FF0000
00007FC1FF0000
00007FE3FE0000
00003FE3FC0000
00001FF7FC0000
00001FF7F80000
00000FFFF00000
000007FFF00000
000007FFE00000
000003FFE00000
000001FFC00000
000001FF800000
000000FF800000
000000FF000000
000000FF000000
000000FF000000
000000FF000000
000000FF000000
000000FF000000
000000FF000000
000000FF000000
000000FF000000
000000FF000000
000000FF000000
000000FF000000
000000FF000000
000000FF000000
000000FF000000
000000FF000000
000000FF000000
000000FF000000
000000FF000000
000000FF000000
000000FF000000
000000FF000000
000000FF000000
000000FF000000
000000FF000000
ENDCHAR
STARTCHAR 005A
ENCODING 90
SWIDTH 615 0
DWIDTH 53 0
BBX 48 63 2 0
BITMAP
1FFFFFFFFFFF
1FFFFFFFFFFF
1FFFFFFFFFFF
1FFFFFFFFFFF
1FFFFFFFFFFF
1FFFFFFFFFFF
1FFFFFFFFFFF
0000000003FF
0000000007FE
000000000FFC
000000001FF8
000000001FF8
000000003FF0
000000007FE0
00000000FFC0
00000000FFC0
00000001FF80
00000003FF00
00000007FE00
00000007FE00
0000000FFC00
0000001FF800
0000003FF000
0000007FE000
0000007FE000
000000FFC000
000001FF8000
000003FF0000
000003FF0000
000007FE0000
00000FFC0000
00001FF80000
00003FF80000
00003FF00000
00007FE00000
0000FFC00000
0001FF800000
0001FF800000
0003FF000000
0007FE000000
000FFC000000
000FFC000000
001FF8000000
003FF0000000
007FE0000000
00FFE0000000
00FFC0000000
01FF80000000
03FF00000000
07FE00000000
07FE00000000
0FFC00000000
1FF800000000
3FF000000000
3FF000000000
7FE000000000
FFFFFFFFFFFF
FFFFFFFFFFFF
FFFFFFFFFFFF
FFFFFFFFFFFF
FFFFFFFFFFFF
FFFFFFFFFFFF
FFFFFFFFFFFF
ENDCHAR
STARTCHAR 005B
ENCODING 91
SWIDTH 278 0
DWIDTH 24 0
BBX 16 81 6 -18
BITMAP
FFFF
FFFF
FFFF
FFFF
FFFF
FFFF
FE00
FE00
FE00
FE00
FE00
FE00
FE00
FE00
FE00
FE00
FE00
FE00
FE00
FE00
FE00
FE00
FE00
FE00
FE00
FE00
FE00
FE00
FE00
FE00
FE00
FE00
FE00
FE00
FE00
FE00
FE00
FE00
FE00
FE00
FE00
FE00
FE00
FE00
FE00
FE00
FE00
FE00
FE00
FE00
FE00
FE00
FE00
FE00
FE00
FE00
FE00
FE00
FE00
FE00
FE00
FE00
FE00
FE00
FE00
FE00
FE00
FE00
FE00
FE00
FE00
FE00
FE00
FE00
FE00
FFFF
FFFF
FFFF
FFFF
FFFF
FFFF
ENDCHAR
STARTCHAR 005C
ENCODING 92
SWIDTH 278 0
DWIDTH 24 0
BBX 25 65 -1 -2
BITMAP
F8000000
7C000000
7C000000
7C000000
3C000000
3E000000
3E000000
1E000000
1F000000
1F000000
0F000000
0F800000
0F800000
07800000
07C00000
07C00000
07C00000
03E00000
03E00000
03E00000
01E00000
01F00000
01F00000
00F00000
00F80000
00F80000
00780000
007C0000
007C0000
003C0000
003E0000
003E0000
003E0000
001F0000
001F0000
001F0000
000F8000
000F8000
000F8000
00078000
0007C000
0007C000
0003C000
0003E000
0003E000
0001E000
0001F000
0001F000
0000F000
0000F800
0000F800
0000F800
00007C00
00007C00
00007C00
00003C00
00003E00
00003E00
00001E00
00001F00
00001F00
00000F00
00000F80
00000F80
00000780
ENDCHAR
STARTCHAR 005D
ENCODING 93
SWIDTH 278 0
DWIDTH 24 0
BBX 16 81 2 -18
BITMAP
FFFF
FFFF
FFFF
FFFF
FFFF
FFFF
007F
007F
007F
007F
007F
007F
007F
007F
007F
007F
007F
007F
007F
007F
007F
007F
007F
007F
007F
007F
007F
007F
007F
007F
007F
007F
007F
007F
007F
007F
007F
007F
007F
007F
007F
007F
007F
007F
007F
007F
007F
007F
007F
007F
007F
007F
007F
007F
007F
007F
007F
007F
007F
007F
007F
007F
007F
007F
007F
007F
007F
007F
007F
007F
007F
007F
007F
007F
007F
FFFF
FFFF
FFFF
FFFF
FFFF
FFFF
ENDCHAR
STARTCHAR 005E
ENCODING 94
SWIDTH 464 0
DWIDTH 40 0
BBX 33 33 4 28
BITMAP
0007E00000
000FF00000
000FF00000
000FF80000
001FF80000
001FFC0000
003FFC0000
003FFC0000
003E7E0000
007E7E0000
007E3F0000
00FC3F0000
00FC3F0000
00F81F8000
01F81F8000
01F80FC000
03F00FC000
03F00FC000
07E007E000
07E007E000
07E003F000
0FC003F000
0FC003F000
1F8001F800
1F8001F800
1F8000FC00
3F0000FC00
3F00007E00
7E00007E00
7E00007E00
7E00003F00
FC00003F00
FC00001F80
ENDCHAR
STARTCHAR 005F
ENCODING 95
SWIDTH 557 0
DWIDTH 48 0
BBX 52 4 -2 -15
BITMAP
FFFFFFFFFFFFF0
FFFFFFFFFFFFF0
FFFFFFFFFFFFF0
FFFFFFFFFFFFF0
ENDCHAR
STARTCHAR 0060
ENCODING 96
SWIDTH 336 0
DWIDTH 29 0
BBX 18 13 2 51
BITMAP
FFC000
7FE000
3FE000
1FF000
0FF800
07F800
03FC00
01FC00
00FE00
007F00
003F00
001F80
000FC0
ENDCHAR
STARTCHAR 0061
ENCODING 97
SWIDTH 557 0
DWIDTH 48 0
BBX 42 48 4 -2
BITMAP
0003FFC00000
001FFFF80000
00FFFFFE0000
01FFFFFF8000
03FFFFFFC000
07FFFFFFE000
0FFFFFFFE000
1FFC007FF000
1FF0001FF000
3FE0000FF000
3FC00007F800
3FC00007F800
3F800007F800
3F800007F800
3F800007F800
00000007F800
00000007F800
00000007F800
0000000FF800
0000007FF800
00001FFFF800
000FFFFFF800
00FFFFFFF800
03FFFFFFF800
07FFFFF7F800
1FFFFF07F800
3FFF8007F800
3FF80007F800
7FE00007F800
7F800007F800
FF000007F800
FF000007F800
FE000007F800
FE000007F800
FE000007F800
FE000007F800
FE00000FF800
FF00001FF800
FF00003FF800
FF8000FFF800
7FE003FFF800
7FFC1FFFFC00
3FFFFFF3FFC0
1FFFFFE3FFC0
0FFFFFC1FFC0
07FFFF01FFC0
01FFFC00FFC0
003FE0003F80
ENDCHAR
STARTCHAR 0062
ENCODING 98
SWIDTH 557 0
DWIDTH 48 0
BBX 40 65 5 -2
BITMAP
FE00000000
FE00000000
FE00000000
FE00000000
FE00000000
FE00000000
FE00000000
FE00000000
FE00000000
FE00000000
FE00000000
FE00000000
FE00000000
FE00000000
FE00000000
FE00000000
FE00000000
FE00FF8000
FE07FFF800
FE0FFFFE00
FE3FFFFF00
FE7FFFFF80
FEFFFFFFC0
FFFFFFFFE0
FFFE00FFF0
FFF8003FF0
FFF0001FF8
FFE0000FFC
FFC00007FC
FFC00003FC
FF800003FE
FF800001FE
FF000001FE
FF000001FE
FF000000FF
FE000000FF
FE000000FF
FE000000FF
FE000000FF
FE000000FF
FE0000007F
FE0000007F
FE0000007F
FE000000FF
FE000000FF
FE000000FF
FE000000FF
FF000000FE
FF000000FE
FF000001FE
FF800001FE
FF800003FC
FFC00003FC
FFC00007FC
FFE0000FF8
FFF0001FF8
FFF8003FF0
FFFE00FFE0
FDFFFFFFE0
FCFFFFFFC0
FC7FFFFF80
FC3FFFFE00
FC1FFFFC00
0007FFF000
0000FF8000
ENDCHAR
STARTCHAR 0063
ENCODING 99
SWIDTH 499 0
DWIDTH 43 0
BBX 38 48 3 -2
BITMAP
0001FF8000
000FFFF000
003FFFFC00
007FFFFE00
01FFFFFF80
03FFFFFFC0
07FFFFFFC0
0FFE00FFE0
0FF8003FF0
1FF0001FF0
1FE0000FF0
3FC00007F8
3FC00007F8
7F800003F8
7F800003F8
7F000003FC
7F00000000
FF00000000
FF00000000
FF00000000
FE00000000
FE00000000
FE00000000
FE00000000
FE00000000
FE00000000
FE00000000
FE00000000
FE00000000
FF00000000
FF00000000
FF000001FC
7F000003FC
7F800003FC
7F800003FC
3FC00007F8
3FC00007F8
3FE0000FF8
1FF0001FF0
0FF8003FF0
0FFE007FE0
07FFFFFFC0
03FFFFFF80
01FFFFFF00
00FFFFFE00
003FFFFC00
000FFFF000
0001FF0000
ENDCHAR
STARTCHAR 0064
ENCODING 100
SWIDTH 557 0
DWIDTH 48 0
BBX 41 65 2 -2
BITMAP
000000007F80
000000007F80
000000007F80
000000007F80
000000007F80
000000007F80
000000007F80
000000007F80
000000007F80
000000007F80
000000007F80
000000007F80
000000007F80
000000007F80
000000007F80
000000007F80
000000007F80
0001FF007F80
000FFFE07F80
003FFFF87F80
007FFFFC7F80
01FFFFFF7F80
03FFFFFF7F80
03FFFFFFFF80
07FF007FFF80
0FFE001FFF80
0FF8000FFF80
1FF00007FF80
1FE00003FF80
3FE00001FF80
3FC00001FF80
7FC00000FF80
7F800000FF80
7F800000FF80
7F8000007F80
7F0000007F80
FF0000007F80
FF0000007F80
FF0000007F80
FF0000007F80
FF0000007F80
FF0000007F80
FF0000007F80
FF0000007F80
FF0000007F80
7F0000007F80
7F0000007F80
7F8000007F80
7F8000007F80
7F800000FF80
3FC00000FF80
3FC00001FF80
3FE00001FF80
1FE00003FF80
1FF00007FF80
0FF8000FFF80
0FFE001FFF80
07FF807FFF80
07FFFFFFBF80
03FFFFFF3F80
01FFFFFE3F80
007FFFFC3F80
003FFFF83F80
000FFFE00000
0001FF000000
ENDCHAR
STARTCHAR 0065
ENCODING 101
SWIDTH 557 0
DWIDTH 48 0
BBX 41 48 3 -2
BITMAP
0000FFC00000
0007FFF80000
001FFFFE0000
003FFFFF8000
00FFFFFFC000
01FFFFFFE000
03FFFFFFF000
07FF003FF800
07FC000FFC00
0FF80007FC00
0FF00003FE00
1FE00001FE00
1FC00000FF00
3FC00000FF00
3F800000FF00
3F8000007F00
7F8000007F80
7F8000007F80
7F0000007F80
7F0000007F80
7FFFFFFFFF80
7FFFFFFFFF80
7FFFFFFFFF80
FFFFFFFFFF80
FFFFFFFFFF80
FFFFFFFFFF80
7F0000000000
7F0000000000
7F0000000000
7F0000000000
7F0000000000
7F8000000000
7F8000007F00
3F8000007F00
3FC00000FF00
3FC00000FE00
1FE00001FE00
1FF00003FE00
0FF80007FC00
0FFC000FFC00
07FF003FF800
03FFFFFFF000
01FFFFFFE000
00FFFFFFC000
007FFFFF8000
001FFFFE0000
0007FFF80000
0000FFC00000
ENDCHAR
STARTCHAR 0066
ENCODING 102
SWIDTH 278 0
DWIDTH 24 0
BBX 20 63 2 0
BITMAP
000FF0
003FF0
007FF0
00FFF0
01FFF0
01FFF0
03FF00
03FC00
03F800
03F800
03F800
03F800
03F800
03F800
03F800
03F800
03F800
03F800
FFFFF0
FFFFF0
FFFFF0
FFFFF0
FFFFF0
FFFFF0
03F800
03F800
03F800
03F800
03F800
03F800
03F800
03F800
03F800
03F800
03F800
03F800
03F800
03F800
03F800
03F800
03F800
03F800
03F800
03F800
03F800
03F800
03F800
03F800
03F800
03F800
03F800
03F800
03F800
03F800
03F800
03F800
03F800
03F800
03F800
03F800
03F800
03F800
03F800
ENDCHAR
STARTCHAR 0067
ENCODING 103
SWIDTH 557 0
DWIDTH 48 0
BBX 38 65 3 -19
BITMAP
0001FE0000
000FFF80FC
003FFFE0FC
00FFFFF0FC
01FFFFF8FC
03FFFFFCFC
07FFFFFEFC
07FE00FFFC
0FF8007FFC
0FF0001FFC
1FE0001FFC
1FC0000FFC
3FC00007FC
3F800007FC
7F800003FC
7F800003FC
7F000003FC
7F000003FC
7F000001FC
FF000001FC
FF000001FC
FF000001FC
FF000001FC
FF000001FC
FF000001FC
FF000001FC
FF000001FC
FF000001FC
FF000001FC
FF000001FC
FF000001FC
7F000003FC
7F800003FC
7F800003FC
7F800007FC
3FC00007FC
3FC0000FFC
1FE0000FFC
1FF0001FFC
0FF8007FFC
07FE00FFFC
07FFFFFDFC
03FFFFF9FC
01FFFFF1FC
00FFFFE1FC
003FFFC1FC
001FFF01FC
0003FC01FC
00000001FC
00000001FC
00000003FC
7F800003F8
3F800003F8
3F800007F8
3FC00007F0
3FC0000FF0
1FE0001FE0
1FF0003FE0
0FFE01FFC0
07FFFFFF80
03FFFFFF80
01FFFFFE00
00FFFFFC00
003FFFE000
0003FF0000
ENDCHAR
STARTCHAR 0068
ENCODING 104
SWIDTH 557 0
DWIDTH 48 0
BBX 36 63 6 0
BITMAP
FE00000000
FE00000000
FE00000000
FE00000000
FE00000000
FE00000000
FE00000000
FE00000000
FE00000000
FE00000000
FE00000000
FE00000000
FE00000000
FE00000000
FE00000000
FE00000000
FE00000000
FE007FC000
FE03FFF800
FE0FFFFE00
FE1FFFFF00
FE3FFFFF80
FE7FFFFFC0
FEFF87FFE0
FFFC007FE0
FFF0003FE0
FFE0001FF0
FFC0000FF0
FFC0000FF0
FF80000FF0
FF800007F0
FF000007F0
FF000007F0
FF000007F0
FF000007F0
FE000007F0
FE000007F0
FE000007F0
FE000007F0
FE000007F0
FE000007F0
FE000007F0
FE000007F0
FE000007F0
FE000007F0
FE000007F0
FE000007F0
FE000007F0
FE000007F0
FE000007F0
FE000007F0
FE000007F0
FE000007F0
FE000007F0
FE000007F0
FE000007F0
FE000007F0
FE000007F0
FE000007F0
FE000007F0
FE000007F0
FE000007F0
FE000007F0
ENDCHAR
STARTCHAR 0069
ENCODING 105
SWIDTH 220 0
DWIDTH 19 0
BBX 7 63 6 0
BITMAP
FE
FE
FE
FE
FE
FE
FE
FE
FE
00
00
00
00
00
00
00
00
00
FE
FE
FE
FE
FE
FE
FE
FE
FE
FE
FE
FE
FE
FE
FE
FE
FE
FE
FE
FE
FE
FE
FE
FE
FE
FE
FE
FE
FE
FE
FE
FE
FE
FE
FE
FE
FE
FE
FE
FE
FE
FE
FE
FE
FE
ENDCHAR
STARTCHAR 006A
ENCODING 106
SWIDTH 220 0
DWIDTH 19 0
BBX 15 82 -2 -19
BITMAP
00FE
00FE
00FE
00FE
00FE
00FE
00FE
00FE
00FE
0000
0000
0000
0000
0000
0000
0000
0000
0000
00FE
00FE
00FE
00FE
00FE
00FE
00FE
00FE
00FE
00FE
00FE
00FE
00FE
00FE
00FE
00FE
00FE
00FE
00FE
00FE
00FE
00FE
00FE
00FE
00FE
00FE
00FE
00FE
00FE
00FE
00FE
00FE
00FE
00FE
00FE
00FE
00FE
00FE
00FE
00FE
00FE
00FE
00FE
00FE
00FE
00FE
00FE
00FE
00FE
00FE
00FE
00FE
00FE
00FE
00FE
01FE
01FE
0FFE
FFFC
FFFC
FFF8
FFF0
FFE0
FF00
ENDCHAR
STARTCHAR 006B
ENCODING 107
SWIDTH 499 0
DWIDTH 43 0
BBX 38 63 5 0
BITMAP
FE00000000
FE00000000
FE00000000
FE00000000
FE00000000
FE00000000
FE00000000
FE00000000
FE00000000
FE00000000
FE00000000
FE00000000
FE00000000
FE00000000
FE00000000
FE00000000
FE00000000
FE00000000
FE00003FE0
FE00007FC0
FE0000FF80
FE0001FF00
FE0003FE00
FE0007FC00
FE000FF800
FE001FF000
FE003FE000
FE007FC000
FE00FF8000
FE01FF0000
FE03FE0000
FE07FC0000
FE0FF80000
FE1FF00000
FE3FF00000
FE7FF80000
FEFFFC0000
FFFFFC0000
FFFFFE0000
FFF9FF0000
FFF1FF0000
FFE0FF8000
FFC07F8000
FF807FC000
FF003FE000
FE003FE000
FE001FF000
FE000FF800
FE000FF800
FE0007FC00
FE0003FC00
FE0003FE00
FE0001FF00
FE0001FF00
FE0000FF80
FE00007FC0
FE00007FC0
FE00003FE0
FE00001FE0
FE00001FF0
FE00000FF8
FE00000FF8
FE000007FC
ENDCHAR
STARTCHAR 006C
ENCODING 108
SWIDTH 220 0
DWIDTH 19 0
BBX 7 63 6 0
BITMAP
FE
FE
FE
FE
FE
FE
FE
FE
FE
FE
FE
FE
FE
FE
FE
FE
FE
FE
FE
FE
FE
FE
FE
FE
FE
FE
FE
FE
FE
FE
FE
FE
FE
FE
FE
FE
FE
FE
FE
FE
FE
FE
FE
FE
FE
FE
FE
FE
FE
FE
FE
FE
FE
FE
FE
FE
FE
FE
FE
FE
FE
FE
FE
ENDCHAR
STARTCHAR 006D
ENCODING 109
SWIDTH 836 0
DWIDTH 72 0
BBX 60 46 6 0
BITMAP
0001FF80003FE000
FE07FFF001FFFC00
FE1FFFF807FFFE00
FE3FFFFC0FFFFF80
FE7FFFFE1FFFFF80
FEFFFFFF3FFFFFC0
FFFF0FFF7FC3FFE0
FFF801FFFE007FE0
FFF000FFFC003FE0
FFE0007FF8001FE0
FFC0007FF0001FF0
FF80003FE0000FF0
FF00003FE0000FF0
FF00003FC0000FF0
FF00003FC0000FF0
FE00003FC0000FF0
FE00003FC0000FF0
FE00003F80000FF0
FE00003F80000FF0
FE00003F80000FF0
FE00003F80000FF0
FE00003F80000FF0
FE00003F80000FF0
FE00003F80000FF0
FE00003F80000FF0
FE00003F80000FF0
FE00003F80000FF0
FE00003F80000FF0
FE00003F80000FF0
FE00003F80000FF0
FE00003F80000FF0
FE00003F80000FF0
FE00003F80000FF0
FE00003F80000FF0
FE00003F80000FF0
FE00003F80000FF0
FE00003F80000FF0
FE00003F80000FF0
FE00003F80000FF0
FE00003F80000FF0
FE00003F80000FF0
FE00003F80000FF0
FE00003F80000FF0
FE00003F80000FF0
FE00003F80000FF0
FE00003F80000FF0
ENDCHAR
STARTCHAR 006E
ENCODING 110
SWIDTH 557 0
DWIDTH 48 0
BBX 36 46 6 0
BITMAP
0000FFC000
FE03FFF800
FE0FFFFE00
FE1FFFFF00
FE3FFFFF80
FE7FFFFFC0
FEFF83FFE0
FFFC007FE0
FFF8003FE0
FFE0001FF0
FFE0000FF0
FFC0000FF0
FF80000FF0
FF800007F0
FF000007F0
FF000007F0
FF000007F0
FF000007F0
FE000007F0
FE000007F0
FE000007F0
FE000007F0
FE000007F0
FE000007F0
FE000007F0
FE000007F0
FE000007F0
FE000007F0
FE000007F0
FE000007F0
FE000007F0
FE000007F0
FE000007F0
FE000007F0
FE000007F0
FE000007F0
FE000007F0
FE000007F0
FE000007F0
FE000007F0
FE000007F0
FE000007F0
FE000007F0
FE000007F0
FE000007F0
FE000007F0
ENDCHAR
STARTCHAR 006F
ENCODING 111
SWIDTH 557 0
DWIDTH 48 0
BBX 41 48 3 -2
BITMAP
0000FFC00000
000FFFF80000
003FFFFE0000
007FFFFF8000
01FFFFFFC000
03FFFFFFE000
07FFFFFFF000
07FF007FF800
0FFC001FF800
1FF8000FFC00
1FF00007FC00
3FE00003FE00
3FC00001FE00
3FC00001FE00
7F800000FF00
7F800000FF00
7F800000FF00
7F0000007F00
7F0000007F80
FF0000007F80
FF0000007F80
FF0000007F80
FF0000007F80
FF0000007F80
FF0000007F80
FF0000007F80
FF0000007F80
FF0000007F80
FF0000007F80
FF0000007F80
7F0000007F00
7F8000007F00
7F800000FF00
7F800000FF00
3FC00001FE00
3FC00001FE00
3FE00003FE00
1FF00007FC00
1FF8000FFC00
0FFC001FF800
07FF007FF000
07FFFFFFF000
03FFFFFFE000
01FFFFFFC000
007FFFFF0000
003FFFFE0000
000FFFF80000
0001FF800000
ENDCHAR
STARTCHAR 0070
ENCODING 112
SWIDTH 557 0
DWIDTH 48 0
BBX 40 65 5 -19
BITMAP
0000FF8000
FC07FFF000
FC1FFFFC00
FC3FFFFF00
FC7FFFFF80
FCFFFFFFC0
FDFFFFFFE0
FFFE00FFF0
FFF8003FF0
FFF0001FF8
FFE0000FF8
FFC00007FC
FFC00003FC
FF800003FE
FF800001FE
FF000001FE
FF000001FE
FF000000FF
FE000000FF
FE000000FF
FE000000FF
FE000000FF
FE000000FF
FE0000007F
FE0000007F
FE0000007F
FE000000FF
FE000000FF
FE000000FF
FE000000FF
FF000000FF
FF000000FE
FF000001FE
FF800001FE
FF800003FE
FFC00003FC
FFC00007FC
FFE0000FF8
FFF0001FF8
FFF8003FF0
FFFE00FFF0
FFFFFFFFE0
FEFFFFFFC0
FE7FFFFF80
FE3FFFFF00
FE1FFFFC00
FE07FFF000
FE00FF8000
FE00000000
FE00000000
FE00000000
FE00000000
FE00000000
FE00000000
FE00000000
FE00000000
FE00000000
FE00000000
FE00000000
FE00000000
FE00000000
FE00000000
FE00000000
FE00000000
FE00000000
ENDCHAR
STARTCHAR 0071
ENCODING 113
SWIDTH 557 0
DWIDTH 48 0
BBX 41 65 2 -19
BITMAP
0001FF000000
000FFFE03F80
001FFFF83F80
007FFFFE3F80
00FFFFFF3F80
01FFFFFFBF80
03FFFFFFFF80
07FF007FFF80
0FFE001FFF80
0FF8000FFF80
1FF00007FF80
1FE00003FF80
3FE00001FF80
3FC00001FF80
3FC00000FF80
7F800000FF80
7F800000FF80
7F8000007F80
7F0000007F80
7F0000007F80
FF0000007F80
FF0000007F80
FF0000007F80
FF0000007F80
FF0000007F80
FF0000007F80
FF0000007F80
FF0000007F80
FF0000007F80
7F0000007F80
7F8000007F80
7F8000007F80
7F800000FF80
7FC00000FF80
3FC00001FF80
3FE00001FF80
3FE00003FF80
1FF00007FF80
1FF8000FFF80
0FFE001FFF80
0FFF807FFF80
07FFFFFFFF80
03FFFFFF7F80
01FFFFFE7F80
00FFFFFC7F80
003FFFF87F80
000FFFE07F80
0001FF007F80
000000007F80
000000007F80
000000007F80
000000007F80
000000007F80
000000007F80
000000007F80
000000007F80
000000007F80
000000007F80
000000007F80
000000007F80
000000007F80
000000007F80
000000007F80
000000007F80
000000007F80
ENDCHAR
STARTCHAR 0072
ENCODING 114
SWIDTH 336 0
DWIDTH 29 0
BBX 22 46 6 0
BITMAP
0000FC
FE03FC
FE0FFC
FE1FFC
FE3FFC
FE7FFC
FE7FFC
FEFFC0
FFFC00
FFF000
FFE000
FFC000
FF8000
FF8000
FF8000
FF0000
FF0000
FF0000
FF0000
FE0000
FE0000
FE0000
FE0000
FE0000
FE0000
FE0000
FE0000
FE0000
FE0000
FE0000
FE0000
FE0000
FE0000
FE0000
FE0000
FE0000
FE0000
FE0000
FE0000
FE0000
FE0000
FE0000
FE0000
FE0000
FE0000
FE0000
ENDCHAR
STARTCHAR 0073
ENCODING 115
SWIDTH 499 0
DWIDTH 43 0
BBX 37 48 3 -2
BITMAP
0007FF0000
003FFFE000
00FFFFF800
03FFFFFC00
07FFFFFE00
0FFFFFFF00
1FFFFFFF80
1FF801FF80
3FE0007FC0
3FC0003FC0
7F80003FC0
7F80001FE0
7F80001FE0
7F80001FE0
7F80000000
7F80000000
7FC0000000
3FE0000000
3FF8000000
3FFF000000
1FFFF00000
0FFFFF0000
07FFFFF000
01FFFFFC00
007FFFFF00
001FFFFF80
0001FFFFC0
00001FFFE0
000001FFE0
0000003FF0
0000001FF0
0000000FF0
00000007F8
FF000007F8
FF000007F8
FF000007F0
FF000007F0
7F80000FF0
7FC0001FF0
7FE0003FE0
3FF800FFE0
3FFFFFFFC0
1FFFFFFF80
0FFFFFFF00
07FFFFFE00
03FFFFF800
00FFFFE000
000FFE0000
ENDCHAR
STARTCHAR 0074
ENCODING 116
SWIDTH 278 0
DWIDTH 24 0
BBX 21 59 1 -2
BITMAP
03F800
03F800
03F800
03F800
03F800
03F800
03F800
03F800
03F800
03F800
03F800
03F800
FFFFF8
FFFFF8
FFFFF8
FFFFF8
FFFFF8
FFFFF8
03F800
03F800
03F800
03F800
03F800
03F800
03F800
03F800
03F800
03F800
03F800
03F800
03F800
03F800
03F800
03F800
03F800
03F800
03F800
03F800
03F800
03F800
03F800
03F800
03F800
03F800
03F800
03F800
03F800
03F800
03F800
03FC00
03FC00
03FC00
03FE08
03FFF8
01FFF8
01FFF8
00FFF8
007FF8
001FF0
ENDCHAR
STARTCHAR 0075
ENCODING 117
SWIDTH 557 0
DWIDTH 48 0
BBX 36 47 6 -2
BITMAP
FE00000FF0
FE00000FF0
FE00000FF0
FE00000FF0
FE00000FF0
FE00000FF0
FE00000FF0
FE00000FF0
FE00000FF0
FE00000FF0
FE00000FF0
FE00000FF0
FE00000FF0
FE00000FF0
FE00000FF0
FE00000FF0
FE00000FF0
FE00000FF0
FE00000FF0
FE00000FF0
FE00000FF0
FE00000FF0
FE00000FF0
FE00000FF0
FE00000FF0
FE00000FF0
FE00000FF0
FE00000FF0
FE00000FF0
FE00000FF0
FE00000FF0
FE00000FF0
FE00001FF0
FE00001FF0
FE00003FF0
FE00003FF0
FF00007FF0
FF8000FFF0
FFC001FFF0
7FE007F7F0
7FFC3FF7F0
3FFFFFE7F0
3FFFFFC7F0
1FFFFF87F0
07FFFE07F0
03FFFC0000
007FE00000
ENDCHAR
STARTCHAR 0076
ENCODING 118
SWIDTH 499 0
DWIDTH 43 0
BBX 41 45 1 0
BITMAP
FF0000007F80
FF000000FF00
7F800000FF00
7F800000FE00
7F800001FE00
3FC00001FE00
3FC00003FC00
3FC00003FC00
1FE00003FC00
1FE00007F800
0FE00007F800
0FF00007F000
0FF0000FF000
07F0000FF000
07F8000FE000
07F8001FE000
03F8001FC000
03FC001FC000
03FC003FC000
01FC003F8000
01FE003F8000
01FE007F8000
00FE007F0000
00FF007F0000
00FF00FE0000
007F00FE0000
007F81FE0000
003F81FC0000
003F81FC0000
003FC3F80000
001FC3F80000
001FC3F80000
001FE7F00000
000FE7F00000
000FE7F00000
000FFFE00000
0007FFE00000
0007FFC00000
0007FFC00000
0003FFC00000
0003FF800000
0003FF800000
0001FF000000
0001FF000000
0000FF000000
ENDCHAR
STARTCHAR 0077
ENCODING 119
SWIDTH 720 0
DWIDTH 62 0
BBX 60 45 1 0
BITMAP
FF00007FC0000FF0
FF00007FC0001FF0
FF00007FE0001FE0
7F0000FFE0001FE0
7F8000FFE0001FE0
7F8000FFE0003FC0
7F8000FFF0003FC0
3F8001FFF0003FC0
3FC001FFF0003F80
3FC001FFF0007F80
1FC001FBF8007F80
1FC003FBF8007F80
1FE003FBF8007F00
1FE003F3F800FF00
0FE003F1FC00FF00
0FF007F1FC00FE00
0FF007F1FC00FE00
07F007E1FC01FE00
07F007E0FE01FC00
07F80FE0FE01FC00
07F80FE0FE01FC00
03F80FC0FE03FC00
03F80FC07F03F800
03FC1FC07F03F800
01FC1FC07F03F800
01FC1F807F87F000
01FC1F803F87F000
01FE3F803F87F000
00FE3F803F87F000
00FE3F803FCFE000
00FE3F001FCFE000
007F3F001FCFE000
007F7F001FCFC000
007F7F000FFFC000
003FFE000FFFC000
003FFE000FFF8000
003FFE000FFF8000
003FFE0007FF8000
001FFC0007FF8000
001FFC0007FF0000
001FFC0007FF0000
000FFC0003FF0000
000FF80003FE0000
000FF80003FE0000
000FF80003FE0000
ENDCHAR
STARTCHAR 0078
ENCODING 120
SWIDTH 499 0
DWIDTH 43 0
BBX 38 45 2 0
BITMAP
7F800003FC
7FC00007F8
3FC00007F8
1FE0000FF0
1FF0001FE0
0FF0001FC0
07F8003FC0
07F8007F80
03FC007F00
01FE00FF00
01FE01FE00
00FF01FC00
007F83FC00
003F87F800
003FC7F000
001FEFE000
000FFFE000
000FFFC000
0007FF8000
0003FF8000
0003FF0000
0001FE0000
0001FF0000
0003FF0000
0003FF8000
0007FFC000
000FFFC000
000FFFE000
001FEFF000
003FCFF000
003F87F800
007F83FC00
00FF03FC00
01FE01FE00
01FE01FF00
03FC00FF00
07F8007F80
07F8007FC0
0FF0003FC0
1FE0001FE0
1FE0001FF0
3FC0000FF0
7F800007F8
FF800007FC
FF000003FC
ENDCHAR
STARTCHAR 0079
ENCODING 121
SWIDTH 499 0
DWIDTH 43 0
BBX 39 64 2 -19
BITMAP
FF000001FE
FF000001FE
7F000001FC
7F800003FC
7F800003FC
3F800007F8
3FC00007F8
3FC00007F0
1FC0000FF0
1FE0000FF0
1FE0000FE0
0FE0001FE0
0FE0001FE0
0FF0001FC0
07F0003FC0
07F0003F80
07F8003F80
03F8007F80
03F8007F00
03FC00FF00
01FC00FF00
01FC00FE00
01FE01FE00
00FE01FE00
00FE01FC00
00FF03FC00
007F03F800
007F03F800
007F87F800
003F87F000
003F87F000
003FCFF000
001FCFE000
001FCFE000
001FFFE000
000FFFC000
000FFFC000
000FFF8000
0007FF8000
0007FF8000
0007FF0000
0003FF0000
0003FF0000
0003FE0000
0001FE0000
0001FC0000
0001FC0000
0003FC0000
0003F80000
0007F80000
0007F80000
0007F00000
000FF00000
000FF00000
001FE00000
001FE00000
007FC00000
1FFFC00000
1FFF800000
1FFF800000
1FFF000000
1FFE000000
1FF8000000
0FE0000000
ENDCHAR
STARTCHAR 007A
ENCODING 122
SWIDTH 499 0
DWIDTH 43 0
BBX 36 45 3 0
BITMAP
7FFFFFFFE0
7FFFFFFFE0
7FFFFFFFE0
7FFFFFFFE0
7FFFFFFFE0
7FFFFFFFE0
0000003FE0
0000003FC0
0000007F80
000000FF80
000001FF00
000003FE00
000007FC00
000007F800
00000FF000
00001FF000
00003FE000
00007FC000
0000FF8000
0000FF0000
0001FE0000
0003FE0000
0007FC0000
000FF80000
001FF00000
001FE00000
003FC00000
007FC00000
00FF800000
01FF000000
03FE000000
03FC000000
07FC000000
0FF8000000
1FF0000000
3FE0000000
7FC0000000
7F80000000
FF80000000
FFFFFFFFF0
FFFFFFFFF0
FFFFFFFFF0
FFFFFFFFF0
FFFFFFFFF0
FFFFFFFFF0
ENDCHAR
STARTCHAR 007B
ENCODING 123
SWIDTH 336 0
DWIDTH 29 0
BBX 20 81 4 -18
BITMAP
0007F0
001FF0
007FF0
007FF0
00FFF0
01FFF0
01FE00
01FC00
01F800
01F800
03F800
03F800
03F800
03F800
03F800
03F800
03F800
03F800
03F800
03F800
03F800
03F800
03F800
03F800
03F800
03F800
03F800
03F800
03F800
03F800
03F800
03F800
03F800
07F000
07F000
0FF000
1FE000
FFC000
FF8000
FF0000
FC0000
FF0000
FF8000
FFC000
1FE000
0FE000
07F000
07F000
03F000
03F800
03F800
03F800
03F800
03F800
03F800
03F800
03F800
03F800
03F800
03F800
03F800
03F800
03F800
03F800
03F800
03F800
03F800
03F800
03F800
03F800
03F800
03F800
01F800
01FC00
01FE00
01FFF0
00FFF0
00FFF0
007FF0
003FF0
000FF0
ENDCHAR
STARTCHAR 007C
ENCODING 124
SWIDTH 255 0
DWIDTH 22 0
BBX 5 81 9 -18
BITMAP
F8
F8
F8
F8
F8
F8
F8
F8
F8
F8
F8
F8
F8
F8
F8
F8
F8
F8
F8
F8
F8
F8
F8
F8
F8
F8
F8
F8
F8
F8
F8
F8
F8
F8
F8
F8
F8
F8
F8
F8
F8
F8
F8
F8
F8
F8
F8
F8
F8
F8
F8
F8
F8
F8
F8
F8
F8
F8
F8
F8
F8
F8
F8
F8
F8
F8
F8
F8
F8
F8
F8
F8
F8
F8
F8
F8
F8
F8
F8
F8
F8
ENDCHAR
STARTCHAR 007D
ENCODING 125
SWIDTH 336 0
DWIDTH 29 0
BBX 21 81 2 -18
BITMAP
FF0000
FFC000
FFE000
FFF000
FFF800
FFF800
03F800
01FC00
01FC00
01FC00
01FC00
01FC00
01FC00
01FC00
01FC00
01FC00
01FC00
01FC00
01FC00
01FC00
01FC00
01FC00
01FC00
01FC00
01FC00
01FC00
01FC00
01FC00
01FC00
00FC00
00FC00
00FE00
00FE00
00FE00
007F00
007F80
003FC0
003FF0
001FF8
000FF8
0003F8
0007F8
001FF8
003FF0
003FC0
007F00
007F00
00FE00
00FE00
00FE00
00FC00
00FC00
01FC00
01FC00
01FC00
01FC00
01FC00
01FC00
01FC00
01FC00
01FC00
01FC00
01FC00
01FC00
01FC00
01FC00
01FC00
01FC00
01FC00
01FC00
01FC00
01FC00
01FC00
01FC00
03F800
FFF800
FFF800
FFF000
FFE000
FFC000
FF0000
ENDCHAR
STARTCHAR 007E
ENCODING 126
SWIDTH 580 0
DWIDTH 50 0
BBX 38 15 6 23
BITMAP
00F0000000
07FC000000
0FFF000000
1FFFC0007C
1FFFE0007C
3FFFF8007C
3F0FFE007C
7E03FF00F8
7C01FFC1F8
7C007FFFF8
78003FFFF0
78000FFFF0
F80003FFE0
000001FFC0
0000003E00
ENDCHAR
STARTCHAR 00A0
ENCODING 160
SWIDTH 278 0
DWIDTH 24 0
BBX 0 0 0 0
BITMAP
ENDCHAR
STARTCHAR 00A1
ENCODING 161
SWIDTH 336 0
DWIDTH 29 0
BBX 8 63 10 -18
BITMAP
FF
FF
FF
FF
FF
FF
FF
FF
FF
00
00
00
00
00
3C
3C
3C
3C
3C
3C
3C
3C
3E
3E
7E
7E
7E
7E
7E
7E
7E
7E
7F
7F
FF
FF
FF
FF
FF
FF
FF
FF
FF
FF
FF
FF
FF
FF
FF
FF
FF
FF
FF
FF
FF
FF
FF
FF
FF
FF
FF
FF
FF
ENDCHAR
STARTCHAR 00A2
ENCODING 162
SWIDTH 557 0
DWIDTH 48 0
BBX 40 64 4 -10
BITMAP
00001E0000
00001E0000
00001E0000
00001E0000
00001E0000
00001E0000
00001E0000
00001E0000
0001FFF000
0007FFFE00
001FFFFF00
007FFFFFC0
00FFFFFFE0
01FFFFFFF0
03FFDEFFF8
07FF1E1FF8
07FC1E07FC
0FF81E03FC
1FF01E03FC
1FE01E01FE
1FC01E01FE
3FC01E00FE
3FC01E00FE
3F801E00FE
7F801E0000
7F801E0000
7F001E0000
7F001E0000
7F001E0000
7F001E0000
7F001E0000
FF001E0000
FF001E0000
FF001E0000
7F001E0000
7F001E0000
7F001E0000
7F001E0000
7F801E0000
7F801E007F
7F801E00FF
3FC01E00FF
3FC01E00FE
3FE01E01FE
1FE01E01FE
1FF01E03FC
0FF81E07FC
07FE1E0FF8
07FF9E1FF8
03FFFFFFF0
01FFFFFFE0
00FFFFFFC0
007FFFFF80
001FFFFF00
0007FFFC00
00007FC000
00001E0000
00001E0000
00001E0000
00001E0000
00001E0000
00001E0000
00001E0000
00001E0000
ENDCHAR
STARTCHAR 00A3
ENCODING 163
SWIDTH 557 0
DWIDTH 48 0
BBX 44 65 2 -2
BITMAP
00003FF00000
0001FFFE0000
0007FFFFC000
001FFFFFE000
003FFFFFF000
00FFFFFFF800
01FFFFFFFC00
01FFC00FFE00
03FF0003FF00
07FC0001FF00
07F80000FF80
0FF00000FF80
0FF000007F80
1FE000007FC0
1FE000003FC0
1FE000003FC0
1FE000003FC0
1FE000003FC0
1FE000003FC0
1FE000003FC0
1FE000000000
1FE000000000
1FF000000000
0FF000000000
0FF800000000
0FF800000000
07FC00000000
03FC00000000
03FE00000000
01FE00000000
FFFFFFFC0000
FFFFFFFC0000
FFFFFFFC0000
FFFFFFFC0000
FFFFFFFC0000
003FC0000000
001FC0000000
001FE0000000
001FE0000000
000FE0000000
000FE0000000
000FE0000000
000FE0000000
000FE0000000
000FE0000000
001FC0000000
001FC0000000
001F80000000
003F80000000
007F00000000
007E00000000
00FE00000000
01FC00000000
03F800000000
07F038000000
0FE7FFC00180
1FDFFFFC07C0
3FFFFFFFFFC0
7FFFFFFFFFE0
3FFFFFFFFFF0
3FFFFFFFFFF0
1FE03FFFFFE0
0F0003FFFF80
0400007FFF00
0000000FF800
ENDCHAR
STARTCHAR 00A4
ENCODING 164
SWIDTH 557 0
DWIDTH 48 0
BBX 36 35 6 12
BITMAP
0C00000300
3E00000780
7F03FC0FC0
FF9FFF9FE0
FFFFFFFFF0
7FFFFFFFE0
3FFFFFFFC0
1FFFFFFF80
0FFFFFFF00
0FFC03FE00
1FF001FF00
1FE000FF00
1FC0007F80
3F80003F80
3F80003F80
3F80001F80
3F80001FC0
3F00001FC0
3F80001FC0
3F80001F80
3F80003F80
3FC0003F80
1FC0007F80
1FE000FF00
1FF001FF00
0FFC03FE00
0FFFFFFF00
1FFFFFFF80
3FFFFFFFC0
7FFFFFFFE0
FFFFFFFFF0
7F9FFF1FE0
3F03FC0F80
1E00000700
0C00000200
ENDCHAR
STARTCHAR 00A5
ENCODING 165
SWIDTH 557 0
DWIDTH 48 0
BBX 46 61 1 0
BITMAP
FF00000003FC
7F00000003F8
7F80000007F8
3F80000007F0
3FC000000FE0
1FC000000FE0
0FE000001FC0
0FF000003FC0
07F000003F80
07F800007F80
03F800007F00
01FC0000FE00
01FC0000FE00
00FE0001FC00
00FF0001FC00
007F0003F800
007F8007F800
003F8007F000
001FC00FE000
001FC00FE000
000FE01FC000
000FF01FC000
0007F03F8000
0007F83F8000
0003F87F0000
0001FCFF0000
0001FCFE0000
0000FFFC0000
0000FFFC0000
00007FF80000
00003FF80000
07FFFFFFFFC0
07FFFFFFFFC0
07FFFFFFFFC0
07FFFFFFFFC0
00001FE00000
00001FE00000
00001FE00000
00001FE00000
00001FE00000
00001FE00000
00001FE00000
07FFFFFFFFC0
07FFFFFFFFC0
07FFFFFFFFC0
07FFFFFFFFC0
00001FE00000
00001FE00000
00001FE00000
00001FE00000
00001FE00000
00001FE00000
00001FE00000
00001FE00000
00001FE00000
00001FE00000
00001FE00000
00001FE00000
00001FE00000
00001FE00000
00001FE00000
ENDCHAR
STARTCHAR 00A6
ENCODING 166
SWIDTH 255 0
DWIDTH 22 0
BBX 5 81 9 -18
BITMAP
F8
F8
F8
F8
F8
F8
F8
F8
F8
F8
F8
F8
F8
F8
F8
F8
F8
F8
F8
F8
F8
F8
F8
F8
F8
F8
F8
F8
F8
F8
F8
F8
F8
F8
F8
00
00
00
00
00
00
00
00
00
00
00
F8
F8
F8
F8
F8
F8
F8
F8
F8
F8
F8
F8
F8
F8
F8
F8
F8
F8
F8
F8
F8
F8
F8
F8
F8
F8
F8
F8
F8
F8
F8
F8
F8
F8
F8
ENDCHAR
STARTCHAR 00A7
ENCODING 167
SWIDTH 557 0
DWIDTH 48 0
BBX 40 82 4 -19
BITMAP
00007F8000
0003FFF000
000FFFFC00
003FFFFE00
007FFFFF00
00FFFFFF80
00FFFFFFC0
01FF80FFC0
03FE003FE0
03FC001FE0
03FC000FE0
07F8000FF0
07F8000FF0
07F80007F0
07F80007F0
07F80007F0
07F80007F0
07FC0007F0
03FE000000
03FF000000
01FF800000
01FFE00000
00FFF00000
007FFC0000
01FFFE0000
07FFFF8000
0FF7FFC000
1FE1FFF000
3FC0FFF800
3F807FFE00
7F001FFF00
7E000FFFC0
FE0003FFE0
FE0001FFF0
FE00007FF8
FE00003FF8
FE00000FFC
FE000007FE
FE000003FE
FF000001FE
FF800001FE
7FC00000FF
7FE00000FF
7FF000007F
3FFC00007F
1FFE00007E
0FFF00007E
07FFC000FE
03FFE000FE
01FFF000FE
007FFC01FC
003FFE03F8
001FFF07F8
0007FFCFF0
0003FFFFE0
0000FFFF80
00007FFE00
00001FFE00
00000FFF00
000003FF00
000001FF80
000000FFC0
0000007FC0
0000003FC0
1FC0003FE0
1FC0001FE0
1FC0001FE0
1FC0001FE0
1FC0001FE0
1FE0001FE0
1FE0003FC0
0FF0003FC0
0FF8007FC0
0FFC00FF80
07FF03FF80
03FFFFFF00
03FFFFFE00
01FFFFFC00
00FFFFF800
003FFFE000
000FFF8000
0000F00000
ENDCHAR
STARTCHAR 00A8
ENCODING 168
SWIDTH 336 0
DWIDTH 29 0
BBX 22 9 3 53
BITMAP
FF83FC
FF83FC
FF83FC
FF83FC
FF83FC
FF83FC
FF83FC
FF83FC
FF83FC
ENDCHAR
STARTCHAR 00A9
ENCODING 169
SWIDTH 731 0
DWIDTH 63 0
BBX 66 66 -1 -2
BITMAP
0000001FFE00000000
000001FFFFE0000000
00000FFFFFF8000000
00003FFFFFFF000000
0000FFFFFFFF800000
0001FFFC0FFFE00000
0007FF8000FFF00000
000FFC00001FFC0000
001FF0000007FE0000
003FE0000001FF0000
007F80000000FF8000
00FF000000003FC000
01FE000000001FE000
03FC0003FC000FE000
03F8001FFF0007F000
07F0007FFFC003F800
0FE001FFFFE003F800
0FC003FFFFF001FC00
1FC007FF3FF800FC00
1F8007F803F800FE00
3F800FE001FC007E00
3F001FC000FC007F00
3F001F8000FE003F00
7E003F80007E003F00
7E003F00007E003F80
7E003F00007F001F80
7E007E000000001F80
FC007E000000001F80
FC007E000000001F80
FC007E000000000FC0
FC007E000000000FC0
FC007E000000000FC0
FC007E000000000FC0
FC007E000000000FC0
FC007E000000000FC0
FC007E000000000FC0
FC007E000000000F80
FC007E00003F001F80
FC007E00003F001F80
7E007E00003F001F80
7E003F00003F001F80
7E003F00007F001F80
7E003F80007E003F00
3F001F8000FE003F00
3F001FC000FE007F00
3F800FE001FC007E00
1F800FF003FC007E00
1FC007FE0FF800FC00
0FC003FFFFF001FC00
0FE001FFFFE001F800
07F000FFFFC003F800
03F8003FFF8007F000
03FC000FFC000FE000
01FE000000001FE000
00FF000000003FC000
007F800000007F8000
003FE0000001FF0000
001FF0000007FE0000
000FFC00001FFC0000
0007FF80007FF00000
0001FFFC0FFFE00000
0000FFFFFFFF800000
00003FFFFFFE000000
00000FFFFFF8000000
000001FFFFC0000000
0000001FFC00000000
ENDCHAR
STARTCHAR 00AA
ENCODING 170
SWIDTH 371 0
DWIDTH 32 0
BBX 26 38 3 26
BITMAP
00FF8000
03FFF000
0FFFF800
1FFFFC00
3FFFFC00
3F00FE00
3E007E00
7E003E00
7E003E00
00003E00
00003E00
00007E00
0007FE00
01FFFE00
0FFFFE00
1FFF3E00
3FC03E00
7E003E00
7C003E00
F8003E00
F8003E00
F8007E00
F8007E00
FC01FE00
7F07FE00
7FFFFE00
3FFFBFC0
1FFF1FC0
0FFC1FC0
00000FC0
00000000
00000000
00000000
00000000
7FFFFF80
7FFFFF80
7FFFFF80
7FFFFF80
ENDCHAR
STARTCHAR 00AB
ENCODING 171
SWIDTH 557 0
DWIDTH 48 0
BBX 31 29 8 9
BITMAP
00040000
000C0002
001C000E
003C001E
00FC003E
01FC007E
03FC01FE
07F803FE
1FF007FC
3FE00FF8
7FC03FE0
FF003FC0
FE003F80
FC003E00
F8003C00
FC003E00
FE003F80
FF003FC0
FF803FE0
3FE01FF0
1FF007FC
0FF803FE
07FC01FE
01FC00FE
00FC003E
007C001E
001C000E
000C0006
00040000
ENDCHAR
STARTCHAR 00AC
ENCODING 172
SWIDTH 580 0
DWIDTH 50 0
BBX 44 25 3 7
BITMAP
FFFFFFFFFFF0
FFFFFFFFFFF0
FFFFFFFFFFF0
FFFFFFFFFFF0
FFFFFFFFFFF0
FFFFFFFFFFF0
0000000003F0
0000000003F0
0000000003F0
0000000003F0
0000000003F0
0000000003F0
0000000003F0
0000000003F0
0000000003F0
0000000003F0
0000000003F0
0000000003F0
0000000003F0
0000000003F0
0000000003F0
0000000003F0
0000000003F0
0000000003F0
0000000003F0
ENDCHAR
STARTCHAR 00AD
ENCODING 173
SWIDTH 336 0
DWIDTH 29 0
BBX 20 6 4 21
BITMAP
FFFFF0
FFFFF0
FFFFF0
FFFFF0
FFFFF0
FFFFF0
ENDCHAR
STARTCHAR 00AE
ENCODING 174
SWIDTH 731 0
DWIDTH 63 0
BBX 66 66 -1 -2
BITMAP
0000001FFE00000000
000001FFFFE0000000
00000FFFFFF8000000
00003FFFFFFF000000
0000FFFFFFFF800000
0001FFFC0FFFE00000
0007FF8000FFF00000
000FFC00001FFC0000
001FF0000007FE0000
003FE0000001FF0000
007F80000000FF8000
00FF000000003FC000
01FE000000001FE000
03FC000000000FE000
03F83FFFFFC007F000
07F03FFFFFF003F800
0FE03FFFFFFC03F800
0FC03FFFFFFC01FC00
1FC03FFFFFFE00FC00
1F803F0001FE00FE00
3F803F00007F007E00
3F003F00007F007F00
3F003F00003F003F00
7E003F00003F003F00
7E003F00003F001F80
7E003F00003F001F80
7E003F00003F001F80
FC003F00003F001F80
FC003F00007F001F80
FC003F0000FE000FC0
FC003F000FFC000FC0
FC003FFFFFF8000FC0
FC003FFFFFF0000FC0
FC003FFFFFF0000FC0
FC003FFFFFFC000FC0
FC003FFFFFFC000FC0
FC003F0001FE000F80
FC003F0000FE001F80
FC003F00007E001F80
7E003F00007E001F80
7E003F00007E001F80
7E003F00007E001F80
7E003F00007E003F00
3F003F00007F003F00
3F003F00007F007F00
3F803F00007F007E00
1F803F00007F00FE00
1FC03F00003F00FC00
0FE03F00003F01FC00
0FE03F00003F81F800
07F03F00003F83F800
03F83F00003F87F000
03FC000000000FE000
01FE000000001FE000
00FF000000003FC000
007F800000007F8000
003FE0000001FF0000
001FF0000007FE0000
000FFC00001FFC0000
0007FF80007FF00000
0001FFFC0FFFE00000
0000FFFFFFFF800000
00003FFFFFFE000000
00000FFFFFF8000000
000001FFFFC0000000
0000001FFC00000000
ENDCHAR
STARTCHAR 00AF
ENCODING 175
SWIDTH 336 0
DWIDTH 29 0
BBX 24 6 2 54
BITMAP
FFFFFF
FFFFFF
FFFFFF
FFFFFF
FFFFFF
FFFFFF
ENDCHAR
STARTCHAR 00B0
ENCODING 176
SWIDTH 394 0
DWIDTH 34 0
BBX 26 26 4 33
BITMAP
003F8000
01FFE000
03FFF800
0FFFFC00
1FFFFE00
1FC0FF00
3F003F80
7E001F80
7C000F80
7C0007C0
F80007C0
F80007C0
F80007C0
F80007C0
F80007C0
F80007C0
7C0007C0
7C000F80
7E001F80
3F003F00
1FC0FF00
1FFFFE00
0FFFFC00
07FFF800
01FFE000
007F8000
ENDCHAR
STARTCHAR 00B1
ENCODING 177
SWIDTH 580 0
DWIDTH 50 0
BBX 42 55 4 -1
BITMAP
00003F000000
00003F000000
00003F000000
00003F000000
00003F000000
00003F000000
00003F000000
00003F000000
00003F000000
00003F000000
00003F000000
00003F000000
00003F000000
00003F000000
00003F000000
00003F000000
00003F000000
00003F000000
FFFFFFFFFFC0
FFFFFFFFFFC0
FFFFFFFFFFC0
FFFFFFFFFFC0
FFFFFFFFFFC0
FFFFFFFFFFC0
00003F000000
00003F000000
00003F000000
00003F000000
00003F000000
00003F000000
00003F000000
00003F000000
00003F000000
00003F000000
00003F000000
00003F000000
00003F000000
00003F000000
00003F000000
00003F000000
00003F000000
00003F000000
000000000000
000000000000
000000000000
000000000000
000000000000
000000000000
000000000000
FFFFFFFFFFC0
FFFFFFFFFFC0
FFFFFFFFFFC0
FFFFFFFFFFC0
FFFFFFFFFFC0
FFFFFFFFFFC0
ENDCHAR
STARTCHAR 00B2
ENCODING 178
SWIDTH 336 0
DWIDTH 29 0
BBX 26 37 1 24
BITMAP
007FC000
01FFF800
07FFFC00
0FFFFE00
1FFFFF00
1FC07F80
3F001F80
3E000FC0
7E000FC0
7E0007C0
7C0007C0
7C0007C0
7C0007C0
00000FC0
00000FC0
00001F80
00003F80
00007F00
0001FE00
0007FC00
001FF800
007FE000
00FF8000
03FF0000
07FC0000
0FF00000
1FC00000
3F800000
3F000000
7E000000
7E000000
7E000000
FFFFFFC0
FFFFFFC0
FFFFFFC0
FFFFFFC0
FFFFFFC0
ENDCHAR
STARTCHAR 00B3
ENCODING 179
SWIDTH 336 0
DWIDTH 29 0
BBX 26 38 1 23
BITMAP
007F8000
03FFF000
0FFFF800
1FFFFC00
3FFFFE00
3F807F00
7E003F00
7E001F00
7C001F80
7C001F80
FC001F80
FC001F80
00001F00
00001F00
00007F00
000FFE00
003FFC00
003FF000
003FFC00
003FFE00
00007F00
00001F80
00000F80
00000FC0
00000FC0
F8000FC0
F80007C0
F8000FC0
F8000FC0
FC000F80
FC001F80
7E003F80
7F80FF00
3FFFFE00
1FFFFC00
0FFFF800
03FFE000
001C0000
ENDCHAR
STARTCHAR 00B4
ENCODING 180
SWIDTH 336 0
DWIDTH 29 0
BBX 17 13 8 51
BITMAP
00FF80
01FF00
01FE00
03FC00
07F800
07F000
0FE000
1FC000
1F8000
3F0000
7E0000
7C0000
F80000
ENDCHAR
STARTCHAR 00B5
ENCODING 181
SWIDTH 557 0
DWIDTH 48 0
BBX 41 64 6 -19
BITMAP
FE00000FE000
FE00000FE000
FE00000FE000
FE00000FE000
FE00000FE000
FE00000FE000
FE00000FE000
FE00000FE000
FE00000FE000
FE00000FE000
FE00000FE000
FE00000FE000
FE00000FE000
FE00000FE000
FE00000FE000
FE00000FE000
FE00000FE000
FE00000FE000
FE00000FE000
FE00000FE000
FE00000FE000
FE00000FE000
FE00000FE000
FE00000FE000
FE00000FE000
FE00000FE000
FE00000FE000
FE00000FE000
FE00000FE000
FE00000FE000
FE00000FE000
FE00001FE000
FE00001FE000
FE00001FE000
FE00003FE000
FE00003FE000
FF00007FE000
FF8000FFE000
FFC001FFF000
FFE007FFF000
FFFC3FF7F800
FFFFFFE7FF80
FFFFFFC7FF80
FFFFFF87FF80
FFFFFF03FF80
FEFFFC01FF80
FE3FE000FF00
FE0000000000
FE0000000000
FE0000000000
FE0000000000
FE0000000000
FE0000000000
FE0000000000
FE0000000000
FE0000000000
FE0000000000
FE0000000000
FE0000000000
FE0000000000
FE0000000000
FE0000000000
FE0000000000
FE0000000000
ENDCHAR
STARTCHAR 00B6
ENCODING 182
SWIDTH 534 0
DWIDTH 46 0
BBX 41 78 4 -15
BITMAP
0001FFFFFF80
000FFFFFFF80
003FFFFFFF80
007FFFFFFF80
01FFFFFFFF80
03FFFFFFFF80
07FFFE01F000
0FFFFE01F000
0FFFFE01F000
1FFFFE01F000
1FFFFE01F000
3FFFFE01F000
3FFFFE01F000
7FFFFE01F000
7FFFFE01F000
7FFFFE01F000
7FFFFE01F000
FFFFFE01F000
FFFFFE01F000
FFFFFE01F000
FFFFFE01F000
FFFFFE01F000
FFFFFE01F000
FFFFFE01F000
FFFFFE01F000
7FFFFE01F000
7FFFFE01F000
7FFFFE01F000
3FFFFE01F000
3FFFFE01F000
3FFFFE01F000
1FFFFE01F000
1FFFFE01F000
0FFFFE01F000
07FFFE01F000
03FFFE01F000
01FFFE01F000
00FFFE01F000
003FFE01F000
000FFE01F000
00003E01F000
00003E01F000
00003E01F000
00003E01F000
00003E01F000
00003E01F000
00003E01F000
00003E01F000
00003E01F000
00003E01F000
00003E01F000
00003E01F000
00003E01F000
00003E01F000
00003E01F000
00003E01F000
00003E01F000
00003E01F000
00003E01F000
00003E01F000
00003E01F000
00003E01F000
00003E01F000
00003E01F000
00003E01F000
00003E01F000
00003E01F000
00003E01F000
00003E01F000
00003E01F000
00003E01F000
00003E01F000
00003E01F000
00003E01F000
00003E01F000
00003E01F000
00003E01F000
00003E01F000
ENDCHAR
STARTCHAR 00B7
ENCODING 183
SWIDTH 278 0
DWIDTH 24 0
BBX 9 9 9 20
BITMAP
FF80
FF80
FF80
FF80
FF80
FF80
FF80
FF80
FF80
ENDCHAR
STARTCHAR 00B8
ENCODING 184
SWIDTH 336 0
DWIDTH 29 0
BBX 22 19 3 -19
BITMAP
001C00
001C00
003800
003800
007800
007FE0
00FFF0
00FFF8
0003F8
0001FC
0001FC
0001FC
2001F8
7803F8
7F07F8
FFFFF0
3FFFE0
07FF80
003000
ENDCHAR
STARTCHAR 00B9
ENCODING 185
SWIDTH 336 0
DWIDTH 29 0
BBX 14 37 4 24
BITMAP
001C
003C
003C
007C
007C
00FC
07FC
FFFC
FFFC
FFFC
FFFC
007C
007C
007C
007C
007C
007C
007C
007C
007C
007C
007C
007C
007C
007C
007C
007C
007C
007C
007C
007C
007C
007C
007C
007C
007C
007C
ENDCHAR
STARTCHAR 00BA
ENCODING 186
SWIDTH 360 0
DWIDTH 31 0
BBX 25 38 3 26
BITMAP
007F8000
01FFE000
07FFF800
0FFFFC00
1FF7FC00
1F80FE00
3F007E00
3E003F00
7E001F00
7C001F00
7C001F80
7C000F80
7C000F80
78000F80
F8000F80
F8000F80
7C000F80
7C000F80
7C000F80
7C001F80
7C001F00
7E003F00
3F003F00
3F807E00
1FC1FE00
1FFFFC00
0FFFF800
03FFF000
01FFC000
00000000
00000000
00000000
00000000
00000000
7FFFFF00
7FFFFF00
7FFFFF00
7FFFFF00
ENDCHAR
STARTCHAR 00BB
ENCODING 187
SWIDTH 557 0
DWIDTH 48 0
BBX 31 29 8 9
BITMAP
80000000
C0002000
E0003000
F8003C00
FC003E00
FE003F00
FF003F80
7FC03FE0
3FE01FF0
1FF00FF8
0FF803FE
03FC01FE
01FC00FE
00FC007E
003C001E
007C003E
01FC00FE
03FC01FE
07FC03FE
1FF00FF8
3FE01FF0
7FC03FE0
FF003FC0
FE003F00
FC003E00
F8003C00
E0003800
C0002000
80000000
ENDCHAR
STARTCHAR 00BC
ENCODING 188
SWIDTH 836 0
DWIDTH 72 0
BBX 68 63 2 -2
BITMAP
003C000000003E0000
003C000000003E0000
003C000000007C0000
007C00000000F80000
007C00000000F80000
00FC00000001F00000
03FC00000003E00000
FFFC00000003E00000
FFFC00000007C00000
FFFC00000007C00000
FFFC0000000F800000
007C0000001F000000
007C0000001F000000
007C0000003E000000
007C0000007C000000
007C0000007C000000
007C000000F8000000
007C000000F8000000
007C000001F0000000
007C000003E0000000
007C000003E0000000
007C000007C0000000
007C000007C0000000
007C00000F80000000
007C00001F00000000
007C00001F00003C00
007C00003E00007C00
007C00007C0000FC00
007C00007C0001FC00
007C0000F80001FC00
007C0000F80003FC00
007C0001F00007FC00
007C0003E0000FFC00
007C0003E0000FFC00
007C0007C0001F7C00
007C000F80003E7C00
007C000F80007E7C00
0000001F0000FC7C00
0000001F0000F87C00
0000003E0001F07C00
0000007C0003F07C00
0000007C0007E07C00
000000F80007C07C00
000001F0000F807C00
000001F0001F807C00
000003E0003F007C00
000003E0003E007C00
000007C0007C007C00
00000F80007FFFFFF0
00000F80007FFFFFF0
00001F00007FFFFFF0
00001F00007FFFFFF0
00003E00007FFFFFF0
00007C000000007C00
00007C000000007C00
0000F8000000007C00
0001F0000000007C00
0001F0000000007C00
0003E0000000007C00
0003E0000000007C00
0007C0000000007C00
000F80000000000000
000F80000000000000
ENDCHAR
STARTCHAR 00BD
ENCODING 189
SWIDTH 836 0
DWIDTH 72 0
BBX 68 63 2 -2
BITMAP
003C00000000F80000
003C00000001F00000
003C00000001F00000
007C00000003E00000
007C00000007C00000
00FC00000007C00000
07FC0000000F800000
FFFC0000000F800000
FFFC0000001F000000
FFFC0000003E000000
FFFC0000003E000000
007C0000007C000000
007C000000F8000000
007C000000F8000000
007C000001F0000000
007C000001F0000000
007C000003E0000000
007C000007C0000000
007C000007C0000000
007C00000F80000000
007C00000F80000000
007C00001F00000000
007C00003E00000000
007C00003E00000000
007C00007C00030000
007C0000F8007FF800
007C0000F801FFFE00
007C0001F003FFFF00
007C0001F007FFFF80
007C0003E00FF03FC0
007C0007C01FC00FE0
007C0007C01F8007E0
007C000F801F0007E0
007C001F001F0003E0
007C001F003F0003F0
007C003E003F0003F0
007C003E003E0003F0
0000007C003E0003E0
000000F800000007E0
000000F800000007E0
000001F00000000FC0
000001F00000001FC0
000003E00000007F80
000007C0000001FF00
000007C0000007FE00
00000F8000001FF800
00001F0000003FE000
00001F000000FF8000
00003E000001FE0000
00003E000003FC0000
00007C000007F00000
0000F800000FE00000
0000F800001FC00000
0001F000001F800000
0001F000003F000000
0003E000003F000000
0007C000003FFFFFE0
0007C000003FFFFFE0
000F8000007FFFFFE0
001F0000007FFFFFE0
001F0000007FFFFFE0
003E00000000000000
003E00000000000000
ENDCHAR
STARTCHAR 00BE
ENCODING 190
SWIDTH 836 0
DWIDTH 72 0
BBX 68 63 2 -2
BITMAP
007FC00000000F8000
03FFF00000000F8000
07FFFC0000001F0000
0FFFFE0000001F0000
1FFFFF0000003E0000
3F807F0000007C0000
3F001F8000007C0000
3E001F800000F80000
7E000F800001F80000
7E000F800001F00000
7C000F800003E00000
7C000F800003E00000
00000F800007C00000
00001F80000F800000
00003F00000F800000
0001FE00001F000000
003FFC00001F000000
003FF800003E000000
003FFC00007C000000
003FFF00007C000000
0000FF8000F8000000
00001F8001F0000000
00000FC001F0000000
00000FC003E0000000
000007C003E0000000
000007E007C0007C00
FC0007E00F80007C00
FC0007C00F8000FC00
FC0007C01F0001FC00
7C0007C01F0003FC00
7E000FC03E0003FC00
7F001F807C0007FC00
3F803F807C000FFC00
3FFFFF00F8001FFC00
1FFFFE01F0001F7C00
0FFFFC01F0003E7C00
03FFF003E0007C7C00
007F8003E000FC7C00
00000007C000F87C00
0000000F8001F07C00
0000000F8003E07C00
0000001F0007E07C00
0000003E000FC07C00
0000003E000F807C00
0000007C001F007C00
0000007C003F007C00
000000F8007E007C00
000001F0007C007C00
000001F0007FFFFFF0
000003E0007FFFFFF0
000003E0007FFFFFF0
000007C0007FFFFFF0
00000F80007FFFFFF0
00000F800000007C00
00001F000000007C00
00003E000000007C00
00003E000000007C00
00007C000000007C00
00007C000000007C00
0000F8000000007C00
0001F0000000007C00
0001F0000000000000
0003E0000000000000
ENDCHAR
STARTCHAR 00BF
ENCODING 191
SWIDTH 615 0
DWIDTH 53 0
BBX 37 64 8 -19
BITMAP
0000FE0000
0000FE0000
0000FE0000
0000FE0000
0000FE0000
0000FE0000
0000FE0000
0000FE0000
0000FE0000
0000000000
0000000000
0000000000
0000000000
0000000000
0000000000
0000000000
0000000000
0000FE0000
0000FE0000
0000FE0000
0000FE0000
0000FE0000
0000FE0000
0001FE0000
0001FE0000
0001FE0000
0003FE0000
0007FC0000
000FFC0000
001FF80000
003FF00000
007FE00000
00FFC00000
01FF800000
03FF000000
07FE000000
0FFC000000
1FF8000000
1FF0000000
3FE0000000
3FC0000000
7F80000000
7F80000000
7F80000000
FF000003F8
FF000003F8
FF000003F8
FF000003F8
FF000003F8
FF000003F8
FF800007F8
7F800007F8
7F80000FF0
7FC0000FF0
3FE0001FE0
3FF8003FE0
1FFE01FFC0
0FFFFFFFC0
0FFFFFFF80
07FFFFFF00
01FFFFFE00
00FFFFF800
001FFFE000
0001FC0000
ENDCHAR
STARTCHAR 00C0
ENCODING 192
SWIDTH 661 0
DWIDTH 57 0
BBX 54 81 2 0
BITMAP
0001FF00000000
0000FF80000000
00007FC0000000
00003FC0000000
00001FE0000000
00000FF0000000
000007F0000000
000003F8000000
000001FC000000
000000FC000000
0000007E000000
0000003F000000
0000001F000000
00000000000000
00000000000000
00000000000000
00000000000000
00000000000000
000003FF000000
000007FF800000
000007FF800000
000007FF800000
00000FFFC00000
00000FFFC00000
00000FFFC00000
00001FFFE00000
00001FFFE00000
00003FFFF00000
00003FCFF00000
00003FCFF00000
00007FCFF80000
00007F87F80000
00007F87F80000
0000FF07FC0000
0000FF03FC0000
0000FF03FC0000
0001FE03FE0000
0001FE01FE0000
0001FE01FE0000
0003FC01FF0000
0003FC00FF0000
0007FC00FF0000
0007F800FF8000
0007F8007F8000
000FF0007F8000
000FF0007FC000
000FF0003FC000
001FE0003FE000
001FE0003FE000
001FE0001FE000
003FC0001FF000
003FC0001FF000
003FC0000FF000
007F80000FF800
007F80000FF800
007FFFFFFFF800
00FFFFFFFFFC00
00FFFFFFFFFC00
01FFFFFFFFFC00
01FFFFFFFFFE00
01FFFFFFFFFE00
03FFFFFFFFFE00
03FC000001FF00
03FC000001FF00
07FC000000FF00
07F8000000FF80
07F8000000FF80
0FF80000007FC0
0FF00000007FC0
0FF00000007FC0
1FF00000003FE0
1FE00000003FE0
3FE00000003FE0
3FE00000001FF0
3FC00000001FF0
7FC00000001FF0
7FC00000000FF8
7F800000000FF8
FF800000000FF8
FF8000000007FC
FF0000000007FC
ENDCHAR
STARTCHAR 00C1
ENCODING 193
SWIDTH 661 0
DWIDTH 57 0
BBX 54 81 2 0
BITMAP
00000007FE0000
00000007FC0000
0000000FF80000
0000000FF00000
0000001FE00000
0000003FC00000
0000003F800000
0000007F000000
000000FE000000
000000FC000000
000001F8000000
000003F0000000
000003E0000000
00000000000000
00000000000000
00000000000000
00000000000000
00000000000000
000003FF000000
000007FF800000
000007FF800000
000007FF800000
00000FFFC00000
00000FFFC00000
00000FFFC00000
00001FFFE00000
00001FFFE00000
00003FFFF00000
00003FCFF00000
00003FCFF00000
00007FCFF80000
00007F87F80000
00007F87F80000
0000FF07FC0000
0000FF03FC0000
0000FF03FC0000
0001FE03FE0000
0001FE01FE0000
0001FE01FE0000
0003FC01FF0000
0003FC00FF0000
0007FC00FF0000
0007F800FF8000
0007F8007F8000
000FF0007F8000
000FF0007FC000
000FF0003FC000
001FE0003FE000
001FE0003FE000
001FE0001FE000
003FC0001FF000
003FC0001FF000
003FC0000FF000
007F80000FF800
007F80000FF800
007FFFFFFFF800
00FFFFFFFFFC00
00FFFFFFFFFC00
01FFFFFFFFFC00
01FFFFFFFFFE00
01FFFFFFFFFE00
03FFFFFFFFFE00
03FC000001FF00
03FC000001FF00
07FC000000FF00
07F8000000FF80
07F8000000FF80
0FF80000007FC0
0FF00000007FC0
0FF00000007FC0
1FF00000003FE0
1FE00000003FE0
3FE00000003FE0
3FE00000001FF0
3FC00000001FF0
7FC00000001FF0
7FC00000000FF8
7F800000000FF8
FF800000000FF8
FF8000000007FC
FF0000000007FC
ENDCHAR
STARTCHAR 00C2
ENCODING 194
SWIDTH 661 0
DWIDTH 57 0
BBX 54 81 2 0
BITMAP
000003FE000000
000003FF000000
000007FF800000
00000FFF800000
00000FFFC00000
00001FCFE00000
00001F87E00000
00003F07F00000
00007F03F80000
00007E01F80000
0000FC00FC0000
0001F8007C0000
0001F0007E0000
00000000000000
00000000000000
00000000000000
00000000000000
00000000000000
000003FF000000
000007FF800000
000007FF800000
000007FF800000
00000FFFC00000
00000FFFC00000
00000FFFC00000
00001FFFE00000
00001FFFE00000
00003FFFF00000
00003FCFF00000
00003FCFF00000
00007FCFF80000
00007F87F80000
00007F87F80000
0000FF07FC0000
0000FF03FC0000
0000FF03FC0000
0001FE03FE0000
0001FE01FE0000
0001FE01FE0000
0003FC01FF0000
0003FC00FF0000
0007FC00FF0000
0007F800FF8000
0007F8007F8000
000FF0007F8000
000FF0007FC000
000FF0003FC000
001FE0003FE000
001FE0003FE000
001FE0001FE000
003FC0001FF000
003FC0001FF000
003FC0000FF000
007F80000FF800
007F80000FF800
007FFFFFFFF800
00FFFFFFFFFC00
00FFFFFFFFFC00
01FFFFFFFFFC00
01FFFFFFFFFE00
01FFFFFFFFFE00
03FFFFFFFFFE00
03FC000001FF00
03FC000001FF00
07FC000000FF00
07F8000000FF80
07F8000000FF80
0FF80000007FC0
0FF00000007FC0
0FF00000007FC0
1FF00000003FE0
1FE00000003FE0
3FE00000003FE0
3FE00000001FF0
3FC00000001FF0
7FC00000001FF0
7FC00000000FF8
7F800000000FF8
FF800000000FF8
FF8000000007FC
FF0000000007FC
ENDCHAR
STARTCHAR 00C3
ENCODING 195
SWIDTH 661 0
DWIDTH 57 0
BBX 54 79 2 0
BITMAP
00003F001F0000
00007FE01F0000
0000FFFC3F0000
0001FFFFFF0000
0001FFFFFE0000
0003FFFFFE0000
0003F0FFFC0000
0003E01FF80000
0007C003E00000
00000000000000
00000000000000
00000000000000
00000000000000
00000000000000
00000000000000
00000000000000
000003FF000000
000007FF800000
000007FF800000
000007FF800000
00000FFFC00000
00000FFFC00000
00000FFFC00000
00001FFFE00000
00001FFFE00000
00003FFFF00000
00003FCFF00000
00003FCFF00000
00007FCFF80000
00007F87F80000
00007F87F80000
0000FF07FC0000
0000FF03FC0000
0000FF03FC0000
0001FE03FE0000
0001FE01FE0000
0001FE01FE0000
0003FC01FF0000
0003FC00FF0000
0007FC00FF0000
0007F800FF8000
0007F8007F8000
000FF0007F8000
000FF0007FC000
000FF0003FC000
001FE0003FE000
001FE0003FE000
001FE0001FE000
003FC0001FF000
003FC0001FF000
003FC0000FF000
007F80000FF800
007F80000FF800
007FFFFFFFF800
00FFFFFFFFFC00
00FFFFFFFFFC00
01FFFFFFFFFC00
01FFFFFFFFFE00
01FFFFFFFFFE00
03FFFFFFFFFE00
03FC000001FF00
03FC000001FF00
07FC000000FF00
07F8000000FF80
07F8000000FF80
0FF80000007FC0
0FF00000007FC0
0FF00000007FC0
1FF00000003FE0
1FE00000003FE0
3FE00000003FE0
3FE00000001FF0
3FC00000001FF0
7FC00000001FF0
7FC00000000FF8
7F800000000FF8
FF800000000FF8
FF8000000007FC
FF0000000007FC
ENDCHAR
STARTCHAR 00C4
ENCODING 196
SWIDTH 661 0
DWIDTH 57 0
BBX 54 79 2 0
BITMAP
0001FF07FC0000
0001FF07FC0000
0001FF07FC0000
0001FF07FC0000
0001FF07FC0000
0001FF07FC0000
0001FF07FC0000
0001FF07FC0000
0001FF07FC0000
00000000000000
00000000000000
00000000000000
00000000000000
00000000000000
00000000000000
00000000000000
000003FF000000
000007FF800000
000007FF800000
000007FF800000
00000FFFC00000
00000FFFC00000
00000FFFC00000
00001FFFE00000
00001FFFE00000
00003FFFF00000
00003FCFF00000
00003FCFF00000
00007FCFF80000
00007F87F80000
00007F87F80000
0000FF07FC0000
0000FF03FC0000
0000FF03FC0000
0001FE03FE0000
0001FE01FE0000
0001FE01FE0000
0003FC01FF0000
0003FC00FF0000
0007FC00FF0000
0007F800FF8000
0007F8007F8000
000FF0007F8000
000FF0007FC000
000FF0003FC000
001FE0003FE000
001FE0003FE000
001FE0001FE000
003FC0001FF000
003FC0001FF000
003FC0000FF000
007F80000FF800
007F80000FF800
007FFFFFFFF800
00FFFFFFFFFC00
00FFFFFFFFFC00
01FFFFFFFFFC00
01FFFFFFFFFE00
01FFFFFFFFFE00
03FFFFFFFFFE00
03FC000001FF00
03FC000001FF00
07FC000000FF00
07F8000000FF80
07F8000000FF80
0FF80000007FC0
0FF00000007FC0
0FF00000007FC0
1FF00000003FE0
1FE00000003FE0
3FE00000003FE0
3FE00000001FF0
3FC00000001FF0
7FC00000001FF0
7FC00000000FF8
7F800000000FF8
FF800000000FF8
FF8000000007FC
FF0000000007FC
ENDCHAR
STARTCHAR 00C5
ENCODING 197
SWIDTH 661 0
DWIDTH 57 0
BBX 54 82 2 0
BITMAP
000000FC000000
000003FE000000
000007FF800000
00000FFF800000
00000F87C00000
00000F03C00000
00001E03C00000
00001E01C00000
00001E03C00000
00000F03C00000
00000F87C00000
000007FF800000
000007FF000000
000001FE000000
00000078000000
00000000000000
00000000000000
00000000000000
00000000000000
000003FF000000
000007FF800000
000007FF800000
000007FF800000
00000FFFC00000
00000FFFC00000
00000FFFC00000
00001FFFE00000
00001FFFE00000
00003FFFF00000
00003FCFF00000
00003FCFF00000
00007FCFF80000
00007F87F80000
00007F87F80000
0000FF07FC0000
0000FF03FC0000
0000FF03FC0000
0001FE03FE0000
0001FE01FE0000
0001FE01FE0000
0003FC01FF0000
0003FC00FF0000
0007FC00FF0000
0007F800FF8000
0007F8007F8000
000FF0007F8000
000FF0007FC000
000FF0003FC000
001FE0003FE000
001FE0003FE000
001FE0001FE000
003FC0001FF000
003FC0001FF000
003FC0000FF000
007F80000FF800
007F80000FF800
007FFFFFFFF800
00FFFFFFFFFC00
00FFFFFFFFFC00
01FFFFFFFFFC00
01FFFFFFFFFE00
01FFFFFFFFFE00
03FFFFFFFFFE00
03FC000001FF00
03FC000001FF00
07FC000000FF00
07F8000000FF80
07F8000000FF80
0FF80000007FC0
0FF00000007FC0
0FF00000007FC0
1FF00000003FE0
1FE00000003FE0
3FE00000003FE0
3FE00000001FF0
3FC00000001FF0
7FC00000001FF0
7FC00000000FF8
7F800000000FF8
FF800000000FF8
FF8000000007FC
FF0000000007FC
ENDCHAR
STARTCHAR 00C6
ENCODING 198
SWIDTH 998 0
DWIDTH 86 0
BBX 81 63 1 0
BITMAP
0000007FFFFFFFFFFFFE00
0000007FFFFFFFFFFFFE00
0000007FFFFFFFFFFFFE00
000000FFFFFFFFFFFFFE00
000000FFFFFFFFFFFFFE00
000001FFFFFFFFFFFFFE00
000001FFFFFFFFFFFFFE00
000001FE01FE0000000000
000003FC01FE0000000000
000003FC01FE0000000000
000007F801FE0000000000
000007F801FE0000000000
000007F801FE0000000000
00000FF001FE0000000000
00000FF001FE0000000000
00001FE001FE0000000000
00001FE001FE0000000000
00001FE001FE0000000000
00003FC001FE0000000000
00003FC001FE0000000000
00007F8001FE0000000000
00007F8001FE0000000000
0000FF8001FE0000000000
0000FF0001FE0000000000
0000FF0001FE0000000000
0001FE0001FE0000000000
0001FE0001FE0000000000
0003FE0001FFFFFFFFFC00
0003FC0001FFFFFFFFFC00
0003FC0001FFFFFFFFFC00
0007F80001FFFFFFFFFC00
0007F80001FFFFFFFFFC00
000FF80001FFFFFFFFFC00
000FF00001FFFFFFFFFC00
000FF00001FE0000000000
001FE00001FE0000000000
001FE00001FE0000000000
003FFFFFFFFE0000000000
003FFFFFFFFE0000000000
003FFFFFFFFE0000000000
007FFFFFFFFE0000000000
007FFFFFFFFE0000000000
00FFFFFFFFFE0000000000
00FFFFFFFFFE0000000000
00FF000001FE0000000000
01FF000001FE0000000000
01FE000001FE0000000000
03FE000001FE0000000000
03FC000001FE0000000000
07FC000001FE0000000000
07FC000001FE0000000000
07F8000001FE0000000000
0FF8000001FE0000000000
0FF0000001FE0000000000
1FF0000001FE0000000000
1FF0000001FE0000000000
1FE0000001FFFFFFFFFF80
3FE0000001FFFFFFFFFF80
3FE0000001FFFFFFFFFF80
7FC0000001FFFFFFFFFF80
7FC0000001FFFFFFFFFF80
7F80000001FFFFFFFFFF80
FF80000001FFFFFFFFFF80
ENDCHAR
STARTCHAR 00C7
ENCODING 199
SWIDTH 720 0
DWIDTH 62 0
BBX 54 83 4 -19
BITMAP
000001FFE00000
00001FFFFE0000
0000FFFFFF8000
0003FFFFFFE000
0007FFFFFFF000
001FFFFFFFFC00
003FFFFFFFFE00
007FFF00FFFF00
00FFF0000FFF00
00FFE00003FF80
01FF800000FFC0
03FF0000007FC0
03FE0000003FE0
07FC0000003FE0
0FF80000001FE0
0FF00000001FF0
1FF00000000FF0
1FE00000000FF0
1FE00000000FF8
3FC000000007F8
3FC000000007F8
3FC00000000000
7F800000000000
7F800000000000
7F800000000000
7F800000000000
7F800000000000
7F800000000000
FF000000000000
FF000000000000
FF000000000000
FF000000000000
FF000000000000
FF000000000000
FF000000000000
FF000000000000
FF000000000000
FF000000000000
FF800000000000
7F800000000000
7F800000000000
7F8000000003FC
7F8000000003FC
7FC000000003FC
3FC000000007FC
3FC000000007FC
3FE000000007F8
3FE000000007F8
1FE00000000FF8
1FF00000000FF8
0FF80000001FF0
0FF80000001FF0
07FC0000003FE0
07FE0000003FE0
03FF0000007FC0
01FF800000FFC0
01FFE00003FF80
00FFF8000FFF00
007FFF007FFF00
003FFFFFFFFE00
001FFFFFFFFC00
0007FFFFFFF000
0003FFFFFFE000
0000FFFFFF8000
00003FFFFC0000
000003FFC00000
00000070000000
00000070000000
000000F0000000
000000FFC00000
000001FFE00000
000001FFF00000
00000007F00000
00000003F80000
00000003F80000
00000003F80000
00004003F00000
0000F007F00000
0000FC0FF00000
0001FFFFE00000
00007FFFC00000
00000FFF000000
00000060000000
ENDCHAR
STARTCHAR 00C8
ENCODING 200
SWIDTH 661 0
DWIDTH 57 0
BBX 45 81 8 0
BITMAP
003FF0000000
001FF8000000
000FF8000000
0007FC000000
0003FE000000
0001FE000000
0000FF000000
00007F000000
00003F800000
00001FC00000
00000FC00000
000007E00000
000003F00000
000000000000
000000000000
000000000000
000000000000
000000000000
FFFFFFFFFFE0
FFFFFFFFFFE0
FFFFFFFFFFE0
FFFFFFFFFFE0
FFFFFFFFFFE0
FFFFFFFFFFE0
FFFFFFFFFFE0
FF0000000000
FF0000000000
FF0000000000
FF0000000000
FF0000000000
FF0000000000
FF0000000000
FF0000000000
FF0000000000
FF0000000000
FF0000000000
FF0000000000
FF0000000000
FF0000000000
FF0000000000
FF0000000000
FF0000000000
FF0000000000
FF0000000000
FF0000000000
FFFFFFFFFFC0
FFFFFFFFFFC0
FFFFFFFFFFC0
FFFFFFFFFFC0
FFFFFFFFFFC0
FFFFFFFFFFC0
FFFFFFFFFFC0
FF0000000000
FF0000000000
FF0000000000
FF0000000000
FF0000000000
FF0000000000
FF0000000000
FF0000000000
FF0000000000
FF0000000000
FF0000000000
FF0000000000
FF0000000000
FF0000000000
FF0000000000
FF0000000000
FF0000000000
FF0000000000
FF0000000000
FF0000000000
FF0000000000
FF0000000000
FFFFFFFFFFF8
FFFFFFFFFFF8
FFFFFFFFFFF8
FFFFFFFFFFF8
FFFFFFFFFFF8
FFFFFFFFFFF8
FFFFFFFFFFF8
ENDCHAR
STARTCHAR 00C9
ENCODING 201
SWIDTH 661 0
DWIDTH 57 0
BBX 45 81 8 0
BITMAP
000001FF8000
000001FF0000
000003FE0000
000007FC0000
000007F80000
00000FF00000
00001FE00000
00001FC00000
00003F800000
00007F000000
00007E000000
0000FC000000
0001F8000000
000000000000
000000000000
000000000000
000000000000
000000000000
FFFFFFFFFFE0
FFFFFFFFFFE0
FFFFFFFFFFE0
FFFFFFFFFFE0
FFFFFFFFFFE0
FFFFFFFFFFE0
FFFFFFFFFFE0
FF0000000000
FF0000000000
FF0000000000
FF0000000000
FF0000000000
FF0000000000
FF0000000000
FF0000000000
FF0000000000
FF0000000000
FF0000000000
FF0000000000
FF0000000000
FF0000000000
FF0000000000
FF0000000000
FF0000000000
FF0000000000
FF0000000000
FF0000000000
FFFFFFFFFFC0
FFFFFFFFFFC0
FFFFFFFFFFC0
FFFFFFFFFFC0
FFFFFFFFFFC0
FFFFFFFFFFC0
FFFFFFFFFFC0
FF0000000000
FF0000000000
FF0000000000
FF0000000000
FF0000000000
FF0000000000
FF0000000000
FF0000000000
FF0000000000
FF0000000000
FF0000000000
FF0000000000
FF0000000000
FF0000000000
FF0000000000
FF0000000000
FF0000000000
FF0000000000
FF0000000000
FF0000000000
FF0000000000
FF0000000000
FFFFFFFFFFF8
FFFFFFFFFFF8
FFFFFFFFFFF8
FFFFFFFFFFF8
FFFFFFFFFFF8
FFFFFFFFFFF8
FFFFFFFFFFF8
ENDCHAR
STARTCHAR 00CA
ENCODING 202
SWIDTH 661 0
DWIDTH 57 0
BBX 45 81 8 0
BITMAP
00007FC00000
00007FE00000
0000FFE00000
0001FFF00000
0001FFF80000
0003F9F80000
0007F1FC0000
0007E0FE0000
000FC07E0000
001FC03F0000
001F801F8000
003F000F8000
007E000FC000
000000000000
000000000000
000000000000
000000000000
000000000000
FFFFFFFFFFE0
FFFFFFFFFFE0
FFFFFFFFFFE0
FFFFFFFFFFE0
FFFFFFFFFFE0
FFFFFFFFFFE0
FFFFFFFFFFE0
FF0000000000
FF0000000000
FF0000000000
FF0000000000
FF0000000000
FF0000000000
FF0000000000
FF0000000000
FF0000000000
FF0000000000
FF0000000000
FF0000000000
FF0000000000
FF0000000000
FF0000000000
FF0000000000
FF0000000000
FF0000000000
FF0000000000
FF0000000000
FFFFFFFFFFC0
FFFFFFFFFFC0
FFFFFFFFFFC0
FFFFFFFFFFC0
FFFFFFFFFFC0
FFFFFFFFFFC0
FFFFFFFFFFC0
FF0000000000
FF0000000000
FF0000000000
FF0000000000
FF0000000000
FF0000000000
FF0000000000
FF0000000000
FF0000000000
FF0000000000
FF0000000000
FF0000000000
FF0000000000
FF0000000000
FF0000000000
FF0000000000
FF0000000000
FF0000000000
FF0000000000
FF0000000000
FF0000000000
FF0000000000
FFFFFFFFFFF8
FFFFFFFFFFF8
FFFFFFFFFFF8
FFFFFFFFFFF8
FFFFFFFFFFF8
FFFFFFFFFFF8
FFFFFFFFFFF8
ENDCHAR
STARTCHAR 00CB
ENCODING 203
SWIDTH 661 0
DWIDTH 57 0
BBX 45 79 8 0
BITMAP
003FE0FF8000
003FE0FF8000
003FE0FF8000
003FE0FF8000
003FE0FF8000
003FE0FF8000
003FE0FF8000
003FE0FF8000
003FE0FF8000
000000000000
000000000000
000000000000
000000000000
000000000000
000000000000
000000000000
FFFFFFFFFFE0
FFFFFFFFFFE0
FFFFFFFFFFE0
FFFFFFFFFFE0
FFFFFFFFFFE0
FFFFFFFFFFE0
FFFFFFFFFFE0
FF0000000000
FF0000000000
FF0000000000
FF0000000000
FF0000000000
FF0000000000
FF0000000000
FF0000000000
FF0000000000
FF0000000000
FF0000000000
FF0000000000
FF0000000000
FF0000000000
FF0000000000
FF0000000000
FF0000000000
FF0000000000
FF0000000000
FF0000000000
FFFFFFFFFFC0
FFFFFFFFFFC0
FFFFFFFFFFC0
FFFFFFFFFFC0
FFFFFFFFFFC0
FFFFFFFFFFC0
FFFFFFFFFFC0
FF0000000000
FF0000000000
FF0000000000
FF0000000000
FF0000000000
FF0000000000
FF0000000000
FF0000000000
FF0000000000
FF0000000000
FF0000000000
FF0000000000
FF0000000000
FF0000000000
FF0000000000
FF0000000000
FF0000000000
FF0000000000
FF0000000000
FF0000000000
FF0000000000
FF0000000000
FFFFFFFFFFF8
FFFFFFFFFFF8
FFFFFFFFFFF8
FFFFFFFFFFF8
FFFFFFFFFFF8
FFFFFFFFFFF8
FFFFFFFFFFF8
ENDCHAR
STARTCHAR 00CC
ENCODING 204
SWIDTH 278 0
DWIDTH 24 0
BBX 17 81 1 0
BITMAP
FF8000
7FC000
3FE000
1FE000
0FF000
07F000
03F800
01FC00
00FC00
007E00
003F00
001F00
000F80
000000
000000
000000
000000
000000
00FF00
00FF00
00FF00
00FF00
00FF00
00FF00
00FF00
00FF00
00FF00
00FF00
00FF00
00FF00
00FF00
00FF00
00FF00
00FF00
00FF00
00FF00
00FF00
00FF00
00FF00
00FF00
00FF00
00FF00
00FF00
00FF00
00FF00
00FF00
00FF00
00FF00
00FF00
00FF00
00FF00
00FF00
00FF00
00FF00
00FF00
00FF00
00FF00
00FF00
00FF00
00FF00
00FF00
00FF00
00FF00
00FF00
00FF00
00FF00
00FF00
00FF00
00FF00
00FF00
00FF00
00FF00
00FF00
00FF00
00FF00
00FF00
00FF00
00FF00
00FF00
00FF00
00FF00
ENDCHAR
STARTCHAR 00CD
ENCODING 205
SWIDTH 278 0
DWIDTH 24 0
BBX 18 81 6 0
BITMAP
00FFC0
01FF80
01FF00
03FE00
07F800
07F000
0FE000
1FC000
1F8000
3F0000
3E0000
7C0000
F80000
000000
000000
000000
000000
000000
1FE000
1FE000
1FE000
1FE000
1FE000
1FE000
1FE000
1FE000
1FE000
1FE000
1FE000
1FE000
1FE000
1FE000
1FE000
1FE000
1FE000
1FE000
1FE000
1FE000
1FE000
1FE000
1FE000
1FE000
1FE000
1FE000
1FE000
1FE000
1FE000
1FE000
1FE000
1FE000
1FE000
1FE000
1FE000
1FE000
1FE000
1FE000
1FE000
1FE000
1FE000
1FE000
1FE000
1FE000
1FE000
1FE000
1FE000
1FE000
1FE000
1FE000
1FE000
1FE000
1FE000
1FE000
1FE000
1FE000
1FE000
1FE000
1FE000
1FE000
1FE000
1FE000
1FE000
ENDCHAR
STARTCHAR 00CE
ENCODING 206
SWIDTH 278 0
DWIDTH 24 0
BBX 24 81 0 0
BITMAP
00FF80
01FF80
03FFC0
03FFE0
07FFE0
07E7F0
0FE3F8
1FC1F8
1F80FC
3F00FE
7E007E
7C003F
FC001F
000000
000000
000000
000000
000000
007F80
007F80
007F80
007F80
007F80
007F80
007F80
007F80
007F80
007F80
007F80
007F80
007F80
007F80
007F80
007F80
007F80
007F80
007F80
007F80
007F80
007F80
007F80
007F80
007F80
007F80
007F80
007F80
007F80
007F80
007F80
007F80
007F80
007F80
007F80
007F80
007F80
007F80
007F80
007F80
007F80
007F80
007F80
007F80
007F80
007F80
007F80
007F80
007F80
007F80
007F80
007F80
007F80
007F80
007F80
007F80
007F80
007F80
007F80
007F80
007F80
007F80
007F80
ENDCHAR
STARTCHAR 00CF
ENCODING 207
SWIDTH 278 0
DWIDTH 24 0
BBX 23 78 1 0
BITMAP
FF83FE
FF83FE
FF83FE
FF83FE
FF83FE
FF83FE
FF83FE
FF83FE
FF83FE
000000
000000
000000
000000
000000
000000
00FF00
00FF00
00FF00
00FF00
00FF00
00FF00
00FF00
00FF00
00FF00
00FF00
00FF00
00FF00
00FF00
00FF00
00FF00
00FF00
00FF00
00FF00
00FF00
00FF00
00FF00
00FF00
00FF00
00FF00
00FF00
00FF00
00FF00
00FF00
00FF00
00FF00
00FF00
00FF00
00FF00
00FF00
00FF00
00FF00
00FF00
00FF00
00FF00
00FF00
00FF00
00FF00
00FF00
00FF00
00FF00
00FF00
00FF00
00FF00
00FF00
00FF00
00FF00
00FF00
00FF00
00FF00
00FF00
00FF00
00FF00
00FF00
00FF00
00FF00
00FF00
00FF00
00FF00
ENDCHAR
STARTCHAR 00D0
ENCODING 208
SWIDTH 720 0
DWIDTH 62 0
BBX 55 63 2 0
BITMAP
03FFFFFFE00000
03FFFFFFFE0000
03FFFFFFFF8000
03FFFFFFFFE000
03FFFFFFFFF800
03FFFFFFFFFC00
03FFFFFFFFFE00
03FC00007FFF00
03FC00000FFF80
03FC000003FFC0
03FC000000FFC0
03FC0000007FE0
03FC0000003FE0
03FC0000001FF0
03FC0000001FF0
03FC0000000FF8
03FC00000007F8
03FC00000007F8
03FC00000007FC
03FC00000003FC
03FC00000003FC
03FC00000003FE
03FC00000001FE
03FC00000001FE
03FC00000001FE
03FC00000001FE
03FC00000001FE
03FC00000001FE
FFFFFFF00001FE
FFFFFFF00001FE
FFFFFFF00001FE
FFFFFFF00001FE
FFFFFFF00001FE
FFFFFFF00001FE
03FC00000001FE
03FC00000001FE
03FC00000001FE
03FC00000001FE
03FC00000001FE
03FC00000001FE
03FC00000001FE
03FC00000003FC
03FC00000003FC
03FC00000003FC
03FC00000003FC
03FC00000007F8
03FC00000007F8
03FC0000000FF8
03FC0000000FF0
03FC0000001FF0
03FC0000003FE0
03FC0000007FE0
03FC000000FFC0
03FC000001FF80
03FC000007FF80
03FC00007FFF00
03FFFFFFFFFE00
03FFFFFFFFFC00
03FFFFFFFFF800
03FFFFFFFFE000
03FFFFFFFF8000
03FFFFFFFE0000
03FFFFFFE00000
ENDCHAR
STARTCHAR 00D1
ENCODING 209
SWIDTH 720 0
DWIDTH 62 0
BBX 49 79 7 0
BITMAP
0000FC007C0000
0001FF007C0000
0003FFE0FC0000
0007FFFFF80000
000FFFFFF80000
000FFFFFF00000
000F83FFF00000
001F807FE00000
001F000F800000
00000000000000
00000000000000
00000000000000
00000000000000
00000000000000
00000000000000
00000000000000
FF800000007F80
FF800000007F80
FFC00000007F80
FFC00000007F80
FFE00000007F80
FFF00000007F80
FFF00000007F80
FFF80000007F80
FFFC0000007F80
FFFC0000007F80
FFFE0000007F80
FFFF0000007F80
FFFF0000007F80
FEFF8000007F80
FE7F8000007F80
FE7FC000007F80
FE3FE000007F80
FE1FE000007F80
FE1FF000007F80
FE0FF800007F80
FE07F800007F80
FE07FC00007F80
FE03FE00007F80
FE03FE00007F80
FE01FF00007F80
FE00FF00007F80
FE00FF80007F80
FE007FC0007F80
FE003FC0007F80
FE003FE0007F80
FE001FF0007F80
FE001FF0007F80
FE000FF8007F80
FE0007FC007F80
FE0007FC007F80
FE0003FE007F80
FE0001FE007F80
FE0001FF007F80
FE0000FF807F80
FE00007F807F80
FE00007FC07F80
FE00003FE07F80
FE00003FE07F80
FE00001FF07F80
FE00000FF87F80
FE00000FF87F80
FE000007FC7F80
FE000003FC7F80
FE000003FE7F80
FE000001FF7F80
FE000000FF7F80
FE000000FFFF80
FE0000007FFF80
FE0000007FFF80
FE0000003FFF80
FE0000001FFF80
FE0000001FFF80
FE0000000FFF80
FE00000007FF80
FE00000007FF80
FE00000003FF80
FE00000001FF80
FE00000001FF80
ENDCHAR
STARTCHAR 00D2
ENCODING 210
SWIDTH 778 0
DWIDTH 67 0
BBX 61 83 3 -2
BITMAP
00001FF000000000
00000FF800000000
000007F800000000
000003FC00000000
000001FE00000000
000000FE00000000
0000007F00000000
0000003F80000000
0000001F80000000
0000000FC0000000
00000007E0000000
00000003E0000000
00000001F0000000
0000000000000000
0000000000000000
0000000000000000
0000000000000000
0000007FF0000000
000007FFFF800000
00003FFFFFE00000
0000FFFFFFF80000
0003FFFFFFFE0000
0007FFFFFFFF8000
001FFFFFFFFFC000
003FFFC01FFFE000
007FFC0001FFF000
00FFF000007FF800
00FFE000001FFC00
01FF8000000FFE00
03FF00000007FE00
07FE00000003FF00
07FC00000001FF00
0FF800000000FF80
0FF800000000FFC0
1FF0000000007FC0
1FF0000000003FC0
3FE0000000003FE0
3FE0000000001FE0
3FC0000000001FE0
3FC0000000001FF0
7FC0000000000FF0
7F80000000000FF0
7F80000000000FF0
7F80000000000FF0
7F80000000000FF8
7F800000000007F8
FF000000000007F8
FF000000000007F8
FF000000000007F8
FF000000000007F8
FF000000000007F8
FF000000000007F8
FF000000000007F8
FF000000000007F8
FF800000000007F8
7F800000000007F8
7F80000000000FF0
7F80000000000FF0
7F80000000000FF0
7FC0000000000FF0
3FC0000000001FF0
3FC0000000001FE0
3FE0000000001FE0
3FE0000000003FE0
1FF0000000003FC0
1FF0000000007FC0
0FF8000000007F80
0FF800000000FF80
07FC00000001FF00
07FE00000003FF00
03FF00000007FE00
01FF8000000FFC00
01FFE000001FFC00
00FFF000007FF800
007FFE0001FFF000
003FFFC01FFFE000
001FFFFFFFFFC000
0007FFFFFFFF8000
0003FFFFFFFE0000
0000FFFFFFF80000
00003FFFFFE00000
000007FFFF800000
0000007FF0000000
ENDCHAR
STARTCHAR 00D3
ENCODING 211
SWIDTH 778 0
DWIDTH 67 0
BBX 61 83 3 -2
BITMAP
000000007FC00000
00000000FF800000
00000001FF000000
00000001FE000000
00000003FC000000
00000007F8000000
00000007F0000000
0000000FE0000000
0000001FC0000000
0000001F80000000
0000003F00000000
0000003E00000000
0000007C00000000
0000000000000000
0000000000000000
0000000000000000
0000000000000000
0000007FF0000000
000007FFFF800000
00003FFFFFE00000
0000FFFFFFF80000
0003FFFFFFFE0000
0007FFFFFFFF8000
001FFFFFFFFFC000
003FFFC01FFFE000
007FFC0001FFF000
00FFF000007FF800
00FFE000001FFC00
01FF8000000FFE00
03FF00000007FE00
07FE00000003FF00
07FC00000001FF00
0FF800000000FF80
0FF800000000FFC0
1FF0000000007FC0
1FF0000000003FC0
3FE0000000003FE0
3FE0000000001FE0
3FC0000000001FE0
3FC0000000001FF0
7FC0000000000FF0
7F80000000000FF0
7F80000000000FF0
7F80000000000FF0
7F80000000000FF8
7F800000000007F8
FF000000000007F8
FF000000000007F8
FF000000000007F8
FF000000000007F8
FF000000000007F8
FF000000000007F8
FF000000000007F8
FF000000000007F8
FF800000000007F8
7F800000000007F8
7F80000000000FF0
7F80000000000FF0
7F80000000000FF0
7FC0000000000FF0
3FC0000000001FF0
3FC0000000001FE0
3FE0000000001FE0
3FE0000000003FE0
1FF0000000003FC0
1FF0000000007FC0
0FF8000000007F80
0FF800000000FF80
07FC00000001FF00
07FE00000003FF00
03FF00000007FE00
01FF8000000FFC00
01FFE000001FFC00
00FFF000007FF800
007FFE0001FFF000
003FFFC01FFFE000
001FFFFFFFFFC000
0007FFFFFFFF8000
0003FFFFFFFE0000
0000FFFFFFF80000
00003FFFFFE00000
000007FFFF800000
0000007FF0000000
ENDCHAR
STARTCHAR 00D4
ENCODING 212
SWIDTH 778 0
DWIDTH 67 0
BBX 61 83 3 -2
BITMAP
0000003FE0000000
0000007FF0000000
0000007FF0000000
000000FFF8000000
000000FFFC000000
000001FDFC000000
000003F8FE000000
000003F07F000000
000007E03F000000
00000FC01F800000
00000FC00FC00000
00001F800FC00000
00003F0007E00000
0000000000000000
0000000000000000
0000000000000000
0000000000000000
0000007FF0000000
000007FFFF800000
00003FFFFFE00000
0000FFFFFFF80000
0003FFFFFFFE0000
0007FFFFFFFF8000
001FFFFFFFFFC000
003FFFC01FFFE000
007FFC0001FFF000
00FFF000007FF800
00FFE000001FFC00
01FF8000000FFE00
03FF00000007FE00
07FE00000003FF00
07FC00000001FF00
0FF800000000FF80
0FF800000000FFC0
1FF0000000007FC0
1FF0000000003FC0
3FE0000000003FE0
3FE0000000001FE0
3FC0000000001FE0
3FC0000000001FF0
7FC0000000000FF0
7F80000000000FF0
7F80000000000FF0
7F80000000000FF0
7F80000000000FF8
7F800000000007F8
FF000000000007F8
FF000000000007F8
FF000000000007F8
FF000000000007F8
FF000000000007F8
FF000000000007F8
FF000000000007F8
FF000000000007F8
FF800000000007F8
7F800000000007F8
7F80000000000FF0
7F80000000000FF0
7F80000000000FF0
7FC0000000000FF0
3FC0000000001FF0
3FC0000000001FE0
3FE0000000001FE0
3FE0000000003FE0
1FF0000000003FC0
1FF0000000007FC0
0FF8000000007F80
0FF800000000FF80
07FC00000001FF00
07FE00000003FF00
03FF00000007FE00
01FF8000000FFC00
01FFE000001FFC00
00FFF000007FF800
007FFE0001FFF000
003FFFC01FFFE000
001FFFFFFFFFC000
0007FFFFFFFF8000
0003FFFFFFFE0000
0000FFFFFFF80000
00003FFFFFE00000
000007FFFF800000
0000007FF0000000
ENDCHAR
STARTCHAR 00D5
ENCODING 213
SWIDTH 778 0
DWIDTH 67 0
BBX 61 81 3 -2
BITMAP
000003F001F00000
000007FE01F00000
00000FFFC3F00000
00001FFFFFF00000
00001FFFFFE00000
00003FFFFFE00000
00003F0FFFC00000
00003E01FF800000
00007C003E000000
0000000000000000
0000000000000000
0000000000000000
0000000000000000
0000000000000000
0000000000000000
0000007FF0000000
000007FFFF800000
00003FFFFFE00000
0000FFFFFFF80000
0003FFFFFFFE0000
0007FFFFFFFF8000
001FFFFFFFFFC000
003FFFC01FFFE000
007FFC0001FFF000
00FFF000007FF800
00FFE000001FFC00
01FF8000000FFE00
03FF00000007FE00
07FE00000003FF00
07FC00000001FF00
0FF800000000FF80
0FF800000000FFC0
1FF0000000007FC0
1FF0000000003FC0
3FE0000000003FE0
3FE0000000001FE0
3FC0000000001FE0
3FC0000000001FF0
7FC0000000000FF0
7F80000000000FF0
7F80000000000FF0
7F80000000000FF0
7F80000000000FF8
7F800000000007F8
FF000000000007F8
FF000000000007F8
FF000000000007F8
FF000000000007F8
FF000000000007F8
FF000000000007F8
FF000000000007F8
FF000000000007F8
FF800000000007F8
7F800000000007F8
7F80000000000FF0
7F80000000000FF0
7F80000000000FF0
7FC0000000000FF0
3FC0000000001FF0
3FC0000000001FE0
3FE0000000001FE0
3FE0000000003FE0
1FF0000000003FC0
1FF0000000007FC0
0FF8000000007F80
0FF800000000FF80
07FC00000001FF00
07FE00000003FF00
03FF00000007FE00
01FF8000000FFC00
01FFE000001FFC00
00FFF000007FF800
007FFE0001FFF000
003FFFC01FFFE000
001FFFFFFFFFC000
0007FFFFFFFF8000
0003FFFFFFFE0000
0000FFFFFFF80000
00003FFFFFE00000
000007FFFF800000
0000007FF0000000
ENDCHAR
STARTCHAR 00D6
ENCODING 214
SWIDTH 778 0
DWIDTH 67 0
BBX 61 81 3 -2
BITMAP
00001FF07FC00000
00001FF07FC00000
00001FF07FC00000
00001FF07FC00000
00001FF07FC00000
00001FF07FC00000
00001FF07FC00000
00001FF07FC00000
00001FF07FC00000
0000000000000000
0000000000000000
0000000000000000
0000000000000000
0000000000000000
0000000000000000
0000007FF0000000
000007FFFF800000
00003FFFFFE00000
0000FFFFFFF80000
0003FFFFFFFE0000
0007FFFFFFFF8000
001FFFFFFFFFC000
003FFFC01FFFE000
007FFC0001FFF000
00FFF000007FF800
00FFE000001FFC00
01FF8000000FFE00
03FF00000007FE00
07FE00000003FF00
07FC00000001FF00
0FF800000000FF80
0FF800000000FFC0
1FF0000000007FC0
1FF0000000003FC0
3FE0000000003FE0
3FE0000000001FE0
3FC0000000001FE0
3FC0000000001FF0
7FC0000000000FF0
7F80000000000FF0
7F80000000000FF0
7F80000000000FF0
7F80000000000FF8
7F800000000007F8
FF000000000007F8
FF000000000007F8
FF000000000007F8
FF000000000007F8
FF000000000007F8
FF000000000007F8
FF000000000007F8
FF000000000007F8
FF800000000007F8
7F800000000007F8
7F80000000000FF0
7F80000000000FF0
7F80000000000FF0
7FC0000000000FF0
3FC0000000001FF0
3FC0000000001FE0
3FE0000000001FE0
3FE0000000003FE0
1FF0000000003FC0
1FF0000000007FC0
0FF8000000007F80
0FF800000000FF80
07FC00000001FF00
07FE00000003FF00
03FF00000007FE00
01FF8000000FFC00
01FFE000001FFC00
00FFF000007FF800
007FFE0001FFF000
003FFFC01FFFE000
001FFFFFFFFFC000
0007FFFFFFFF8000
0003FFFFFFFE0000
0000FFFFFFF80000
00003FFFFFE00000
000007FFFF800000
0000007FF0000000
ENDCHAR
STARTCHAR 00D7
ENCODING 215
SWIDTH 580 0
DWIDTH 50 0
BBX 34 34 8 3
BITMAP
0800000400
1C00000E00
3E00001F00
7F00003F80
FF80007FC0
7FC000FF80
3FE001FF00
1FF003FE00
0FF807FC00
07FC0FF800
03FE1FF000
01FF3FE000
00FFFFC000
007FFF8000
003FFF0000
001FFE0000
000FFC0000
000FFC0000
001FFE0000
003FFF0000
007FFF8000
00FFFFC000
01FF3FE000
03FE1FF000
07FC0FF800
0FF807FC00
1FF003FE00
3FE001FF00
7FC000FF80
FF80007FC0
7F00003F80
3E00001F00
1C00000E00
0800000400
ENDCHAR
STARTCHAR 00D8
ENCODING 216
SWIDTH 778 0
DWIDTH 67 0
BBX 61 67 3 -2
BITMAP
0000000000000040
0000007FF00000F0
00000FFFFF0001F8
00003FFFFFE003F8
0000FFFFFFF807F0
0003FFFFFFFE0FE0
0007FFFFFFFF1FC0
001FFFFFFFFFDF80
003FFFC01FFFFF00
007FFC0003FFFE00
00FFF000007FFC00
01FFC000003FFC00
03FF8000000FFC00
03FF00000007FE00
07FE0000000FFF00
07FC0000001FFF00
0FF80000003FFF80
1FF00000007FFF80
1FF00000007E7FC0
1FE0000000FC7FC0
3FE0000001F83FC0
3FC0000003F03FE0
3FC0000007E01FE0
7FC000000FC01FE0
7F8000001F801FF0
7F8000003F000FF0
7F8000007E000FF0
7F800000FE000FF0
FF000001FC000FF0
FF000001F8000FF0
FF000003F0000FF8
FF000007E00007F8
FF00000FC00007F8
FF00001F800007F8
FF00003F000007F8
FF00007E000007F8
FF0000FC000007F8
FF0001F800000FF8
FF0003F800000FF0
FF0007F000000FF0
7F800FE000000FF0
7F800FC000000FF0
7F801F8000000FF0
7F803F0000001FF0
7FC07E0000001FE0
3FC0FC0000001FE0
3FC1F80000003FE0
3FE3F00000003FC0
1FE7E00000007FC0
1FFFC00000007FC0
1FFFC0000000FF80
0FFF80000000FF80
07FF00000001FF00
07FE00000003FF00
03FF00000007FE00
03FF8000000FFC00
03FFC000003FF800
07FFF000007FF800
0FFFFC0001FFF000
1FBFFFC01FFFE000
3F1FFFFFFFFFC000
7F0FFFFFFFFF0000
FE03FFFFFFFE0000
FC01FFFFFFF80000
78007FFFFFE00000
30000FFFFF000000
000000FFF0000000
ENDCHAR
STARTCHAR 00D9
ENCODING 217
SWIDTH 720 0
DWIDTH 62 0
BBX 49 83 7 -2
BITMAP
0007FC00000000
0003FE00000000
0001FE00000000
0000FF00000000
00007F80000000
00003F80000000
00001FC0000000
00000FE0000000
000007E0000000
000003F0000000
000001F8000000
000000F8000000
0000007C000000
00000000000000
00000000000000
00000000000000
00000000000000
00000000000000
FF000000007F80
FF000000007F80
FF000000007F80
FF000000007F80
FF000000007F80
FF000000007F80
FF000000007F80
FF000000007F80
FF000000007F80
FF000000007F80
FF000000007F80
FF000000007F80
FF000000007F80
FF000000007F80
FF000000007F80
FF000000007F80
FF000000007F80
FF000000007F80
FF000000007F80
FF000000007F80
FF000000007F80
FF000000007F80
FF000000007F80
FF000000007F80
FF000000007F80
FF000000007F80
FF000000007F80
FF000000007F80
FF000000007F80
FF000000007F80
FF000000007F80
FF000000007F80
FF000000007F80
FF000000007F80
FF000000007F80
FF000000007F80
FF000000007F80
FF000000007F80
FF000000007F80
FF000000007F80
FF000000007F80
FF000000007F80
FF000000007F80
FF000000007F80
FF000000007F80
FF00000000FF80
FF80000000FF00
7F80000000FF00
7F80000000FF00
7F80000000FF00
7FC0000001FF00
3FC0000001FE00
3FE0000003FE00
3FF0000007FE00
1FF800000FFC00
1FFC00001FF800
0FFF00007FF800
07FFF007FFF000
03FFFFFFFFE000
01FFFFFFFFC000
00FFFFFFFF0000
003FFFFFFE0000
000FFFFFF80000
0003FFFFC00000
00003FFC000000
ENDCHAR
STARTCHAR 00DA
ENCODING 218
SWIDTH 720 0
DWIDTH 62 0
BBX 49 83 7 -2
BITMAP
0000003FF00000
0000007FC00000
0000007F800000
000000FF000000
000001FE000000
000001FC000000
000003F8000000
000007F0000000
000007E0000000
00000FC0000000
00001F80000000
00001F00000000
00003E00000000
00000000000000
00000000000000
00000000000000
00000000000000
00000000000000
FF00000000FF00
FF00000000FF00
FF00000000FF00
FF00000000FF00
FF00000000FF00
FF00000000FF00
FF00000000FF00
FF00000000FF00
FF00000000FF00
FF00000000FF00
FF00000000FF00
FF00000000FF00
FF00000000FF00
FF00000000FF00
FF00000000FF00
FF00000000FF00
FF00000000FF00
FF00000000FF00
FF00000000FF00
FF00000000FF00
FF00000000FF00
FF00000000FF80
FF00000000FF80
FF00000000FF80
FF00000000FF80
FF00000000FF80
FF00000000FF80
FF00000000FF80
FF00000000FF80
FF00000000FF80
FF00000000FF80
FF00000000FF80
FF00000000FF80
FF00000000FF80
FF00000000FF80
FF00000000FF80
FF00000000FF80
FF00000000FF80
FF00000000FF80
FF00000000FF80
FF00000000FF80
FF00000000FF80
FF00000000FF80
FF00000000FF80
FF000000007F80
FF00000000FF80
FF80000000FF00
7F80000000FF00
7F80000000FF00
7F80000000FF00
7FC0000001FF00
3FC0000001FE00
3FE0000003FE00
3FF0000007FE00
1FF800000FFC00
1FFC00001FF800
0FFF00007FF800
07FFF007FFF000
03FFFFFFFFE000
01FFFFFFFFC000
00FFFFFFFF0000
003FFFFFFE0000
000FFFFFF80000
0003FFFFC00000
00003FFC000000
ENDCHAR
STARTCHAR 00DB
ENCODING 219
SWIDTH 720 0
DWIDTH 62 0
BBX 49 83 7 -2
BITMAP
00000FF8000000
00001FFC000000
00001FFC000000
00003FFE000000
00007FFE000000
00007F7F000000
0000FE3F800000
0001FC1F800000
0001F80FC00000
0003F007E00000
0003E007E00000
0007E003F00000
000FC001F80000
00000000000000
00000000000000
00000000000000
00000000000000
00000000000000
FF000000007F80
FF000000007F80
FF000000007F80
FF000000007F80
FF000000007F80
FF000000007F80
FF000000007F80
FF000000007F80
FF000000007F80
FF000000007F80
FF000000007F80
FF000000007F80
FF000000007F80
FF000000007F80
FF000000007F80
FF000000007F80
FF000000007F80
FF000000007F80
FF000000007F80
FF000000007F80
FF000000007F80
FF000000007F80
FF000000007F80
FF000000007F80
FF000000007F80
FF000000007F80
FF000000007F80
FF000000007F80
FF000000007F80
FF000000007F80
FF000000007F80
FF000000007F80
FF000000007F80
FF000000007F80
FF000000007F80
FF000000007F80
FF000000007F80
FF000000007F80
FF000000007F80
FF000000007F80
FF000000007F80
FF000000007F80
FF000000007F80
FF000000007F80
FF000000007F80
FF00000000FF80
FF80000000FF00
7F80000000FF00
7F80000000FF00
7F80000000FF00
7FC0000001FF00
3FC0000001FE00
3FE0000003FE00
3FF0000007FE00
1FF800000FFC00
1FFC00001FF800
0FFF00007FF800
07FFF007FFF000
03FFFFFFFFE000
01FFFFFFFFC000
00FFFFFFFF0000
003FFFFFFE0000
000FFFFFF80000
0003FFFFC00000
00003FFC000000
ENDCHAR
STARTCHAR 00DC
ENCODING 220
SWIDTH 720 0
DWIDTH 62 0
BBX 49 81 7 -2
BITMAP
0007FC1FF00000
0007FC1FF00000
0007FC1FF00000
0007FC1FF00000
0007FC1FF00000
0007FC1FF00000
0007FC1FF00000
0007FC1FF00000
0007FC1FF00000
00000000000000
00000000000000
00000000000000
00000000000000
00000000000000
00000000000000
00000000000000
FF000000007F80
FF000000007F80
FF000000007F80
FF000000007F80
FF000000007F80
FF000000007F80
FF000000007F80
FF000000007F80
FF000000007F80
FF000000007F80
FF000000007F80
FF000000007F80
FF000000007F80
FF000000007F80
FF000000007F80
FF000000007F80
FF000000007F80
FF000000007F80
FF000000007F80
FF000000007F80
FF000000007F80
FF000000007F80
FF000000007F80
FF000000007F80
FF000000007F80
FF000000007F80
FF000000007F80
FF000000007F80
FF000000007F80
FF000000007F80
FF000000007F80
FF000000007F80
FF000000007F80
FF000000007F80
FF000000007F80
FF000000007F80
FF000000007F80
FF000000007F80
FF000000007F80
FF000000007F80
FF000000007F80
FF000000007F80
FF000000007F80
FF000000007F80
FF000000007F80
FF00000000FF80
FF80000000FF00
7F80000000FF00
7F80000000FF00
7F80000000FF00
7FC0000001FF00
3FC0000001FE00
3FE0000003FE00
3FF0000007FE00
1FF800000FFC00
1FFC00001FF800
0FFF00007FF800
07FFF007FFF000
03FFFFFFFFE000
01FFFFFFFFC000
00FFFFFFFF0000
003FFFFFFE0000
000FFFFFF80000
0003FFFFC00000
00003FFC000000
ENDCHAR
STARTCHAR 00DD
ENCODING 221
SWIDTH 661 0
DWIDTH 57 0
BBX 56 81 1 0
BITMAP
00000003FF0000
00000007FE0000
00000007FC0000
0000000FF80000
0000001FF00000
0000001FE00000
0000003FC00000
0000003F800000
0000007F000000
000000FE000000
000000FC000000
000001F8000000
000003F0000000
00000000000000
00000000000000
00000000000000
00000000000000
00000000000000
FFC000000003FF
7FE000000007FE
3FF000000007FC
3FF00000000FFC
1FF80000000FF8
0FF80000001FF0
0FFC0000003FF0
07FE0000003FE0
07FE0000007FE0
03FF0000007FC0
01FF000000FF80
01FF800000FF80
00FFC00001FF00
007FC00003FF00
007FE00003FE00
003FE00007FC00
003FF00007FC00
001FF0000FF800
000FF8001FF000
000FFC001FF000
0007FC003FE000
0003FE003FE000
0003FE007FC000
0001FF007F8000
0000FF80FF8000
0000FF81FF0000
00007FC1FE0000
00007FC3FE0000
00003FE3FC0000
00001FF7FC0000
00001FFFF80000
00000FFFF00000
000007FFF00000
000007FFE00000
000003FFE00000
000003FFC00000
000001FF800000
000000FF800000
000000FF000000
000000FF000000
000000FF000000
000000FF000000
000000FF000000
000000FF000000
000000FF000000
000000FF000000
000000FF000000
000000FF000000
000000FF000000
000000FF000000
000000FF000000
000000FF000000
000000FF000000
000000FF000000
000000FF000000
000000FF000000
000000FF000000
000000FF000000
000000FF000000
000000FF000000
000000FF000000
000000FF000000
000000FF000000
ENDCHAR
STARTCHAR 00DE
ENCODING 222
SWIDTH 661 0
DWIDTH 57 0
BBX 45 63 8 0
BITMAP
FF0000000000
FF0000000000
FF0000000000
FF0000000000
FF0000000000
FF0000000000
FF0000000000
FF0000000000
FF0000000000
FF0000000000
FFFFFFFE0000
FFFFFFFFE000
FFFFFFFFF800
FFFFFFFFFC00
FFFFFFFFFE00
FFFFFFFFFF80
FFFFFFFFFF80
FF00000FFFC0
FF000001FFE0
FF0000007FE0
FF0000003FF0
FF0000003FF0
FF0000001FF0
FF0000000FF8
FF0000000FF8
FF0000000FF8
FF0000000FF8
FF0000000FF8
FF0000000FF8
FF0000000FF8
FF0000000FF8
FF0000000FF8
FF0000000FF8
FF0000000FF8
FF0000001FF0
FF0000001FF0
FF0000003FF0
FF0000007FE0
FF000001FFE0
FF000007FFC0
FFFFFFFFFF80
FFFFFFFFFF80
FFFFFFFFFF00
FFFFFFFFFC00
FFFFFFFFF800
FFFFFFFFE000
FFFFFFFF0000
FF0000000000
FF0000000000
FF0000000000
FF0000000000
FF0000000000
FF0000000000
FF0000000000
FF0000000000
FF0000000000
FF0000000000
FF0000000000
FF0000000000
FF0000000000
FF0000000000
FF0000000000
FF0000000000
ENDCHAR
STARTCHAR 00DF
ENCODING 223
SWIDTH 615 0
DWIDTH 53 0
BBX 42 65 6 -2
BITMAP
0001FF800000
001FFFF80000
007FFFFE0000
01FFFFFF8000
07FFFFFFC000
0FFFFFFFE000
1FFFFFFFF000
3FFC00FFF000
3FF0001FF800
7FC0000FF800
7F800007FC00
7F800003FC00
FF000003FC00
FF000001FE00
FE000001FE00
FE000001FE00
FE000001FE00
FE000001FE00
FE000001FE00
FE000001FC00
FE000003FC00
FE000007FC00
FE00000FF800
FE00001FF000
FE00007FE000
FE0003FFC000
FE007FFF8000
FE007FFE0000
FE007FF00000
FE007FFE0000
FE007FFF8000
FE007FFFE000
FE007FFFF000
FE00007FFC00
FE00000FFE00
FE000003FE00
FE000001FF00
FE000000FF00
FE0000007F80
FE0000007F80
FE0000003F80
FE0000003FC0
FE0000003FC0
FE0000003FC0
FE0000003FC0
FE0000003FC0
FE0000003FC0
FE0000003FC0
FE0000003F80
FE0000003F80
FE0000007F80
FE0000007F80
FE000000FF00
FE000001FF00
FE000003FF00
FE000007FE00
FE00001FFC00
FE0000FFFC00
FE00FFFFF800
FE00FFFFF000
FE00FFFFE000
FE00FFFF8000
FE00FFFF0000
0000FFF80000
0000FFC00000
ENDCHAR
STARTCHAR 00E0
ENCODING 224
SWIDTH 557 0
DWIDTH 48 0
BBX 42 66 4 -2
BITMAP
00FFC0000000
007FC0000000
003FE0000000
001FF0000000
000FF0000000
0007F8000000
0003FC000000
0001FC000000
0000FE000000
00007E000000
00003F000000
00001F800000
00000F800000
000000000000
000000000000
000000000000
000000000000
000000000000
0003FFC00000
001FFFF80000
00FFFFFE0000
01FFFFFF8000
03FFFFFFC000
07FFFFFFE000
0FFFFFFFE000
1FFC007FF000
1FF0001FF000
3FE0000FF000
3FC00007F800
3FC00007F800
3F800007F800
3F800007F800
3F800007F800
00000007F800
00000007F800
00000007F800
0000000FF800
0000007FF800
00001FFFF800
000FFFFFF800
00FFFFFFF800
03FFFFFFF800
07FFFFF7F800
1FFFFF07F800
3FFF8007F800
3FF80007F800
7FE00007F800
7F800007F800
FF000007F800
FF000007F800
FE000007F800
FE000007F800
FE000007F800
FE000007F800
FE00000FF800
FF00001FF800
FF00003FF800
FF8000FFF800
7FE003FFF800
7FFC1FFFFC00
3FFFFFF3FFC0
1FFFFFE3FFC0
0FFFFFC1FFC0
07FFFF01FFC0
01FFFC00FFC0
003FE0003F80
ENDCHAR
STARTCHAR 00E1
ENCODING 225
SWIDTH 557 0
DWIDTH 48 0
BBX 42 66 4 -2
BITMAP
000003FE0000
000007FC0000
000007F80000
00000FF00000
00001FE00000
00001FC00000
00003FC00000
00007F800000
00007F000000
0000FE000000
0000FC000000
0001F8000000
0003F0000000
000000000000
000000000000
000000000000
000000000000
000000000000
0003FFC00000
001FFFF80000
00FFFFFE0000
01FFFFFF8000
03FFFFFFC000
07FFFFFFE000
0FFFFFFFE000
1FFC007FF000
1FF0001FF000
3FE0000FF000
3FC00007F800
3FC00007F800
3F800007F800
3F800007F800
3F800007F800
00000007F800
00000007F800
00000007F800
0000000FF800
0000007FF800
00001FFFF800
000FFFFFF800
00FFFFFFF800
03FFFFFFF800
07FFFFF7F800
1FFFFF07F800
3FFF8007F800
3FF80007F800
7FE00007F800
7F800007F800
FF000007F800
FF000007F800
FE000007F800
FE000007F800
FE000007F800
FE000007F800
FE00000FF800
FF00001FF800
FF00003FF800
FF8000FFF800
7FE003FFF800
7FFC1FFFFC00
3FFFFFF3FFC0
1FFFFFE3FFC0
0FFFFFC1FFC0
07FFFF01FFC0
01FFFC00FFC0
003FE0003F80
ENDCHAR
STARTCHAR 00E2
ENCODING 226
SWIDTH 557 0
DWIDTH 48 0
BBX 42 66 4 -2
BITMAP
0001FF000000
0001FF800000
0003FF800000
0007FFC00000
0007FFE00000
000FEFE00000
000FC7F00000
001FC3F00000
003F81F80000
003F01FC0000
007E00FC0000
007C007E0000
00FC003F0000
000000000000
000000000000
000000000000
000000000000
000000000000
0003FFC00000
001FFFF80000
00FFFFFE0000
01FFFFFF8000
03FFFFFFC000
07FFFFFFE000
0FFFFFFFE000
1FFC007FF000
1FF0001FF000
3FE0000FF000
3FC00007F800
3FC00007F800
3F800007F800
3F800007F800
3F800007F800
00000007F800
00000007F800
00000007F800
0000000FF800
0000007FF800
00001FFFF800
000FFFFFF800
00FFFFFFF800
03FFFFFFF800
07FFFFF7F800
1FFFFF07F800
3FFF8007F800
3FF80007F800
7FE00007F800
7F800007F800
FF000007F800
FF000007F800
FE000007F800
FE000007F800
FE000007F800
FE000007F800
FE00000FF800
FF00001FF800
FF00003FF800
FF8000FFF800
7FE003FFF800
7FFC1FFFFC00
3FFFFFF3FFC0
1FFFFFE3FFC0
0FFFFFC1FFC0
07FFFF01FFC0
01FFFC00FFC0
003FE0003F80
ENDCHAR
STARTCHAR 00E3
ENCODING 227
SWIDTH 557 0
DWIDTH 48 0
BBX 42 64 4 -2
BITMAP
001F800F8000
003FE00F8000
007FFC1F8000
00FFFFFF0000
01FFFFFF0000
01FFFFFE0000
01F07FFE0000
03F00FFC0000
03E001F00000
000000000000
000000000000
000000000000
000000000000
000000000000
000000000000
000000000000
0003FFC00000
001FFFF80000
00FFFFFE0000
01FFFFFF8000
03FFFFFFC000
07FFFFFFE000
0FFFFFFFE000
1FFC007FF000
1FF0001FF000
3FE0000FF000
3FC00007F800
3FC00007F800
3F800007F800
3F800007F800
3F800007F800
00000007F800
00000007F800
00000007F800
0000000FF800
0000007FF800
00001FFFF800
000FFFFFF800
00FFFFFFF800
03FFFFFFF800
07FFFFF7F800
1FFFFF07F800
3FFF8007F800
3FF80007F800
7FE00007F800
7F800007F800
FF000007F800
FF000007F800
FE000007F800
FE000007F800
FE000007F800
FE000007F800
FE00000FF800
FF00001FF800
FF00003FF800
FF8000FFF800
7FE003FFF800
7FFC1FFFFC00
3FFFFFF3FFC0
1FFFFFE3FFC0
0FFFFFC1FFC0
07FFFF01FFC0
01FFFC00FFC0
003FE0003F80
ENDCHAR
STARTCHAR 00E4
ENCODING 228
SWIDTH 557 0
DWIDTH 48 0
BBX 42 64 4 -2
BITMAP
00FF83FE0000
00FF83FE0000
00FF83FE0000
00FF83FE0000
00FF83FE0000
00FF83FE0000
00FF83FE0000
00FF83FE0000
00FF83FE0000
000000000000
000000000000
000000000000
000000000000
000000000000
000000000000
000000000000
0003FFC00000
001FFFF80000
00FFFFFE0000
01FFFFFF8000
03FFFFFFC000
07FFFFFFE000
0FFFFFFFE000
1FFC007FF000
1FF0001FF000
3FE0000FF000
3FC00007F800
3FC00007F800
3F800007F800
3F800007F800
3F800007F800
00000007F800
00000007F800
00000007F800
0000000FF800
0000007FF800
00001FFFF800
000FFFFFF800
00FFFFFFF800
03FFFFFFF800
07FFFFF7F800
1FFFFF07F800
3FFF8007F800
3FF80007F800
7FE00007F800
7F800007F800
FF000007F800
FF000007F800
FE000007F800
FE000007F800
FE000007F800
FE000007F800
FE00000FF800
FF00001FF800
FF00003FF800
FF8000FFF800
7FE003FFF800
7FFC1FFFFC00
3FFFFFF3FFC0
1FFFFFE3FFC0
0FFFFFC1FFC0
07FFFF01FFC0
01FFFC00FFC0
003FE0003F80
ENDCHAR
STARTCHAR 00E5
ENCODING 229
SWIDTH 557 0
DWIDTH 48 0
BBX 42 67 4 -2
BITMAP
00003C000000
0000FF000000
0003FF800000
0003FFC00000
0007C7E00000
000781E00000
000F01E00000
000F01E00000
000F01E00000
000F01E00000
000F81E00000
0007C7C00000
0007FFC00000
0003FF800000
0001FF000000
00003C000000
000000000000
000000000000
000000000000
0003FFC00000
001FFFF80000
00FFFFFE0000
01FFFFFF8000
03FFFFFFC000
07FFFFFFE000
0FFFFFFFE000
1FFC007FF000
1FF0001FF000
3FE0000FF000
3FC00007F800
3FC00007F800
3F800007F800
3F800007F800
3F800007F800
00000007F800
00000007F800
00000007F800
0000000FF800
0000007FF800
00001FFFF800
000FFFFFF800
00FFFFFFF800
03FFFFFFF800
07FFFFF7F800
1FFFFF07F800
3FFF8007F800
3FF80007F800
7FE00007F800
7F800007F800
FF000007F800
FF000007F800
FE000007F800
FE000007F800
FE000007F800
FE000007F800
FE00000FF800
FF00001FF800
FF00003FF800
FF8000FFF800
7FE003FFF800
7FFC1FFFFC00
3FFFFFF3FFC0
1FFFFFE3FFC0
0FFFFFC1FFC0
07FFFF01FFC0
01FFFC00FFC0
003FE0003F80
ENDCHAR
STARTCHAR 00E6
ENCODING 230
SWIDTH 894 0
DWIDTH 77 0
BBX 70 48 3 -2
BITMAP
0001FF800007FE0000
001FFFF8003FFFC000
007FFFFE00FFFFF000
01FFFFFF03FFFFF800
03FFFFFF87FFFFFE00
07FFFFFFCFFFFFFF00
0FFFFFFFFFFFFFFF80
1FFC007FFFF803FFC0
1FF0001FFFE000FFC0
1FE00007FFC0003FE0
3FC00007FF80001FE0
3FC00003FF00001FF0
3FC00003FE00000FF0
3F800003FC000007F8
3F800003FC000007F8
00000003FC000007F8
00000003F8000003F8
00000007F8000003F8
00000007F8000003F8
0000003FF8000003FC
00003FFFFFFFFFFFFC
000FFFFFFFFFFFFFFC
007FFFFFFFFFFFFFFC
03FFFFFFFFFFFFFFFC
07FFFFF3FFFFFFFFFC
0FFFFF03FFFFFFFFFC
1FFFC003F800000000
3FF80003F800000000
7FE00003F800000000
7F800003F800000000
7F800003F800000000
FF000003F800000000
FF000003F8000003F8
FE000003FC000007F8
FE000007FC000007F0
FF000007FE00000FF0
FF00000FFF00000FF0
FF00001FFF80001FE0
FF80003FFFC0003FE0
7F8000FF3FE0007FC0
7FE003FE3FF801FFC0
3FFC1FFC1FFFFFFF80
3FFFFFF80FFFFFFF00
1FFFFFE007FFFFFE00
0FFFFFC003FFFFFC00
07FFFF0001FFFFF000
01FFFC00007FFFC000
003FE0000007FC0000
ENDCHAR
STARTCHAR 00E7
ENCODING 231
SWIDTH 499 0
DWIDTH 43 0
BBX 38 65 3 -19
BITMAP
0001FF8000
000FFFF000
003FFFFC00
007FFFFE00
01FFFFFF80
03FFFFFFC0
07FFFFFFC0
07FE00FFE0
0FF8003FF0
1FF0001FF0
1FE0000FF0
3FC00007F8
3FC00007F8
7F800003F8
7F800003F8
7F000003FC
7F00000000
FF00000000
FF00000000
FF00000000
FE00000000
FE00000000
FE00000000
FE00000000
FE00000000
FE00000000
FE00000000
FE00000000
FE00000000
FF00000000
FF00000000
FF000001FC
7F000001FC
7F800003FC
7F800003FC
7FC00007F8
3FC00007F8
3FE0000FF8
1FF0000FF0
1FF8001FF0
0FFE007FE0
07FFE7FFC0
03FFFFFFC0
01FFFFFF80
00FFFFFE00
007FFFFC00
001FFFF000
0003FF8000
0000F00000
0000E00000
0001E00000
0001FF8000
0003FFC000
0003FFE000
00020FF000
000007F000
000007F000
000007F000
008007F000
00E007E000
01FC1FE000
01FFFFC000
00FFFF8000
001FFE0000
0000400000
ENDCHAR
STARTCHAR 00E8
ENCODING 232
SWIDTH 557 0
DWIDTH 48 0
BBX 41 66 3 -2
BITMAP
007FE0000000
003FF0000000
001FF0000000
000FF8000000
0007F8000000
0003FC000000
0001FE000000
0000FE000000
00007F000000
00003F800000
00001F800000
00000FC00000
000007C00000
000000000000
000000000000
000000000000
000000000000
000000000000
0000FFC00000
0007FFF80000
001FFFFE0000
003FFFFF8000
00FFFFFFC000
01FFFFFFE000
03FFFFFFF000
07FF003FF800
07FC000FFC00
0FF80007FC00
0FF00003FE00
1FE00001FE00
1FC00000FF00
3FC00000FF00
3F800000FF00
3F8000007F00
7F8000007F80
7F8000007F80
7F0000007F80
7F0000007F80
7FFFFFFFFF80
7FFFFFFFFF80
7FFFFFFFFF80
FFFFFFFFFF80
FFFFFFFFFF80
FFFFFFFFFF80
7F0000000000
7F0000000000
7F0000000000
7F0000000000
7F0000000000
7F8000000000
7F8000007F00
3F8000007F00
3FC00000FF00
3FC00000FE00
1FE00001FE00
1FF00003FE00
0FF80007FC00
0FFC000FFC00
07FF003FF800
03FFFFFFF000
01FFFFFFE000
00FFFFFFC000
007FFFFF8000
001FFFFE0000
0007FFF80000
0000FFC00000
ENDCHAR
STARTCHAR 00E9
ENCODING 233
SWIDTH 557 0
DWIDTH 48 0
BBX 41 66 3 -2
BITMAP
000001FF8000
000001FF0000
000003FE0000
000007FC0000
000007F80000
00000FF00000
00001FE00000
00001FC00000
00003F800000
00003F000000
00007E000000
0000FC000000
0000F8000000
000000000000
000000000000
000000000000
000000000000
000000000000
0000FFC00000
0007FFF80000
001FFFFE0000
003FFFFF8000
00FFFFFFC000
01FFFFFFE000
03FFFFFFF000
07FF003FF800
07FC000FFC00
0FF80007FC00
0FF00003FE00
1FE00001FE00
1FC00000FF00
3FC00000FF00
3F800000FF00
3F8000007F00
7F8000007F80
7F8000007F80
7F0000007F80
7F0000007F80
7FFFFFFFFF80
7FFFFFFFFF80
7FFFFFFFFF80
FFFFFFFFFF80
FFFFFFFFFF80
FFFFFFFFFF80
7F0000000000
7F0000000000
7F0000000000
7F0000000000
7F0000000000
7F8000000000
7F8000007F00
3F8000007F00
3FC00000FF00
3FC00000FE00
1FE00001FE00
1FF00003FE00
0FF80007FC00
0FFC000FFC00
07FF003FF800
03FFFFFFF000
01FFFFFFE000
00FFFFFFC000
007FFFFF8000
001FFFFE0000
0007FFF80000
0000FFC00000
ENDCHAR
STARTCHAR 00EA
ENCODING 234
SWIDTH 557 0
DWIDTH 48 0
BBX 41 66 3 -2
BITMAP
00007FC00000
00007FE00000
0000FFE00000
0001FFF00000
0001FFF80000
0003FBF80000
0003F1FC0000
0007E0FC0000
000FE07E0000
000FC07F0000
001F803F0000
003F001F8000
003F000F8000
000000004000
000000000000
000000000000
000000000000
000000000000
0000FFC00000
0007FFF80000
001FFFFE0000
003FFFFF8000
00FFFFFFC000
01FFFFFFE000
03FFFFFFF000
07FF003FF800
07FC000FFC00
0FF80007FC00
0FF00003FE00
1FE00001FE00
1FC00000FF00
3FC00000FF00
3F800000FF00
3F8000007F00
7F8000007F80
7F8000007F80
7F0000007F80
7F0000007F80
7FFFFFFFFF80
7FFFFFFFFF80
7FFFFFFFFF80
FFFFFFFFFF80
FFFFFFFFFF80
FFFFFFFFFF80
7F0000000000
7F0000000000
7F0000000000
7F0000000000
7F0000000000
7F8000000000
7F8000007F00
3F8000007F00
3FC00000FF00
3FC00000FE00
1FE00001FE00
1FF00003FE00
0FF80007FC00
0FFC000FFC00
07FF003FF800
03FFFFFFF000
01FFFFFFE000
00FFFFFFC000
007FFFFF8000
001FFFFE0000
0007FFF80000
0000FFC00000
ENDCHAR
STARTCHAR 00EB
ENCODING 235
SWIDTH 557 0
DWIDTH 48 0
BBX 41 64 3 -2
BITMAP
003FE0FF8000
003FE0FF8000
003FE0FF8000
003FE0FF8000
003FE0FF8000
003FE0FF8000
003FE0FF8000
003FE0FF8000
003FE0FF8000
000000000000
000000000000
000000000000
000000000000
000000000000
000000000000
000000000000
0000FFC00000
0007FFF80000
001FFFFE0000
003FFFFF8000
00FFFFFFC000
01FFFFFFE000
03FFFFFFF000
07FF003FF800
07FC000FFC00
0FF80007FC00
0FF00003FE00
1FE00001FE00
1FC00000FF00
3FC00000FF00
3F800000FF00
3F8000007F00
7F8000007F80
7F8000007F80
7F0000007F80
7F0000007F80
7FFFFFFFFF80
7FFFFFFFFF80
7FFFFFFFFF80
FFFFFFFFFF80
FFFFFFFFFF80
FFFFFFFFFF80
7F0000000000
7F0000000000
7F0000000000
7F0000000000
7F0000000000
7F8000000000
7F8000007F00
3F8000007F00
3FC00000FF00
3FC00000FE00
1FE00001FE00
1FF00003FE00
0FF80007FC00
0FFC000FFC00
07FF003FF800
03FFFFFFF000
01FFFFFFE000
00FFFFFFC000
007FFFFF8000
001FFFFE0000
0007FFF80000
0000FFC00000
ENDCHAR
STARTCHAR 00EC
ENCODING 236
SWIDTH 278 0
DWIDTH 24 0
BBX 17 64 0 0
BITMAP
FFC000
7FC000
3FE000
1FF000
0FF000
07F800
03F800
01FC00
00FE00
007E00
003F00
001F80
000F80
000000
000000
000000
000000
000000
000000
00FE00
00FE00
00FE00
00FE00
00FE00
00FE00
00FE00
00FE00
00FE00
00FE00
00FE00
00FE00
00FE00
00FE00
00FE00
00FE00
00FE00
00FE00
00FE00
00FE00
00FE00
00FE00
00FE00
00FE00
00FE00
00FE00
00FE00
00FE00
00FE00
00FE00
00FE00
00FE00
00FE00
00FE00
00FE00
00FE00
00FE00
00FE00
00FE00
00FE00
00FE00
00FE00
00FE00
00FE00
00FE00
ENDCHAR
STARTCHAR 00ED
ENCODING 237
SWIDTH 278 0
DWIDTH 24 0
BBX 17 64 6 0
BITMAP
00FF80
01FF00
03FE00
03FC00
07F800
0FF000
0FE000
1FC000
3F8000
3F0000
7E0000
7C0000
F80000
000000
000000
000000
000000
000000
000000
3F8000
3F8000
3F8000
3F8000
3F8000
3F8000
3F8000
3F8000
3F8000
3F8000
3F8000
3F8000
3F8000
3F8000
3F8000
3F8000
3F8000
3F8000
3F8000
3F8000
3F8000
3F8000
3F8000
3F8000
3F8000
3F8000
3F8000
3F8000
3F8000
3F8000
3F8000
3F8000
3F8000
3F8000
3F8000
3F8000
3F8000
3F8000
3F8000
3F8000
3F8000
3F8000
3F8000
3F8000
3F8000
ENDCHAR
STARTCHAR 00EE
ENCODING 238
SWIDTH 278 0
DWIDTH 24 0
BBX 24 64 0 0
BITMAP
01FF00
01FF80
03FF80
07FFC0
07FFE0
0FEFE0
0FC7F0
1F83F8
3F81F8
3F00FC
7E00FC
FC007E
F8003F
000000
000000
000000
000000
000000
000000
00FE00
00FE00
00FE00
00FE00
00FE00
00FE00
00FE00
00FE00
00FE00
00FE00
00FE00
00FE00
00FE00
00FE00
00FE00
00FE00
00FE00
00FE00
00FE00
00FE00
00FE00
00FE00
00FE00
00FE00
00FE00
00FE00
00FE00
00FE00
00FE00
00FE00
00FE00
00FE00
00FE00
00FE00
00FE00
00FE00
00FE00
00FE00
00FE00
00FE00
00FE00
00FE00
00FE00
00FE00
00FE00
ENDCHAR
STARTCHAR 00EF
ENCODING 239
SWIDTH 278 0
DWIDTH 24 0
BBX 23 61 0 0
BITMAP
FF83FE
FF83FE
FF83FE
FF83FE
FF83FE
FF83FE
FF83FE
FF83FE
FF83FE
000000
000000
000000
000000
000000
000000
000000
00FE00
00FE00
00FE00
00FE00
00FE00
00FE00
00FE00
00FE00
00FE00
00FE00
00FE00
00FE00
00FE00
00FE00
00FE00
00FE00
00FE00
00FE00
00FE00
00FE00
00FE00
00FE00
00FE00
00FE00
00FE00
00FE00
00FE00
00FE00
00FE00
00FE00
00FE00
00FE00
00FE00
00FE00
00FE00
00FE00
00FE00
00FE00
00FE00
00FE00
00FE00
00FE00
00FE00
00FE00
00FE00
ENDCHAR
STARTCHAR 00F0
ENCODING 240
SWIDTH 557 0
DWIDTH 48 0
BBX 41 66 3 -2
BITMAP
008000000000
01E000000000
03F800600000
07FE01F00000
07FF07F80000
01FFFFF80000
007FFFE00000
003FFF000000
000FFC000000
003FFE000000
00FFFF800000
07FFFFC00000
07FC7FE00000
03E03FF00000
01801FF80000
000007FC0000
000003FE0000
000001FF0000
0001FCFF8000
000FFFFF8000
003FFFFFC000
00FFFFFFE000
01FFFFFFE000
03FFFFFFF000
07FFF7FFF800
0FFE007FF800
0FFC001FFC00
1FF00007FC00
1FF00007FE00
3FE00003FE00
3FC00001FE00
3FC00001FF00
7F800000FF00
7F800000FF00
7F800000FF00
7F0000007F00
FF0000007F80
FF0000007F80
FF0000007F80
FF0000007F80
FF0000007F80
FF0000007F80
FF0000007F80
FF0000007F80
FF0000007F80
FF0000007F80
FF0000007F80
FF0000007F80
7F0000007F00
7F800000FF00
7F800000FF00
7F800000FF00
3FC00001FE00
3FC00001FE00
3FE00003FE00
1FF00007FC00
1FF8000FFC00
0FFC001FF800
0FFF007FF800
07FFFFFFF000
03FFFFFFE000
01FFFFFFC000
00FFFFFF8000
003FFFFE0000
000FFFF80000
0001FF800000
ENDCHAR
STARTCHAR 00F1
ENCODING 241
SWIDTH 557 0
DWIDTH 48 0
BBX 36 62 6 0
BITMAP
007E003E00
00FF803E00
01FFF07E00
03FFFFFE00
03FFFFFC00
07FFFFFC00
07E1FFF800
07C03FF000
07C007C000
0000000000
0000000000
0000000000
0000000000
0000000000
0000000000
0000000000
0000FFC000
FE03FFF800
FE0FFFFE00
FE1FFFFF00
FE3FFFFF80
FE7FFFFFC0
FEFF83FFE0
FFFC007FE0
FFF8003FE0
FFE0001FF0
FFE0000FF0
FFC0000FF0
FF80000FF0
FF800007F0
FF000007F0
FF000007F0
FF000007F0
FF000007F0
FE000007F0
FE000007F0
FE000007F0
FE000007F0
FE000007F0
FE000007F0
FE000007F0
FE000007F0
FE000007F0
FE000007F0
FE000007F0
FE000007F0
FE000007F0
FE000007F0
FE000007F0
FE000007F0
FE000007F0
FE000007F0
FE000007F0
FE000007F0
FE000007F0
FE000007F0
FE000007F0
FE000007F0
FE000007F0
FE000007F0
FE000007F0
FE000007F0
ENDCHAR
STARTCHAR 00F2
ENCODING 242
SWIDTH 557 0
DWIDTH 48 0
BBX 41 66 3 -2
BITMAP
007FC0000000
003FE0000000
001FF0000000
000FF0000000
0007F8000000
0003FC000000
0001FC000000
0000FE000000
00007E000000
00003F000000
00001F800000
00001F800000
00000FC00000
000000000000
000000000000
000000000000
000000000000
000000000000
0000FFC00000
000FFFF80000
003FFFFE0000
007FFFFF8000
01FFFFFFC000
03FFFFFFE000
07FFFFFFF000
07FF007FF800
0FFC001FF800
1FF8000FFC00
1FF00007FC00
3FE00003FE00
3FC00001FE00
3FC00001FE00
7F800000FF00
7F800000FF00
7F800000FF00
7F0000007F00
7F0000007F80
FF0000007F80
FF0000007F80
FF0000007F80
FF0000007F80
FF0000007F80
FF0000007F80
FF0000007F80
FF0000007F80
FF0000007F80
FF0000007F80
FF0000007F80
7F0000007F00
7F8000007F00
7F800000FF00
7F800000FF00
3FC00001FE00
3FC00001FE00
3FE00003FE00
1FF00007FC00
1FF8000FFC00
0FFC001FF800
07FF007FF000
07FFFFFFF000
03FFFFFFE000
01FFFFFFC000
007FFFFF0000
003FFFFE0000
000FFFF80000
0001FF800000
ENDCHAR
STARTCHAR 00F3
ENCODING 243
SWIDTH 557 0
DWIDTH 48 0
BBX 41 66 3 -2
BITMAP
000003FF0000
000003FE0000
000007FC0000
00000FF80000
00000FF00000
00001FE00000
00001FC00000
00003F800000
00007F000000
00007E000000
0000FC000000
0001F8000000
0001F0000000
000000000000
000000000000
000000000000
000000000000
000000000000
0000FFC00000
000FFFF80000
003FFFFE0000
007FFFFF8000
01FFFFFFC000
03FFFFFFE000
07FFFFFFF000
07FF007FF800
0FFC001FF800
1FF8000FFC00
1FF00007FC00
3FE00003FE00
3FC00001FE00
3FC00001FE00
7F800000FF00
7F800000FF00
7F800000FF00
7F0000007F00
7F0000007F80
FF0000007F80
FF0000007F80
FF0000007F80
FF0000007F80
FF0000007F80
FF0000007F80
FF0000007F80
FF0000007F80
FF0000007F80
FF0000007F80
FF0000007F80
7F0000007F00
7F8000007F00
7F800000FF00
7F800000FF00
3FC00001FE00
3FC00001FE00
3FE00003FE00
1FF00007FC00
1FF8000FFC00
0FFC001FF800
07FF007FF000
07FFFFFFF000
03FFFFFFE000
01FFFFFFC000
007FFFFF0000
003FFFFE0000
000FFFF80000
0001FF800000
ENDCHAR
STARTCHAR 00F4
ENCODING 244
SWIDTH 557 0
DWIDTH 48 0
BBX 41 66 3 -2
BITMAP
0000FF800000
0000FFC00000
0001FFC00000
0003FFE00000
0003FFE00000
0007F7F00000
000FE3F80000
000FC1F80000
001FC1FC0000
001F80FE0000
003F007E0000
007E003F0000
007C001F0000
000000000000
000000000000
000000000000
000000000000
000000000000
0000FFC00000
000FFFF80000
003FFFFE0000
007FFFFF8000
01FFFFFFC000
03FFFFFFE000
07FFFFFFF000
07FF007FF800
0FFC001FF800
1FF8000FFC00
1FF00007FC00
3FE00003FE00
3FC00001FE00
3FC00001FE00
7F800000FF00
7F800000FF00
7F800000FF00
7F0000007F00
7F0000007F80
FF0000007F80
FF0000007F80
FF0000007F80
FF0000007F80
FF0000007F80
FF0000007F80
FF0000007F80
FF0000007F80
FF0000007F80
FF0000007F80
FF0000007F80
7F0000007F00
7F8000007F00
7F800000FF00
7F800000FF00
3FC00001FE00
3FC00001FE00
3FE00003FE00
1FF00007FC00
1FF8000FFC00
0FFC001FF800
07FF007FF000
07FFFFFFF000
03FFFFFFE000
01FFFFFFC000
007FFFFF0000
003FFFFE0000
000FFFF80000
0001FF800000
ENDCHAR
STARTCHAR 00F5
ENCODING 245
SWIDTH 557 0
DWIDTH 48 0
BBX 41 64 3 -2
BITMAP
000FC007C000
001FF007C000
003FFE0FC000
007FFFFFC000
007FFFFF8000
00FFFFFF8000
00F83FFF0000
00F807FE0000
01F000F80000
000000000000
000000000000
000000000000
000000000000
000000000000
000000000000
000000000000
0000FFC00000
000FFFF80000
003FFFFE0000
007FFFFF8000
01FFFFFFC000
03FFFFFFE000
07FFFFFFF000
07FF007FF800
0FFC001FF800
1FF8000FFC00
1FF00007FC00
3FE00003FE00
3FC00001FE00
3FC00001FE00
7F800000FF00
7F800000FF00
7F800000FF00
7F0000007F00
7F0000007F80
FF0000007F80
FF0000007F80
FF0000007F80
FF0000007F80
FF0000007F80
FF0000007F80
FF0000007F80
FF0000007F80
FF0000007F80
FF0000007F80
FF0000007F80
7F0000007F00
7F8000007F00
7F800000FF00
7F800000FF00
3FC00001FE00
3FC00001FE00
3FE00003FE00
1FF00007FC00
1FF8000FFC00
0FFC001FF800
07FF007FF000
07FFFFFFF000
03FFFFFFE000
01FFFFFFC000
007FFFFF0000
003FFFFE0000
000FFFF80000
0001FF800000
ENDCHAR
STARTCHAR 00F6
ENCODING 246
SWIDTH 557 0
DWIDTH 48 0
BBX 41 64 3 -2
BITMAP
007FC1FF0000
007FC1FF0000
007FC1FF0000
007FC1FF0000
007FC1FF0000
007FC1FF0000
007FC1FF0000
007FC1FF0000
007FC1FF0000
000000000000
000000000000
000000000000
000000000000
000000000000
000000000000
000000000000
0000FFC00000
000FFFF80000
003FFFFE0000
007FFFFF8000
01FFFFFFC000
03FFFFFFE000
07FFFFFFF000
07FF007FF800
0FFC001FF800
1FF8000FFC00
1FF00007FC00
3FE00003FE00
3FC00001FE00
3FC00001FE00
7F800000FF00
7F800000FF00
7F800000FF00
7F0000007F00
7F0000007F80
FF0000007F80
FF0000007F80
FF0000007F80
FF0000007F80
FF0000007F80
FF0000007F80
FF0000007F80
FF0000007F80
FF0000007F80
FF0000007F80
FF0000007F80
7F0000007F00
7F8000007F00
7F800000FF00
7F800000FF00
3FC00001FE00
3FC00001FE00
3FE00003FE00
1FF00007FC00
1FF8000FFC00
0FFC001FF800
07FF007FF000
07FFFFFFF000
03FFFFFFE000
01FFFFFFC000
007FFFFF0000
003FFFFE0000
000FFFF80000
0001FF800000
ENDCHAR
STARTCHAR 00F7
ENCODING 247
SWIDTH 580 0
DWIDTH 50 0
BBX 42 41 4 0
BITMAP
00007FC00000
00007FC00000
00007FC00000
00007FC00000
00007FC00000
00007FC00000
00007FC00000
00007FC00000
00007FC00000
000000000000
000000000000
000000000000
000000000000
000000000000
000000000000
000000000000
000000000000
000000000000
FFFFFFFFFFC0
FFFFFFFFFFC0
FFFFFFFFFFC0
FFFFFFFFFFC0
FFFFFFFFFFC0
FFFFFFFFFFC0
000000000000
000000000000
000000000000
000000000000
000000000000
000000000000
000000000000
000000000000
00007FC00000
00007FC00000
00007FC00000
00007FC00000
00007FC00000
00007FC00000
00007FC00000
00007FC00000
00007FC00000
ENDCHAR
STARTCHAR 00F8
ENCODING 248
SWIDTH 615 0
DWIDTH 53 0
BBX 43 48 2 -3
BITMAP
00007FE00080
0007FFFC01E0
001FFFFF01E0
003FFFFF83E0
00FFFFFFE7C0
01FFFFFFFF80
03FFFFFFFF00
03FF803FFE00
07FE000FFC00
0FFC0007FE00
0FF80003FE00
1FF00001FF00
1FE00003FF00
1FE00007FF00
3FC0000FFF80
3FC0001F7F80
3FC0003E3F80
3F80007C3F80
3F8000F83FC0
7F8001F03FC0
7F8003E03FC0
7F8003E03FC0
7F8007C03FC0
7F800F803FC0
7F801F003FC0
7F803E003FC0
7F807C003FC0
7F80F8003FC0
7F81F0003FC0
7F83E0003FC0
3F83C0003F80
3FC7C0003F80
3FCF80007F80
3FDF00007F80
1FFE0000FF00
1FFC0000FF00
1FF80001FF00
0FF80003FE00
0FFC0007FE00
07FE000FFC00
07FF803FF800
0FFFFFFFF800
1FFFFFFFF000
3EFFFFFFE000
7C3FFFFF8000
F81FFFFF0000
F007FFFC0000
60007FC00000
ENDCHAR
STARTCHAR 00F9
ENCODING 249
SWIDTH 557 0
DWIDTH 48 0
BBX 36 66 6 -2
BITMAP
03FE000000
01FF000000
00FF800000
007F800000
003FC00000
001FC00000
000FE00000
0007F00000
0003F00000
0001F80000
0000FC0000
00007C0000
00003E0000
0000000000
0000000000
0000000000
0000000000
0000000000
0000000000
FE00000FF0
FE00000FF0
FE00000FF0
FE00000FF0
FE00000FF0
FE00000FF0
FE00000FF0
FE00000FF0
FE00000FF0
FE00000FF0
FE00000FF0
FE00000FF0
FE00000FF0
FE00000FF0
FE00000FF0
FE00000FF0
FE00000FF0
FE00000FF0
FE00000FF0
FE00000FF0
FE00000FF0
FE00000FF0
FE00000FF0
FE00000FF0
FE00000FF0
FE00000FF0
FE00000FF0
FE00000FF0
FE00000FF0
FE00000FF0
FE00000FF0
FE00000FF0
FE00001FF0
FE00001FF0
FE00003FF0
FE00003FF0
FF00007FF0
FF8000FFF0
FFC001FFF0
7FE007F7F0
7FFC3FF7F0
3FFFFFE7F0
3FFFFFC7F0
1FFFFF87F0
07FFFE07F0
03FFFC0000
007FE00000
ENDCHAR
STARTCHAR 00FA
ENCODING 250
SWIDTH 557 0
DWIDTH 48 0
BBX 36 66 6 -2
BITMAP
00001FF800
00001FF000
00003FE000
00007FC000
00007F8000
0000FF0000
0001FE0000
0001FC0000
0003F80000
0007F00000
0007E00000
000FC00000
001F800000
0000000000
0000000000
0000000000
0000000000
0000000000
0000000000
FE00000FF0
FE00000FF0
FE00000FF0
FE00000FF0
FE00000FF0
FE00000FF0
FE00000FF0
FE00000FF0
FE00000FF0
FE00000FF0
FE00000FF0
FE00000FF0
FE00000FF0
FE00000FF0
FE00000FF0
FE00000FF0
FE00000FF0
FE00000FF0
FE00000FF0
FE00000FF0
FE00000FF0
FE00000FF0
FE00000FF0
FE00000FF0
FE00000FF0
FE00000FF0
FE00000FF0
FE00000FF0
FE00000FF0
FE00000FF0
FE00000FF0
FE00000FF0
FE00001FF0
FE00001FF0
FE00003FF0
FE00003FF0
FF00007FF0
FF8000FFF0
FFC001FFF0
7FE007F7F0
7FFC3FF7F0
3FFFFFE7F0
3FFFFFC7F0
1FFFFF87F0
07FFFE07F0
03FFFC0000
007FE00000
ENDCHAR
STARTCHAR 00FB
ENCODING 251
SWIDTH 557 0
DWIDTH 48 0
BBX 36 66 6 -2
BITMAP
0007FC0000
0007FE0000
000FFE0000
001FFF0000
001FFF8000
003FBF8000
007F1FC000
007E0FE000
00FC07E000
01FC03F000
01F803F000
03F001F800
03E000FC00
0000000000
0000000000
0000000000
0000000000
0000000000
0000000000
FE00000FF0
FE00000FF0
FE00000FF0
FE00000FF0
FE00000FF0
FE00000FF0
FE00000FF0
FE00000FF0
FE00000FF0
FE00000FF0
FE00000FF0
FE00000FF0
FE00000FF0
FE00000FF0
FE00000FF0
FE00000FF0
FE00000FF0
FE00000FF0
FE00000FF0
FE00000FF0
FE00000FF0
FE00000FF0
FE00000FF0
FE00000FF0
FE00000FF0
FE00000FF0
FE00000FF0
FE00000FF0
FE00000FF0
FE00000FF0
FE00000FF0
FE00000FF0
FE00001FF0
FE00001FF0
FE00003FF0
FE00003FF0
FF00007FF0
FF8000FFF0
FFC001FFF0
7FE007F7F0
7FFC3FF7F0
3FFFFFE7F0
3FFFFFC7F0
1FFFFF87F0
07FFFE07F0
03FFFC0000
007FE00000
ENDCHAR
STARTCHAR 00FC
ENCODING 252
SWIDTH 557 0
DWIDTH 48 0
BBX 36 64 6 -2
BITMAP
03FE0FF800
03FE0FF800
03FE0FF800
03FE0FF800
03FE0FF800
03FE0FF800
03FE0FF800
03FE0FF800
03FE0FF800
0000000000
0000000000
0000000000
0000000000
0000000000
0000000000
0000000000
0000000000
FE00000FF0
FE00000FF0
FE00000FF0
FE00000FF0
FE00000FF0
FE00000FF0
FE00000FF0
FE00000FF0
FE00000FF0
FE00000FF0
FE00000FF0
FE00000FF0
FE00000FF0
FE00000FF0
FE00000FF0
FE00000FF0
FE00000FF0
FE00000FF0
FE00000FF0
FE00000FF0
FE00000FF0
FE00000FF0
FE00000FF0
FE00000FF0
FE00000FF0
FE00000FF0
FE00000FF0
FE00000FF0
FE00000FF0
FE00000FF0
FE00000FF0
FE00000FF0
FE00001FF0
FE00001FF0
FE00003FF0
FE00003FF0
FF00007FF0
FF8000FFF0
FFC001FFF0
7FE007F7F0
7FFC3FF7F0
3FFFFFE7F0
3FFFFFC7F0
1FFFFF87F0
07FFFE07F0
03FFFC0000
007FE00000
ENDCHAR
STARTCHAR 00FD
ENCODING 253
SWIDTH 499 0
DWIDTH 43 0
BBX 39 83 2 -19
BITMAP
000007FE00
00000FFC00
00000FF800
00001FF000
00003FE000
00003FC000
00007F8000
00007F0000
0000FE0000
0001FC0000
0001F80000
0003F00000
0007E00000
0000000000
0000000000
0000000000
0000000000
0000000000
0000000000
FF000001FE
FF000001FE
7F000001FC
7F800003FC
7F800003FC
3F800007F8
3FC00007F8
3FC00007F0
1FC0000FF0
1FE0000FF0
1FE0000FE0
0FE0001FE0
0FE0001FE0
0FF0001FC0
07F0003FC0
07F0003F80
07F8003F80
03F8007F80
03F8007F00
03FC00FF00
01FC00FF00
01FC00FE00
01FE01FE00
00FE01FE00
00FE01FC00
00FF03FC00
007F03F800
007F03F800
007F87F800
003F87F000
003F87F000
003FCFF000
001FCFE000
001FCFE000
001FFFE000
000FFFC000
000FFFC000
000FFF8000
0007FF8000
0007FF8000
0007FF0000
0003FF0000
0003FF0000
0003FE0000
0001FE0000
0001FC0000
0001FC0000
0003FC0000
0003F80000
0007F80000
0007F80000
0007F00000
000FF00000
000FF00000
001FE00000
001FE00000
007FC00000
1FFFC00000
1FFF800000
1FFF800000
1FFF000000
1FFE000000
1FF8000000
0FE0000000
ENDCHAR
STARTCHAR 00FE
ENCODING 254
SWIDTH 557 0
DWIDTH 48 0
BBX 40 80 5 -19
BITMAP
FE00000000
FE00000000
FE00000000
FE00000000
FE00000000
FE00000000
FE00000000
FE00000000
FE00000000
FE00000000
FE00000000
FE00000000
FE00000000
FE00000000
FE00000000
FE00FF8000
FE07FFF000
FE0FFFFC00
FE3FFFFF00
FE7FFFFF80
FEFFFFFFC0
FFFFFFFFE0
FFFE00FFE0
FFF8003FF0
FFF0001FF8
FFE0000FF8
FFC00007FC
FFC00003FC
FF800003FC
FF800001FE
FF000001FE
FF000001FE
FF000000FE
FE000000FF
FE000000FF
FE000000FF
FE000000FF
FE000000FF
FE000000FF
FE000000FF
FE000000FF
FE000000FF
FE000000FF
FE000000FF
FE000000FF
FF000000FE
FF000001FE
FF000001FE
FF800001FE
FF800003FC
FFC00003FC
FFC00007FC
FFE0000FF8
FFF0001FF8
FFF8003FF0
FFFE00FFE0
FFFFFFFFE0
FEFFFFFFC0
FE7FFFFF80
FE3FFFFF00
FE1FFFFC00
FE07FFF000
FE00FF8000
FE00000000
FE00000000
FE00000000
FE00000000
FE00000000
FE00000000
FE00000000
FE00000000
FE00000000
FE00000000
FE00000000
FE00000000
FE00000000
FE00000000
FE00000000
FE00000000
FE00000000
ENDCHAR
STARTCHAR 00FF
ENCODING 255
SWIDTH 499 0
DWIDTH 43 0
BBX 39 81 2 -19
BITMAP
00FF83FE00
00FF83FE00
00FF83FE00
00FF83FE00
00FF83FE00
00FF83FE00
00FF83FE00
00FF83FE00
00FF83FE00
0000000000
0000000000
0000000000
0000000000
0000000000
0000000000
0000000000
0000000000
FF000001FE
FF000001FE
7F000001FC
7F800003FC
7F800003FC
3F800007F8
3FC00007F8
3FC00007F0
1FC0000FF0
1FE0000FF0
1FE0000FE0
0FE0001FE0
0FE0001FE0
0FF0001FC0
07F0003FC0
07F0003F80
07F8003F80
03F8007F80
03F8007F00
03FC00FF00
01FC00FF00
01FC00FE00
01FE01FE00
00FE01FE00
00FE01FC00
00FF03FC00
007F03F800
007F03F800
007F87F800
003F87F000
003F87F000
003FCFF000
001FCFE000
001FCFE000
001FFFE000
000FFFC000
000FFFC000
000FFF8000
0007FF8000
0007FF8000
0007FF0000
0003FF0000
0003FF0000
0003FE0000
0001FE0000
0001FC0000
0001FC0000
0003FC0000
0003F80000
0007F80000
0007F80000
0007F00000
000FF00000
000FF00000
001FE00000
001FE00000
007FC00000
1FFFC00000
1FFF800000
1FFF800000
1FFF000000
1FFE000000
1FF8000000
0FE0000000
ENDCHAR
STARTCHAR 0100
ENCODING 256
SWIDTH 661 0
DWIDTH 57 0
BBX 54 78 2 0
BITMAP
0001FFFFFE0000
0001FFFFFE0000
0001FFFFFE0000
0001FFFFFE0000
0001FFFFFE0000
0001FFFFFE0000
00000000000000
00000000000000
00000000000000
00000000000000
00000000000000
00000000000000
00000000000000
00000000000000
00000000000000
000003FF000000
000007FF800000
000007FF800000
000007FF800000
00000FFFC00000
00000FFFC00000
00000FFFC00000
00001FFFE00000
00001FFFE00000
00003FFFF00000
00003FCFF00000
00003FCFF00000
00007FCFF80000
00007F87F80000
00007F87F80000
0000FF07FC0000
0000FF03FC0000
0000FF03FC0000
0001FE03FE0000
0001FE01FE0000
0001FE01FE0000
0003FC01FF0000
0003FC00FF0000
0007FC00FF0000
0007F800FF8000
0007F8007F8000
000FF0007F8000
000FF0007FC000
000FF0003FC000
001FE0003FE000
001FE0003FE000
001FE0001FE000
003FC0001FF000
003FC0001FF000
003FC0000FF000
007F80000FF800
007F80000FF800
007FFFFFFFF800
00FFFFFFFFFC00
00FFFFFFFFFC00
01FFFFFFFFFC00
01FFFFFFFFFE00
01FFFFFFFFFE00
03FFFFFFFFFE00
03FC000001FF00
03FC000001FF00
07FC000000FF00
07F8000000FF80
07F8000000FF80
0FF80000007FC0
0FF00000007FC0
0FF00000007FC0
1FF00000003FE0
1FE00000003FE0
3FE00000003FE0
3FE00000001FF0
3FC00000001FF0
7FC00000001FF0
7FC00000000FF8
7F800000000FF8
FF800000000FF8
FF8000000007FC
FF0000000007FC
ENDCHAR
STARTCHAR 0101
ENCODING 257
SWIDTH 557 0
DWIDTH 48 0
BBX 42 62 4 -2
BITMAP
00FFFFFE0000
00FFFFFE0000
00FFFFFE0000
00FFFFFE0000
00FFFFFE0000
00FFFFFE0000
000000000000
000000000000
000000000000
000000000000
000000000000
000000000000
000000000000
000000000000
0003FFC00000
001FFFF80000
00FFFFFE0000
01FFFFFF8000
03FFFFFFC000
07FFFFFFE000
0FFFFFFFE000
1FFC007FF000
1FF0001FF000
3FE0000FF000
3FC00007F800
3FC00007F800
3F800007F800
3F800007F800
3F800007F800
00000007F800
00000007F800
00000007F800
0000000FF800
0000007FF800
00001FFFF800
000FFFFFF800
00FFFFFFF800
03FFFFFFF800
07FFFFF7F800
1FFFFF07F800
3FFF8007F800
3FF80007F800
7FE00007F800
7F800007F800
FF000007F800
FF000007F800
FE000007F800
FE000007F800
FE000007F800
FE000007F800
FE00000FF800
FF00001FF800
FF00003FF800
FF8000FFF800
7FE003FFF800
7FFC1FFFFC00
3FFFFFF3FFC0
1FFFFFE3FFC0
0FFFFFC1FFC0
07FFFF01FFC0
01FFFC00FFC0
003FE0003F80
ENDCHAR
STARTCHAR 0102
ENCODING 258
SWIDTH 661 0
DWIDTH 57 0
BBX 54 81 2 0
BITMAP
0003E0001F0000
0003E0001F0000
0003F0003F0000
0003F0003E0000
0003F8007E0000
0001FE01FE0000
0001FFFFFC0000
0000FFFFFC0000
00007FFFF80000
00003FFFF00000
00000FFFC00000
000003FE000000
00000000000000
00000000000000
00000000000000
00000000000000
00000000000000
00000000000000
000003FF000000
000007FF800000
000007FF800000
000007FF800000
00000FFFC00000
00000FFFC00000
00000FFFC00000
00001FFFE00000
00001FFFE00000
00003FFFF00000
00003FCFF00000
00003FCFF00000
00007FCFF80000
00007F87F80000
00007F87F80000
0000FF07FC0000
0000FF03FC0000
0000FF03FC0000
0001FE03FE0000
0001FE01FE0000
0001FE01FE0000
0003FC01FF0000
0003FC00FF0000
0007FC00FF0000
0007F800FF8000
0007F8007F8000
000FF0007F8000
000FF0007FC000
000FF0003FC000
001FE0003FE000
001FE0003FE000
001FE0001FE000
003FC0001FF000
003FC0001FF000
003FC0000FF000
007F80000FF800
007F80000FF800
007FFFFFFFF800
00FFFFFFFFFC00
00FFFFFFFFFC00
01FFFFFFFFFC00
01FFFFFFFFFE00
01FFFFFFFFFE00
03FFFFFFFFFE00
03FC000001FF00
03FC000001FF00
07FC000000FF00
07F8000000FF80
07F8000000FF80
0FF80000007FC0
0FF00000007FC0
0FF00000007FC0
1FF00000003FE0
1FE00000003FE0
3FE00000003FE0
3FE00000001FF0
3FC00000001FF0
7FC00000001FF0
7FC00000000FF8
7F800000000FF8
FF800000000FF8
FF8000000007FC
FF0000000007FC
ENDCHAR
STARTCHAR 0103
ENCODING 259
SWIDTH 557 0
DWIDTH 48 0
BBX 42 65 4 -2
BITMAP
01F0000F8000
01F0001F8000
01F8001F0000
01F8003F0000
01FC007F0000
00FF01FE0000
00FFFFFE0000
007FFFFC0000
003FFFF80000
001FFFF00000
0007FFE00000
0001FF000000
000000000000
000000000000
000000000000
000000000000
000000000000
0003FFC00000
001FFFF80000
00FFFFFE0000
01FFFFFF8000
03FFFFFFC000
07FFFFFFE000
0FFFFFFFE000
1FFC007FF000
1FF0001FF000
3FE0000FF000
3FC00007F800
3FC00007F800
3F800007F800
3F800007F800
3F800007F800
00000007F800
00000007F800
00000007F800
0000000FF800
0000007FF800
00001FFFF800
000FFFFFF800
00FFFFFFF800
03FFFFFFF800
07FFFFF7F800
1FFFFF07F800
3FFF8007F800
3FF80007F800
7FE00007F800
7F800007F800
FF000007F800
FF000007F800
FE000007F800
FE000007F800
FE000007F800
FE000007F800
FE00000FF800
FF00001FF800
FF00003FF800
FF8000FFF800
7FE003FFF800
7FFC1FFFFC00
3FFFFFF3FFC0
1FFFFFE3FFC0
0FFFFFC1FFC0
07FFFF01FFC0
01FFFC00FFC0
003FE0003F80
ENDCHAR
STARTCHAR 0104
ENCODING 260
SWIDTH 661 0
DWIDTH 57 0
BBX 58 81 2 -18
BITMAP
000003FF00000000
000007FF80000000
000007FF80000000
000007FF80000000
00000FFFC0000000
00000FFFC0000000
00000FFFC0000000
00001FFFE0000000
00001FFFE0000000
00003FFFF0000000
00003FCFF0000000
00003FCFF0000000
00007FCFF8000000
00007F87F8000000
00007F87F8000000
0000FF07FC000000
0000FF03FC000000
0000FF03FC000000
0001FE03FE000000
0001FE01FE000000
0001FE01FE000000
0003FC01FF000000
0003FC00FF000000
0007FC00FF000000
0007F800FF800000
0007F8007F800000
000FF0007F800000
000FF0007FC00000
000FF0003FC00000
001FE0003FE00000
001FE0003FE00000
001FE0001FE00000
003FC0001FF00000
003FC0001FF00000
003FC0000FF00000
007F80000FF80000
007F80000FF80000
007FFFFFFFF80000
00FFFFFFFFFC0000
00FFFFFFFFFC0000
01FFFFFFFFFC0000
01FFFFFFFFFE0000
01FFFFFFFFFE0000
03FFFFFFFFFE0000
03FC000001FF0000
03FC000001FF0000
07FC000000FF0000
07F8000000FF8000
07F8000000FF8000
0FF80000007FC000
0FF00000007FC000
0FF00000007FC000
1FF00000003FE000
1FE00000003FE000
3FE00000003FE000
3FE00000001FF000
3FC00000001FF000
7FC00000001FF000
7FC00000000FF800
7F800000000FF800
FF800000000FF800
FF8000000007FC00
FF0000000007FC00
000000000001F800
000000000007E000
00000000000FC000
00000000001F8000
00000000003F0000
00000000007E0000
0000000000FE0000
0000000000FC0000
0000000000FC0000
0000000000FC0000
0000000000FC0000
0000000000FE0000
0000000000FE0000
00000000007F80C0
00000000007FFFC0
00000000001FFFC0
00000000000FFFC0
000000000000FE00
ENDCHAR
STARTCHAR 0105
ENCODING 261
SWIDTH 557 0
DWIDTH 48 0
BBX 47 64 4 -18
BITMAP
0003FFC00000
001FFFF80000
007FFFFF0000
01FFFFFF8000
03FFFFFFC000
07FFFFFFE000
0FFFFFFFE000
1FFC007FF000
1FF0001FF000
1FE0000FF800
3FC00007F800
3FC00007F800
3F800003F800
3F800003F800
3F800003F800
00000003F800
00000007F800
00000007F800
0000000FF800
0000003FF800
00001FFFF800
000FFFFFF800
007FFFFFF800
03FFFFFFF800
07FFFFF7F800
1FFFFF07F800
3FFF8007F800
3FF80007F800
7FE00007F800
7F800007F800
FF000007F800
FF000007F800
FE000007F800
FE000007F800
FE000007F800
FE000007F800
FE00000FF800
FF00001FF800
FF00003FF800
FF8000FFF800
7FE003FFF800
7FFC1FFFFC00
3FFFFFFBFFC0
1FFFFFE3FFC0
0FFFFFC1FFC0
07FFFF01FFC0
01FFFC00FFC0
003FE0003FC0
000000003F00
000000007C00
00000000F800
00000001F800
00000003F000
00000003F000
00000003F000
00000007F000
00000007F000
00000003F000
00000003F800
00000003FE02
00000001FFFE
00000000FFFE
000000003FFE
0000000003F8
ENDCHAR
STARTCHAR 0106
ENCODING 262
SWIDTH 720 0
DWIDTH 62 0
BBX 54 83 4 -2
BITMAP
00000001FF0000
00000003FE0000
00000007FC0000
00000007F80000
0000000FF00000
0000001FE00000
0000001FC00000
0000003F800000
0000007F000000
0000007E000000
000000FC000000
000001F8000000
000001F0000000
00000000000000
00000000000000
00000000000000
00000000000000
000001FFE00000
00001FFFFE0000
0000FFFFFF8000
0003FFFFFFE000
0007FFFFFFF000
001FFFFFFFFC00
003FFFFFFFFE00
007FFF00FFFF00
00FFF0000FFF00
00FFC00003FF80
01FF800000FFC0
03FF0000007FC0
03FE0000003FE0
07FC0000003FE0
0FF80000001FE0
0FF00000001FF0
1FF00000000FF0
1FE00000000FF0
1FE00000000FF8
3FC000000007F8
3FC000000007F8
3FC00000000000
7F800000000000
7F800000000000
7F800000000000
7F800000000000
7F800000000000
7F800000000000
FF000000000000
FF000000000000
FF000000000000
FF000000000000
FF000000000000
FF000000000000
FF000000000000
FF000000000000
FF000000000000
FF000000000000
FF800000000000
7F800000000000
7F800000000000
7F8000000003FC
7F8000000003FC
7FC000000003FC
3FC000000007FC
3FC000000007FC
3FE000000007F8
3FE000000007F8
1FF00000000FF8
1FF00000000FF8
0FF80000001FF0
0FF80000001FF0
07FC0000003FE0
07FE0000007FE0
03FF0000007FC0
01FF800001FFC0
01FFE00003FF80
00FFF8000FFF00
007FFF007FFF00
003FFFFFFFFE00
001FFFFFFFFC00
000FFFFFFFF000
0003FFFFFFE000
0000FFFFFF8000
00003FFFFC0000
000003FFC00000
ENDCHAR
STARTCHAR 0107
ENCODING 263
SWIDTH 499 0
DWIDTH 43 0
BBX 38 66 3 -2
BITMAP
000003FF00
000003FE00
000007FC00
000007F800
00000FF000
00001FE000
00001FC000
00003F8000
00007F0000
00007E0000
0000FC0000
0001F80000
0001F00000
0000000000
0000000000
0000000000
0000000000
0000000000
0001FF8000
000FFFF000
003FFFFC00
007FFFFE00
01FFFFFF80
03FFFFFFC0
07FFFFFFC0
0FFE00FFE0
0FF8003FF0
1FF0001FF0
1FE0000FF0
3FC00007F8
3FC00007F8
7F800003F8
7F800003F8
7F000003FC
7F00000000
FF00000000
FF00000000
FF00000000
FE00000000
FE00000000
FE00000000
FE00000000
FE00000000
FE00000000
FE00000000
FE00000000
FE00000000
FF00000000
FF00000000
FF000001FC
7F000003FC
7F800003FC
7F800003FC
3FC00007F8
3FC00007F8
3FE0000FF8
1FF0001FF0
0FF8003FF0
0FFE007FE0
07FFFFFFC0
03FFFFFF80
01FFFFFF00
00FFFFFE00
003FFFFC00
000FFFF000
0001FF0000
ENDCHAR
STARTCHAR 0108
ENCODING 264
SWIDTH 720 0
DWIDTH 62 0
BBX 54 83 4 -2
BITMAP
000000FF800000
000001FF800000
000003FFC00000
000003FFE00000
000007FFE00000
00000FE7F00000
00000FC3F80000
00001FC1F80000
00001F81FC0000
00003F00FC0000
00007E007E0000
00007C003F0000
0000FC001F0000
00000000000000
00000000000000
00000000000000
00000000000000
000001FFE00000
00001FFFFE0000
0000FFFFFF8000
0003FFFFFFE000
0007FFFFFFF000
001FFFFFFFFC00
003FFFFFFFFE00
007FFF00FFFF00
00FFF0000FFF00
00FFC00003FF80
01FF800000FFC0
03FF0000007FC0
03FE0000003FE0
07FC0000003FE0
0FF80000001FE0
0FF00000001FF0
1FF00000000FF0
1FE00000000FF0
1FE00000000FF8
3FC000000007F8
3FC000000007F8
3FC00000000000
7F800000000000
7F800000000000
7F800000000000
7F800000000000
7F800000000000
7F800000000000
FF000000000000
FF000000000000
FF000000000000
FF000000000000
FF000000000000
FF000000000000
FF000000000000
FF000000000000
FF000000000000
FF000000000000
FF800000000000
7F800000000000
7F800000000000
7F8000000003FC
7F8000000003FC
7FC000000003FC
3FC000000007FC
3FC000000007FC
3FE000000007F8
3FE000000007F8
1FF00000000FF8
1FF00000000FF8
0FF80000001FF0
0FF80000001FF0
07FC0000003FE0
07FE0000007FE0
03FF0000007FC0
01FF800001FFC0
01FFE00003FF80
00FFF8000FFF00
007FFF007FFF00
003FFFFFFFFE00
001FFFFFFFFC00
000FFFFFFFF000
0003FFFFFFE000
0000FFFFFF8000
00003FFFFC0000
000003FFC00000
ENDCHAR
STARTCHAR 0109
ENCODING 265
SWIDTH 499 0
DWIDTH 43 0
BBX 38 66 3 -2
BITMAP
0000FF0000
0001FF8000
0003FFC000
0003FFC000
0007FFE000
0007E7E000
000FE7F000
001FC3F800
001F81F800
003F00FC00
007E007E00
007E007E00
00FC003F00
0000000000
0000000000
0000000000
0000000000
0000000000
0001FF8000
000FFFF000
003FFFFC00
007FFFFE00
01FFFFFF80
03FFFFFFC0
07FFFFFFC0
0FFE00FFE0
0FF8003FF0
1FF0001FF0
1FE0000FF0
3FC00007F8
3FC00007F8
7F800003F8
7F800003F8
7F000003FC
7F00000000
FF00000000
FF00000000
FF00000000
FE00000000
FE00000000
FE00000000
FE00000000
FE00000000
FE00000000
FE00000000
FE00000000
FE00000000
FF00000000
FF00000000
FF000001FC
7F000003FC
7F800003FC
7F800003FC
3FC00007F8
3FC00007F8
3FE0000FF8
1FF0001FF0
0FF8003FF0
0FFE007FE0
07FFFFFFC0
03FFFFFF80
01FFFFFF00
00FFFFFE00
003FFFFC00
000FFFF000
0001FF0000
ENDCHAR
STARTCHAR 010A
ENCODING 266
SWIDTH 720 0
DWIDTH 62 0
BBX 54 81 4 -2
BITMAP
000000FF800000
000000FF800000
000000FF800000
000000FF800000
000000FF800000
000000FF800000
000000FF800000
000000FF800000
000000FF800000
00000000000000
00000000000000
00000000000000
00000000000000
00000000000000
00000000000000
000001FFE00000
00001FFFFE0000
0000FFFFFF8000
0003FFFFFFE000
0007FFFFFFF000
001FFFFFFFFC00
003FFFFFFFFE00
007FFF00FFFF00
00FFF0000FFF00
00FFC00003FF80
01FF800000FFC0
03FF0000007FC0
03FE0000003FE0
07FC0000003FE0
0FF80000001FE0
0FF00000001FF0
1FF00000000FF0
1FE00000000FF0
1FE00000000FF8
3FC000000007F8
3FC000000007F8
3FC00000000000
7F800000000000
7F800000000000
7F800000000000
7F800000000000
7F800000000000
7F800000000000
FF000000000000
FF000000000000
FF000000000000
FF000000000000
FF000000000000
FF000000000000
FF000000000000
FF000000000000
FF000000000000
FF000000000000
FF800000000000
7F800000000000
7F800000000000
7F8000000003FC
7F8000000003FC
7FC000000003FC
3FC000000007FC
3FC000000007FC
3FE000000007F8
3FE000000007F8
1FF00000000FF8
1FF00000000FF8
0FF80000001FF0
0FF80000001FF0
07FC0000003FE0
07FE0000007FE0
03FF0000007FC0
01FF800001FFC0
01FFE00003FF80
00FFF8000FFF00
007FFF007FFF00
003FFFFFFFFE00
001FFFFFFFFC00
000FFFFFFFF000
0003FFFFFFE000
0000FFFFFF8000
00003FFFFC0000
000003FFC00000
ENDCHAR
STARTCHAR 010B
ENCODING 267
SWIDTH 499 0
DWIDTH 43 0
BBX 38 64 3 -2
BITMAP
0001FF0000
0001FF0000
0001FF0000
0001FF0000
0001FF0000
0001FF0000
0001FF0000
0001FF0000
0001FF0000
0000000000
0000000000
0000000000
0000000000
0000000000
0000000000
0000000000
0001FF8000
000FFFF000
003FFFFC00
007FFFFE00
01FFFFFF80
03FFFFFFC0
07FFFFFFC0
0FFE00FFE0
0FF8003FF0
1FF0001FF0
1FE0000FF0
3FC00007F8
3FC00007F8
7F800003F8
7F800003F8
7F000003FC
7F00000000
FF00000000
FF00000000
FF00000000
FE00000000
FE00000000
FE00000000
FE00000000
FE00000000
FE00000000
FE00000000
FE00000000
FE00000000
FF00000000
FF00000000
FF000001FC
7F000003FC
7F800003FC
7F800003FC
3FC00007F8
3FC00007F8
3FE0000FF8
1FF0001FF0
0FF8003FF0
0FFE007FE0
07FFFFFFC0
03FFFFFF80
01FFFFFF00
00FFFFFE00
003FFFFC00
000FFFF000
0001FF0000
ENDCHAR
STARTCHAR 010C
ENCODING 268
SWIDTH 720 0
DWIDTH 62 0
BBX 54 83 4 -2
BITMAP
00007C001F8000
00007E003F0000
00003F007E0000
00001F807E0000
00001FC0FC0000
00000FE1FC0000
000007E3F80000
000007F7F00000
000003FFF00000
000001FFE00000
000001FFC00000
000000FFC00000
0000007F800000
00000000000000
00000000000000
00000000000000
00000000000000
000001FFE00000
00001FFFFE0000
0000FFFFFF8000
0003FFFFFFE000
0007FFFFFFF000
001FFFFFFFFC00
003FFFFFFFFE00
007FFF00FFFF00
00FFF0000FFF00
00FFC00003FF80
01FF800000FFC0
03FF0000007FC0
03FE0000003FE0
07FC0000003FE0
0FF80000001FE0
0FF00000001FF0
1FF00000000FF0
1FE00000000FF0
1FE00000000FF8
3FC000000007F8
3FC000000007F8
3FC00000000000
7F800000000000
7F800000000000
7F800000000000
7F800000000000
7F800000000000
7F800000000000
FF000000000000
FF000000000000
FF000000000000
FF000000000000
FF000000000000
FF000000000000
FF000000000000
FF000000000000
FF000000000000
FF000000000000
FF800000000000
7F800000000000
7F800000000000
7F8000000003FC
7F8000000003FC
7FC000000003FC
3FC000000007FC
3FC000000007FC
3FE000000007F8
3FE000000007F8
1FF00000000FF8
1FF00000000FF8
0FF80000001FF0
0FF80000001FF0
07FC0000003FE0
07FE0000007FE0
03FF0000007FC0
01FF800001FFC0
01FFE00003FF80
00FFF8000FFF00
007FFF007FFF00
003FFFFFFFFE00
001FFFFFFFFC00
000FFFFFFFF000
0003FFFFFFE000
0000FFFFFF8000
00003FFFFC0000
000003FFC00000
ENDCHAR
STARTCHAR 010D
ENCODING 269
SWIDTH 499 0
DWIDTH 43 0
BBX 38 66 3 -2
BITMAP
00F8003F00
00FC007E00
007E007E00
003F00FC00
003F81F800
001F83F800
000FC3F000
000FE7F000
0007FFE000
0007FFC000
0003FFC000
0001FF8000
0001FF0000
0000000000
0000000000
0000000000
0000000000
0000000000
0001FF8000
000FFFF000
003FFFFC00
007FFFFE00
01FFFFFF80
03FFFFFFC0
07FFFFFFC0
0FFE00FFE0
0FF8003FF0
1FF0001FF0
1FE0000FF0
3FC00007F8
3FC00007F8
7F800003F8
7F800003F8
7F000003FC
7F00000000
FF00000000
FF00000000
FF00000000
FE00000000
FE00000000
FE00000000
FE00000000
FE00000000
FE00000000
FE00000000
FE00000000
FE00000000
FF00000000
FF00000000
FF000001FC
7F000003FC
7F800003FC
7F800003FC
3FC00007F8
3FC00007F8
3FE0000FF8
1FF0001FF0
0FF8003FF0
0FFE007FE0
07FFFFFFC0
03FFFFFF80
01FFFFFF00
00FFFFFE00
003FFFFC00
000FFFF000
0001FF0000
ENDCHAR
STARTCHAR 010E
ENCODING 270
SWIDTH 720 0
DWIDTH 62 0
BBX 49 81 8 0
BITMAP
007E001F800000
003F001F000000
003F003F000000
001F807E000000
000FC0FE000000
000FE1FC000000
0007F3F8000000
0003FBF8000000
0003FFF0000000
0001FFE0000000
0000FFE0000000
0000FFC0000000
00007F80000000
00000000000000
00000000000000
00000000000000
00000000000000
00000000000000
FFFFFFF8000000
FFFFFFFF800000
FFFFFFFFE00000
FFFFFFFFF80000
FFFFFFFFFE0000
FFFFFFFFFF0000
FFFFFFFFFF8000
FF00001FFFC000
FF000003FFE000
FF000000FFF000
FF0000003FF000
FF0000001FF800
FF0000000FF800
FF00000007FC00
FF00000007FC00
FF00000003FE00
FF00000001FE00
FF00000001FE00
FF00000001FF00
FF00000000FF00
FF00000000FF00
FF00000000FF80
FF000000007F80
FF000000007F80
FF000000007F80
FF000000007F80
FF000000007F80
FF000000007F80
FF000000007F80
FF000000007F80
FF000000007F80
FF000000007F80
FF000000007F80
FF000000007F80
FF000000007F80
FF000000007F80
FF000000007F80
FF000000007F80
FF000000007F80
FF000000007F80
FF000000007F80
FF00000000FF00
FF00000000FF00
FF00000000FF00
FF00000001FF00
FF00000001FE00
FF00000001FE00
FF00000003FE00
FF00000003FC00
FF00000007FC00
FF0000000FF800
FF0000001FF800
FF0000003FF000
FF0000007FE000
FF000003FFE000
FF00001FFFC000
FFFFFFFFFF8000
FFFFFFFFFF0000
FFFFFFFFFC0000
FFFFFFFFF80000
FFFFFFFFE00000
FFFFFFFF800000
FFFFFFF8000000
ENDCHAR
STARTCHAR 010F
ENCODING 271
SWIDTH 638 0
DWIDTH 55 0
BBX 54 65 2 -2
BITMAP
000000007F87FC
000000007F87FC
000000007F87FC
000000007F87FC
000000007F87FC
000000007F87FC
000000007F87FC
000000007F87FC
000000007F87FC
000000007F803C
000000007F803C
000000007F803C
000000007F8038
000000007F8078
000000007F8078
000000007F80F0
000000007F83F0
0001FF007F87E0
000FFFE07F87C0
003FFFF87F8700
007FFFFC7F8000
01FFFFFF7F8000
03FFFFFF7F8000
03FFFFFFFF8000
07FF007FFF8000
0FFE001FFF8000
0FF8000FFF8000
1FF00007FF8000
1FE00003FF8000
3FE00001FF8000
3FC00001FF8000
7FC00000FF8000
7F800000FF8000
7F800000FF8000
7F8000007F8000
7F0000007F8000
FF0000007F8000
FF0000007F8000
FF0000007F8000
FF0000007F8000
FF0000007F8000
FF0000007F8000
FF0000007F8000
FF0000007F8000
FF0000007F8000
7F0000007F8000
7F0000007F8000
7F8000007F8000
7F8000007F8000
7F800000FF8000
3FC00000FF8000
3FC00001FF8000
3FE00001FF8000
1FE00003FF8000
1FF00007FF8000
0FF8000FFF8000
0FFE001FFF8000
07FF807FFF8000
07FFFFFFBF8000
03FFFFFF3F8000
01FFFFFE3F8000
007FFFFC3F8000
003FFFF83F8000
000FFFE0000000
0001FF00000000
ENDCHAR
STARTCHAR 0110
ENCODING 272
SWIDTH 720 0
DWIDTH 62 0
BBX 55 63 2 0
BITMAP
03FFFFFFE00000
03FFFFFFFE0000
03FFFFFFFF8000
03FFFFFFFFE000
03FFFFFFFFF800
03FFFFFFFFFC00
03FFFFFFFFFE00
03FC00007FFF00
03FC00000FFF80
03FC000003FFC0
03FC000000FFC0
03FC0000007FE0
03FC0000003FE0
03FC0000001FF0
03FC0000001FF0
03FC0000000FF8
03FC00000007F8
03FC00000007F8
03FC00000007FC
03FC00000003FC
03FC00000003FC
03FC00000003FE
03FC00000001FE
03FC00000001FE
03FC00000001FE
03FC00000001FE
03FC00000001FE
03FC00000001FE
FFFFFFF00001FE
FFFFFFF00001FE
FFFFFFF00001FE
FFFFFFF00001FE
FFFFFFF00001FE
FFFFFFF00001FE
03FC00000001FE
03FC00000001FE
03FC00000001FE
03FC00000001FE
03FC00000001FE
03FC00000001FE
03FC00000001FE
03FC00000003FC
03FC00000003FC
03FC00000003FC
03FC00000003FC
03FC00000007F8
03FC00000007F8
03FC0000000FF8
03FC0000000FF0
03FC0000001FF0
03FC0000003FE0
03FC0000007FE0
03FC000000FFC0
03FC000001FF80
03FC000007FF80
03FC00007FFF00
03FFFFFFFFFE00
03FFFFFFFFFC00
03FFFFFFFFF800
03FFFFFFFFE000
03FFFFFFFF8000
03FFFFFFFE0000
03FFFFFFE00000
ENDCHAR
STARTCHAR 0111
ENCODING 273
SWIDTH 557 0
DWIDTH 48 0
BBX 46 65 2 -2
BITMAP
000000007F80
000000007F80
000000007F80
000000007F80
000000007F80
000000007F80
000000007F80
00000FFFFFFC
00000FFFFFFC
00000FFFFFFC
00000FFFFFFC
00000FFFFFFC
000000007F80
000000007F80
000000007F80
000000007F80
000000007F80
0001FF007F80
000FFFE07F80
003FFFF87F80
007FFFFC7F80
01FFFFFE7F80
03FFFFFF7F80
07FFFFFFFF80
07FF80FFFF80
0FFE003FFF80
0FF8000FFF80
1FF00007FF80
1FE00003FF80
3FE00003FF80
3FC00001FF80
7FC00000FF80
7F800000FF80
7F800000FF80
7F8000007F80
7F0000007F80
FF0000007F80
FF0000007F80
FF0000007F80
FF0000007F80
FF0000007F80
FF0000007F80
FF0000007F80
FF0000007F80
FF0000007F80
7F0000007F80
7F0000007F80
7F8000007F80
7F800000FF80
7F800000FF80
3FC00000FF80
3FC00001FF80
3FE00001FF80
1FF00003FF80
1FF00007FF80
0FFC000FFF80
0FFE001FFF80
07FFC0FFFF80
03FFFFFFFF80
01FFFFFFBF80
00FFFFFF3F80
007FFFFC3F80
003FFFF83F80
000FFFE00000
0001FF000000
ENDCHAR
STARTCHAR 0112
ENCODING 274
SWIDTH 661 0
DWIDTH 57 0
BBX 45 78 8 0
BITMAP
003FFFFFC000
003FFFFFC000
003FFFFFC000
003FFFFFC000
003FFFFFC000
003FFFFFC000
000000000000
000000000000
000000000000
000000000000
000000000000
000000000000
000000000000
000000000000
000000000000
FFFFFFFFFFE0
FFFFFFFFFFE0
FFFFFFFFFFE0
FFFFFFFFFFE0
FFFFFFFFFFE0
FFFFFFFFFFE0
FFFFFFFFFFE0
FF0000000000
FF0000000000
FF0000000000
FF0000000000
FF0000000000
FF0000000000
FF0000000000
FF0000000000
FF0000000000
FF0000000000
FF0000000000
FF0000000000
FF0000000000
FF0000000000
FF0000000000
FF0000000000
FF0000000000
FF0000000000
FF0000000000
FF0000000000
FFFFFFFFFFC0
FFFFFFFFFFC0
FFFFFFFFFFC0
FFFFFFFFFFC0
FFFFFFFFFFC0
FFFFFFFFFFC0
FFFFFFFFFFC0
FF0000000000
FF0000000000
FF0000000000
FF0000000000
FF0000000000
FF0000000000
FF0000000000
FF0000000000
FF0000000000
FF0000000000
FF0000000000
FF0000000000
FF0000000000
FF0000000000
FF0000000000
FF0000000000
FF0000000000
FF0000000000
FF0000000000
FF0000000000
FF0000000000
FF0000000000
FFFFFFFFFFF8
FFFFFFFFFFF8
FFFFFFFFFFF8
FFFFFFFFFFF8
FFFFFFFFFFF8
FFFFFFFFFFF8
FFFFFFFFFFF8
ENDCHAR
STARTCHAR 0113
ENCODING 275
SWIDTH 557 0
DWIDTH 48 0
BBX 41 62 3 -2
BITMAP
003FFFFF8000
003FFFFF8000
003FFFFF8000
003FFFFF8000
003FFFFF8000
003FFFFF8000
000000000000
000000000000
000000000000
000000000000
000000000000
000000000000
000000000000
000000000000
0000FFC00000
0007FFF80000
001FFFFE0000
003FFFFF8000
00FFFFFFC000
01FFFFFFE000
03FFFFFFF000
07FF003FF800
07FC000FFC00
0FF80007FC00
0FF00003FE00
1FE00001FE00
1FC00000FF00
3FC00000FF00
3F800000FF00
3F8000007F00
7F8000007F80
7F8000007F80
7F0000007F80
7F0000007F80
7FFFFFFFFF80
7FFFFFFFFF80
7FFFFFFFFF80
FFFFFFFFFF80
FFFFFFFFFF80
FFFFFFFFFF80
7F0000000000
7F0000000000
7F0000000000
7F0000000000
7F0000000000
7F8000000000
7F8000007F00
3F8000007F00
3FC00000FF00
3FC00000FE00
1FE00001FE00
1FF00003FE00
0FF80007FC00
0FFC000FFC00
07FF003FF800
03FFFFFFF000
01FFFFFFE000
00FFFFFFC000
007FFFFF8000
001FFFFE0000
0007FFF80000
0000FFC00000
ENDCHAR
STARTCHAR 0114
ENCODING 276
SWIDTH 661 0
DWIDTH 57 0
BBX 45 81 8 0
BITMAP
007C0003E000
007C0007E000
007C0007C000
007E000FC000
007F001FC000
003FC07F8000
003FFFFF8000
001FFFFF0000
000FFFFE0000
0007FFFC0000
0001FFF80000
00007FC00000
000000000000
000000000000
000000000000
000000000000
000000000000
000000000000
FFFFFFFFFFE0
FFFFFFFFFFE0
FFFFFFFFFFE0
FFFFFFFFFFE0
FFFFFFFFFFE0
FFFFFFFFFFE0
FFFFFFFFFFE0
FF0000000000
FF0000000000
FF0000000000
FF0000000000
FF0000000000
FF0000000000
FF0000000000
FF0000000000
FF0000000000
FF0000000000
FF0000000000
FF0000000000
FF0000000000
FF0000000000
FF0000000000
FF0000000000
FF0000000000
FF0000000000
FF0000000000
FF0000000000
FFFFFFFFFFC0
FFFFFFFFFFC0
FFFFFFFFFFC0
FFFFFFFFFFC0
FFFFFFFFFFC0
FFFFFFFFFFC0
FFFFFFFFFFC0
FF0000000000
FF0000000000
FF0000000000
FF0000000000
FF0000000000
FF0000000000
FF0000000000
FF0000000000
FF0000000000
FF0000000000
FF0000000000
FF0000000000
FF0000000000
FF0000000000
FF0000000000
FF0000000000
FF0000000000
FF0000000000
FF0000000000
FF0000000000
FF0000000000
FF0000000000
FFFFFFFFFFF8
FFFFFFFFFFF8
FFFFFFFFFFF8
FFFFFFFFFFF8
FFFFFFFFFFF8
FFFFFFFFFFF8
FFFFFFFFFFF8
ENDCHAR
STARTCHAR 0115
ENCODING 277
SWIDTH 557 0
DWIDTH 48 0
BBX 41 65 3 -2
BITMAP
007C0003E000
007C0007C000
007E0007C000
007E000FC000
007F001FC000
003FC07F8000
003FFFFF8000
001FFFFF0000
000FFFFE0000
0007FFFC0000
0001FFF80000
00007FC00000
000000000000
000000000000
000000000000
000000000000
000000000000
0000FFC00000
0007FFF80000
001FFFFE0000
003FFFFF8000
00FFFFFFC000
01FFFFFFE000
03FFFFFFF000
07FF003FF800
07FC000FFC00
0FF80007FC00
0FF00003FE00
1FE00001FE00
1FC00000FF00
3FC00000FF00
3F800000FF00
3F8000007F00
7F8000007F80
7F8000007F80
7F0000007F80
7F0000007F80
7FFFFFFFFF80
7FFFFFFFFF80
7FFFFFFFFF80
FFFFFFFFFF80
FFFFFFFFFF80
FFFFFFFFFF80
7F0000000000
7F0000000000
7F0000000000
7F0000000000
7F0000000000
7F8000000000
7F8000007F00
3F8000007F00
3FC00000FF00
3FC00000FE00
1FE00001FE00
1FF00003FE00
0FF80007FC00
0FFC000FFC00
07FF003FF800
03FFFFFFF000
01FFFFFFE000
00FFFFFFC000
007FFFFF8000
001FFFFE0000
0007FFF80000
0000FFC00000
ENDCHAR
STARTCHAR 0116
ENCODING 278
SWIDTH 661 0
DWIDTH 57 0
BBX 45 79 8 0
BITMAP
00007FC00000
00007FC00000
00007FC00000
00007FC00000
00007FC00000
00007FC00000
00007FC00000
00007FC00000
00007FC00000
000000000000
000000000000
000000000000
000000000000
000000000000
000000000000
000000000000
FFFFFFFFFFE0
FFFFFFFFFFE0
FFFFFFFFFFE0
FFFFFFFFFFE0
FFFFFFFFFFE0
FFFFFFFFFFE0
FFFFFFFFFFE0
FF0000000000
FF0000000000
FF0000000000
FF0000000000
FF0000000000
FF0000000000
FF0000000000
FF0000000000
FF0000000000
FF0000000000
FF0000000000
FF0000000000
FF0000000000
FF0000000000
FF0000000000
FF0000000000
FF0000000000
FF0000000000
FF0000000000
FF0000000000
FFFFFFFFFFC0
FFFFFFFFFFC0
FFFFFFFFFFC0
FFFFFFFFFFC0
FFFFFFFFFFC0
FFFFFFFFFFC0
FFFFFFFFFFC0
FF0000000000
FF0000000000
FF0000000000
FF0000000000
FF0000000000
FF0000000000
FF0000000000
FF0000000000
FF0000000000
FF0000000000
FF0000000000
FF0000000000
FF0000000000
FF0000000000
FF0000000000
FF0000000000
FF0000000000
FF0000000000
FF0000000000
FF0000000000
FF0000000000
FF0000000000
FFFFFFFFFFF8
FFFFFFFFFFF8
FFFFFFFFFFF8
FFFFFFFFFFF8
FFFFFFFFFFF8
FFFFFFFFFFF8
FFFFFFFFFFF8
ENDCHAR
STARTCHAR 0117
ENCODING 279
SWIDTH 557 0
DWIDTH 48 0
BBX 41 64 3 -2
BITMAP
00007FC00000
00007FC00000
00007FC00000
00007FC00000
00007FC00000
00007FC00000
00007FC00000
00007FC00000
00007FC00000
000000000000
000000000000
000000000000
000000000000
000000000000
000000000000
000000000000
0000FFC00000
0007FFF80000
001FFFFE0000
003FFFFF8000
00FFFFFFC000
01FFFFFFE000
03FFFFFFF000
07FF003FF800
07FC000FFC00
0FF80007FC00
0FF00003FE00
1FE00001FE00
1FC00000FF00
3FC00000FF00
3F800000FF00
3F8000007F00
7F8000007F80
7F8000007F80
7F0000007F80
7F0000007F80
7FFFFFFFFF80
7FFFFFFFFF80
7FFFFFFFFF80
FFFFFFFFFF80
FFFFFFFFFF80
FFFFFFFFFF80
7F0000000000
7F0000000000
7F0000000000
7F0000000000
7F0000000000
7F8000000000
7F8000007F00
3F8000007F00
3FC00000FF00
3FC00000FE00
1FE00001FE00
1FF00003FE00
0FF80007FC00
0FFC000FFC00
07FF003FF800
03FFFFFFF000
01FFFFFFE000
00FFFFFFC000
007FFFFF8000
001FFFFE0000
0007FFF80000
0000FFC00000
ENDCHAR
STARTCHAR 0118
ENCODING 280
SWIDTH 661 0
DWIDTH 57 0
BBX 48 81 8 -18
BITMAP
FFFFFFFFFFE0
FFFFFFFFFFE0
FFFFFFFFFFE0
FFFFFFFFFFE0
FFFFFFFFFFE0
FFFFFFFFFFE0
FFFFFFFFFFE0
FF0000000000
FF0000000000
FF0000000000
FF0000000000
FF0000000000
FF0000000000
FF0000000000
FF0000000000
FF0000000000
FF0000000000
FF0000000000
FF0000000000
FF0000000000
FF0000000000
FF0000000000
FF0000000000
FF0000000000
FF0000000000
FF0000000000
FF0000000000
FFFFFFFFFFC0
FFFFFFFFFFC0
FFFFFFFFFFC0
FFFFFFFFFFC0
FFFFFFFFFFC0
FFFFFFFFFFC0
FFFFFFFFFFC0
FF0000000000
FF0000000000
FF0000000000
FF0000000000
FF0000000000
FF0000000000
FF0000000000
FF0000000000
FF0000000000
FF0000000000
FF0000000000
FF0000000000
FF0000000000
FF0000000000
FF0000000000
FF0000000000
FF0000000000
FF0000000000
FF0000000000
FF0000000000
FF0000000000
FF0000000000
FFFFFFFFFFF8
FFFFFFFFFFF8
FFFFFFFFFFF8
FFFFFFFFFFF8
FFFFFFFFFFF8
FFFFFFFFFFF8
FFFFFFFFFFF8
0000000003F0
000000000FC0
000000003F00
000000007E00
00000000FC00
00000001FC00
00000001F800
00000001F800
00000003F800
00000003F800
00000003F800
00000003F800
00000001FC00
00000001FF01
00000000FFFF
000000007FFF
000000001FFF
0000000003F8
ENDCHAR
STARTCHAR 0119
ENCODING 281
SWIDTH 557 0
DWIDTH 48 0
BBX 41 64 3 -18
BITMAP
0000FFC00000
0007FFF80000
001FFFFE0000
003FFFFF8000
00FFFFFFC000
01FFFFFFE000
03FFFFFFF000
07FF003FF800
07FC000FFC00
0FF80007FC00
0FF00003FE00
1FE00001FE00
1FC00000FF00
3FC00000FF00
3F8000007F00
3F8000007F80
7F8000007F80
7F8000007F80
7F0000007F80
7F0000007F80
7FFFFFFFFF80
7FFFFFFFFF80
7FFFFFFFFF80
FFFFFFFFFF80
FFFFFFFFFF80
FFFFFFFFFF80
7F0000000000
7F0000000000
7F0000000000
7F0000000000
7F0000000000
7F8000000000
7F8000007F00
3F8000007F00
3FC00000FF00
3FC00000FE00
1FE00001FE00
1FF00003FE00
0FF80007FC00
0FFC000FFC00
07FF003FF800
03FFFFFFF000
01FFFFFFE000
00FFFFFFE000
007FFFFFC000
001FFFFF8000
0007FFFF0000
0000FFDE0000
0000007C0000
000000F80000
000001F80000
000003F00000
000003F00000
000003E00000
000007E00000
000007E00000
000007E00000
000007F00000
000007F80000
000003FC0200
000001FFFE00
000000FFFE00
0000003FFE00
00000007F000
ENDCHAR
STARTCHAR 011A
ENCODING 282
SWIDTH 661 0
DWIDTH 57 0
BBX 45 81 8 0
BITMAP
003E000FC000
003F001F8000
001F803F0000
000FC07F0000
000FE07E0000
0007F0FC0000
0003F1FC0000
0003FBF80000
0001FFF00000
0000FFF00000
0000FFE00000
00007FE00000
00007FC00000
000000000000
000000000000
000000000000
000000000000
000000000000
FFFFFFFFFFE0
FFFFFFFFFFE0
FFFFFFFFFFE0
FFFFFFFFFFE0
FFFFFFFFFFE0
FFFFFFFFFFE0
FFFFFFFFFFE0
FF0000000000
FF0000000000
FF0000000000
FF0000000000
FF0000000000
FF0000000000
FF0000000000
FF0000000000
FF0000000000
FF0000000000
FF0000000000
FF0000000000
FF0000000000
FF0000000000
FF0000000000
FF0000000000
FF0000000000
FF0000000000
FF0000000000
FF0000000000
FFFFFFFFFFC0
FFFFFFFFFFC0
FFFFFFFFFFC0
FFFFFFFFFFC0
FFFFFFFFFFC0
FFFFFFFFFFC0
FFFFFFFFFFC0
FF0000000000
FF0000000000
FF0000000000
FF0000000000
FF0000000000
FF0000000000
FF0000000000
FF0000000000
FF0000000000
FF0000000000
FF0000000000
FF0000000000
FF0000000000
FF0000000000
FF0000000000
FF0000000000
FF0000000000
FF0000000000
FF0000000000
FF0000000000
FF0000000000
FF0000000000
FFFFFFFFFFF8
FFFFFFFFFFF8
FFFFFFFFFFF8
FFFFFFFFFFF8
FFFFFFFFFFF8
FFFFFFFFFFF8
FFFFFFFFFFF8
ENDCHAR
STARTCHAR 011B
ENCODING 283
SWIDTH 557 0
DWIDTH 48 0
BBX 41 66 3 -2
BITMAP
003E000FC000
003F001F8000
001F801F0000
001FC03F0000
000FC07E0000
0007E0FE0000
0007F1FC0000
0003F9F80000
0001FFF80000
0001FFF00000
0000FFF00000
0000FFE00000
00007FC00000
000000000000
000000000000
000000000000
000000000000
000000000000
0000FFC00000
0007FFF80000
001FFFFE0000
003FFFFF8000
00FFFFFFC000
01FFFFFFE000
03FFFFFFF000
07FF003FF800
07FC000FFC00
0FF80007FC00
0FF00003FE00
1FE00001FE00
1FC00000FF00
3FC00000FF00
3F800000FF00
3F8000007F00
7F8000007F80
7F8000007F80
7F0000007F80
7F0000007F80
7FFFFFFFFF80
7FFFFFFFFF80
7FFFFFFFFF80
FFFFFFFFFF80
FFFFFFFFFF80
FFFFFFFFFF80
7F0000000000
7F0000000000
7F0000000000
7F0000000000
7F0000000000
7F8000000000
7F8000007F00
3F8000007F00
3FC00000FF00
3FC00000FE00
1FE00001FE00
1FF00003FE00
0FF80007FC00
0FFC000FFC00
07FF003FF800
03FFFFFFF000
01FFFFFFE000
00FFFFFFC000
007FFFFF8000
001FFFFE0000
0007FFF80000
0000FFC00000
ENDCHAR
STARTCHAR 011C
ENCODING 284
SWIDTH 778 0
DWIDTH 67 0
BBX 57 83 4 -2
BITMAP
0000007FC0000000
000000FFC0000000
000001FFE0000000
000001FFF0000000
000003FFF0000000
000007F3F8000000
000007F1FC000000
00000FE0FC000000
00000FC07E000000
00001F807E000000
00003F003F000000
00003E001F800000
00007E000F800000
0000000000000000
0000000000000000
0000000000000000
0000000000000000
000000FFF0000000
00000FFFFF000000
00007FFFFFE00000
0001FFFFFFF80000
0007FFFFFFFE0000
000FFFFFFFFF0000
001FFFFFFFFF8000
003FFF803FFFC000
007FFC0003FFE000
00FFF00000FFF000
01FFC000003FF800
03FF8000001FF800
03FE0000000FFC00
07FC00000007FC00
0FFC00000003FE00
0FF800000003FE00
1FF000000001FE00
1FF000000001FF00
3FE000000000FF00
3FC000000000FF00
3FC0000000000000
7FC0000000000000
7F80000000000000
7F80000000000000
7F80000000000000
7F80000000000000
FF00000000000000
FF00000000000000
FF00000000000000
FF00000000000000
FF00000000000000
FF000001FFFFFF80
FF000001FFFFFF80
FF000001FFFFFF80
FF000001FFFFFF80
FF000001FFFFFF80
FF000001FFFFFF80
FF000001FFFFFF80
FF00000000003F80
FF00000000003F80
FF80000000003F80
7F80000000003F80
7F80000000003F80
7F80000000003F80
7FC0000000007F80
3FC0000000007F80
3FE0000000007F80
3FE0000000007F80
1FF000000000FF80
1FF000000000FF80
0FF800000001FF80
0FFC00000003FF80
07FC00000007FF80
07FE0000000FFF80
03FF8000001FFF80
01FFC000003FFF80
01FFF00000FFFF80
00FFFC0003FFBF80
007FFFC01FFF1F80
003FFFFFFFFC1F80
000FFFFFFFF81F80
0007FFFFFFF01F80
0001FFFFFFC01F80
00007FFFFF000F80
00001FFFFC000000
000001FFC0000000
ENDCHAR
STARTCHAR 011D
ENCODING 285
SWIDTH 557 0
DWIDTH 48 0
BBX 38 83 3 -19
BITMAP
0000FF8000
0001FF8000
0001FFC000
0003FFE000
0003FFE000
0007F7F000
000FE3F800
000FC1F800
001F81FC00
003F80FE00
003F007E00
007E003F00
00FC001F00
0000000000
0000000000
0000000000
0000000000
0000000000
0001FE0000
000FFF80FC
003FFFE0FC
00FFFFF0FC
01FFFFF8FC
03FFFFFCFC
07FFFFFEFC
07FE00FFFC
0FF8007FFC
0FF0001FFC
1FE0001FFC
1FC0000FFC
3FC00007FC
3F800007FC
7F800003FC
7F800003FC
7F000003FC
7F000003FC
7F000001FC
FF000001FC
FF000001FC
FF000001FC
FF000001FC
FF000001FC
FF000001FC
FF000001FC
FF000001FC
FF000001FC
FF000001FC
FF000001FC
FF000001FC
7F000003FC
7F800003FC
7F800003FC
7F800007FC
3FC00007FC
3FC0000FFC
1FE0000FFC
1FF0001FFC
0FF8007FFC
07FE00FFFC
07FFFFFDFC
03FFFFF9FC
01FFFFF1FC
00FFFFE1FC
003FFFC1FC
001FFF01FC
0003FC01FC
00000001FC
00000001FC
00000003FC
7F800003F8
3F800003F8
3F800007F8
3FC00007F0
3FC0000FF0
1FE0001FE0
1FF0003FE0
0FFE01FFC0
07FFFFFF80
03FFFFFF80
01FFFFFE00
00FFFFFC00
003FFFE000
0003FF0000
ENDCHAR
STARTCHAR 011E
ENCODING 286
SWIDTH 778 0
DWIDTH 67 0
BBX 57 83 4 -2
BITMAP
00007E0003E00000
00003E0003E00000
00003E0003E00000
00003F0007E00000
00003F800FE00000
00003FE03FC00000
00001FFFFFC00000
00000FFFFF800000
00000FFFFF000000
000003FFFE000000
000001FFF8000000
0000003FE0000000
0000000000000000
0000000000000000
0000000000000000
0000000000000000
0000000000000000
000000FFF0000000
00000FFFFF000000
00007FFFFFE00000
0001FFFFFFF80000
0007FFFFFFFE0000
000FFFFFFFFF0000
001FFFFFFFFF8000
003FFF803FFFC000
007FFC0003FFE000
00FFF00000FFF000
01FFC000003FF800
03FF8000001FF800
03FE0000000FFC00
07FC00000007FC00
0FFC00000003FE00
0FF800000003FE00
1FF000000001FE00
1FF000000001FF00
3FE000000000FF00
3FC000000000FF00
3FC0000000000000
7FC0000000000000
7F80000000000000
7F80000000000000
7F80000000000000
7F80000000000000
FF00000000000000
FF00000000000000
FF00000000000000
FF00000000000000
FF00000000000000
FF000001FFFFFF80
FF000001FFFFFF80
FF000001FFFFFF80
FF000001FFFFFF80
FF000001FFFFFF80
FF000001FFFFFF80
FF000001FFFFFF80
FF00000000003F80
FF00000000003F80
FF80000000003F80
7F80000000003F80
7F80000000003F80
7F80000000003F80
7FC0000000007F80
3FC0000000007F80
3FE0000000007F80
3FE0000000007F80
1FF000000000FF80
1FF000000000FF80
0FF800000001FF80
0FFC00000003FF80
07FC00000007FF80
07FE0000000FFF80
03FF8000001FFF80
01FFC000003FFF80
01FFF00000FFFF80
00FFFC0003FFBF80
007FFFC01FFF1F80
003FFFFFFFFC1F80
000FFFFFFFF81F80
0007FFFFFFF01F80
0001FFFFFFC01F80
00007FFFFF000F80
00001FFFFC000000
000001FFC0000000
ENDCHAR
STARTCHAR 011F
ENCODING 287
SWIDTH 557 0
DWIDTH 48 0
BBX 38 82 3 -19
BITMAP
01F0000F80
01F8000F80
01F8001F80
00FC001F80
00FE003F00
00FF80FF00
007FFFFE00
007FFFFE00
003FFFFC00
000FFFF800
0007FFE000
0000FF0000
0000000000
0000000000
0000000000
0000000000
0000000000
0001FE0000
000FFF80FC
003FFFE0FC
00FFFFF0FC
01FFFFF8FC
03FFFFFCFC
07FFFFFEFC
07FE00FFFC
0FF8007FFC
0FF0001FFC
1FE0001FFC
1FC0000FFC
3FC00007FC
3F800007FC
7F800003FC
7F800003FC
7F000003FC
7F000003FC
7F000001FC
FF000001FC
FF000001FC
FF000001FC
FF000001FC
FF000001FC
FF000001FC
FF000001FC
FF000001FC
FF000001FC
FF000001FC
FF000001FC
FF000001FC
7F000003FC
7F800003FC
7F800003FC
7F800007FC
3FC00007FC
3FC0000FFC
1FE0000FFC
1FF0001FFC
0FF8007FFC
07FE00FFFC
07FFFFFDFC
03FFFFF9FC
01FFFFF1FC
00FFFFE1FC
003FFFC1FC
001FFF01FC
0003FC01FC
00000001FC
00000001FC
00000003FC
7F800003F8
3F800003F8
3F800007F8
3FC00007F0
3FC0000FF0
1FE0001FE0
1FF0003FE0
0FFE01FFC0
07FFFFFF80
03FFFFFF80
01FFFFFE00
00FFFFFC00
003FFFE000
0003FF0000
ENDCHAR
STARTCHAR 0120
ENCODING 288
SWIDTH 778 0
DWIDTH 67 0
BBX 57 81 4 -2
BITMAP
0000007FC0000000
0000007FC0000000
0000007FC0000000
0000007FC0000000
0000007FC0000000
0000007FC0000000
0000007FC0000000
0000007FC0000000
0000007FC0000000
0000000000000000
0000000000000000
0000000000000000
0000000000000000
0000000000000000
0000000000000000
000000FFF0000000
00000FFFFF000000
00007FFFFFE00000
0001FFFFFFF80000
0007FFFFFFFE0000
000FFFFFFFFF0000
001FFFFFFFFF8000
003FFF803FFFC000
007FFC0003FFE000
00FFF00000FFF000
01FFC000003FF800
03FF8000001FF800
03FE0000000FFC00
07FC00000007FC00
0FFC00000003FE00
0FF800000003FE00
1FF000000001FE00
1FF000000001FF00
3FE000000000FF00
3FC000000000FF00
3FC0000000000000
7FC0000000000000
7F80000000000000
7F80000000000000
7F80000000000000
7F80000000000000
FF00000000000000
FF00000000000000
FF00000000000000
FF00000000000000
FF00000000000000
FF000001FFFFFF80
FF000001FFFFFF80
FF000001FFFFFF80
FF000001FFFFFF80
FF000001FFFFFF80
FF000001FFFFFF80
FF000001FFFFFF80
FF00000000003F80
FF00000000003F80
FF80000000003F80
7F80000000003F80
7F80000000003F80
7F80000000003F80
7FC0000000007F80
3FC0000000007F80
3FE0000000007F80
3FE0000000007F80
1FF000000000FF80
1FF000000000FF80
0FF800000001FF80
0FFC00000003FF80
07FC00000007FF80
07FE0000000FFF80
03FF8000001FFF80
01FFC000003FFF80
01FFF00000FFFF80
00FFFC0003FFBF80
007FFFC01FFF1F80
003FFFFFFFFC1F80
000FFFFFFFF81F80
0007FFFFFFF01F80
0001FFFFFFC01F80
00007FFFFF000F80
00001FFFFC000000
000001FFC0000000
ENDCHAR
STARTCHAR 0121
ENCODING 289
SWIDTH 557 0
DWIDTH 48 0
BBX 38 81 3 -19
BITMAP
0001FF0000
0001FF0000
0001FF0000
0001FF0000
0001FF0000
0001FF0000
0001FF0000
0001FF0000
0001FF0000
0000000000
0000000000
0000000000
0000000000
0000000000
0000000000
0000000000
0001FE0000
000FFF80FC
003FFFE0FC
00FFFFF0FC
01FFFFF8FC
03FFFFFCFC
07FFFFFEFC
07FE00FFFC
0FF8007FFC
0FF0001FFC
1FE0001FFC
1FC0000FFC
3FC00007FC
3F800007FC
7F800003FC
7F800003FC
7F000003FC
7F000003FC
7F000001FC
FF000001FC
FF000001FC
FF000001FC
FF000001FC
FF000001FC
FF000001FC
FF000001FC
FF000001FC
FF000001FC
FF000001FC
FF000001FC
FF000001FC
7F000003FC
7F800003FC
7F800003FC
7F800007FC
3FC00007FC
3FC0000FFC
1FE0000FFC
1FF0001FFC
0FF8007FFC
07FE00FFFC
07FFFFFDFC
03FFFFF9FC
01FFFFF1FC
00FFFFE1FC
003FFFC1FC
001FFF01FC
0003FC01FC
00000001FC
00000001FC
00000003FC
7F800003F8
3F800003F8
3F800007F8
3FC00007F0
3FC0000FF0
1FE0001FE0
1FF0003FE0
0FFE01FFC0
07FFFFFF80
03FFFFFF80
01FFFFFE00
00FFFFFC00
003FFFE000
0003FF0000
ENDCHAR
STARTCHAR 0122
ENCODING 290
SWIDTH 778 0
DWIDTH 67 0
BBX 57 88 4 -24
BITMAP
000000FFF0000000
00000FFFFF000000
00007FFFFFE00000
0001FFFFFFF80000
0007FFFFFFFE0000
000FFFFFFFFF0000
001FFFFFFFFF8000
003FFF803FFFC000
007FFC0003FFE000
00FFF00000FFF000
01FFC000003FF800
03FF8000001FF800
03FE0000000FFC00
07FC00000007FC00
0FFC00000003FE00
0FF800000003FE00
1FF000000001FE00
1FF000000001FF00
3FE000000000FF00
3FC000000000FF00
3FC0000000000000
7FC0000000000000
7F80000000000000
7F80000000000000
7F80000000000000
7F80000000000000
FF00000000000000
FF00000000000000
FF00000000000000
FF00000000000000
FF00000000000000
FF000001FFFFFF80
FF000001FFFFFF80
FF000001FFFFFF80
FF000001FFFFFF80
FF000001FFFFFF80
FF000001FFFFFF80
FF000001FFFFFF80
FF00000000003F80
FF00000000003F80
FF80000000003F80
7F80000000003F80
7F80000000003F80
7F80000000003F80
7FC0000000007F80
3FC0000000007F80
3FE0000000007F80
3FE0000000007F80
1FF000000000FF80
1FF000000000FF80
0FF800000001FF80
0FFC00000003FF80
07FC00000007FF80
07FE0000000FFF80
03FF8000001FFF80
01FFC000003FFF80
01FFF00000FFFF80
00FFFC0003FFBF80
007FFFC01FFF1F80
003FFFFFFFFC1F80
000FFFFFFFF81F80
0007FFFFFFF01F80
0001FFFFFFC01F80
00007FFFFF000F80
00001FFFFC000000
000001FFC0000000
0000000000000000
0000000000000000
0000000000000000
0000007FC0000000
0000007FC0000000
0000007FC0000000
0000007FC0000000
0000007FC0000000
0000007FC0000000
0000007FC0000000
0000007FC0000000
0000007FC0000000
00000003C0000000
00000003C0000000
0000000380000000
0000000780000000
0000000780000000
0000000F80000000
0000001F00000000
0000007E00000000
0000007C00000000
0000007800000000
ENDCHAR
STARTCHAR 0123
ENCODING 291
SWIDTH 557 0
DWIDTH 48 0
BBX 38 89 3 -19
BITMAP
0000030000
00000F0000
00003F0000
00003F0000
0000780000
0000F00000
0000F00000
0000F00000
0000E00000
0000E00000
0000E00000
0001FF0000
0001FF0000
0001FF0000
0001FF0000
0001FF0000
0001FF0000
0001FF0000
0001FF0000
0001FF0000
0000000000
0000000000
0000000000
0000000000
0001FE0000
000FFF80FC
003FFFE0FC
00FFFFF0FC
01FFFFF8FC
03FFFFFCFC
07FFFFFEFC
07FE00FFFC
0FF8007FFC
0FF0001FFC
1FE0001FFC
1FC0000FFC
3FC00007FC
3F800007FC
7F800003FC
7F800003FC
7F000003FC
7F000003FC
7F000001FC
FF000001FC
FF000001FC
FF000001FC
FF000001FC
FF000001FC
FF000001FC
FF000001FC
FF000001FC
FF000001FC
FF000001FC
FF000001FC
FF000001FC
7F000003FC
7F800003FC
7F800003FC
7F800007FC
3FC00007FC
3FC0000FFC
1FE0000FFC
1FF0001FFC
0FF8007FFC
07FE00FFFC
07FFFFFDFC
03FFFFF9FC
01FFFFF1FC
00FFFFE1FC
003FFFC1FC
001FFF01FC
0003FC01FC
00000001FC
00000001FC
00000003FC
7F800003F8
3F800003F8
3F800007F8
3FC00007F0
3FC0000FF0
1FE0001FE0
1FF0003FE0
0FFE01FFC0
07FFFFFF80
03FFFFFF80
01FFFFFE00
00FFFFFC00
003FFFE000
0003FF0000
ENDCHAR
STARTCHAR 0124
ENCODING 292
SWIDTH 720 0
DWIDTH 62 0
BBX 48 81 7 0
BITMAP
00000FFC0000
00000FFC0000
00001FFE0000
00001FFE0000
00003FFF0000
00007F3F8000
00007E1F8000
0000FC1FC000
0001FC0FE000
0001F807E000
0003F003F000
0007E001F800
0007C000F800
000000000000
000000000000
000000000000
000000000000
000000000000
FF00000000FF
FF00000000FF
FF00000000FF
FF00000000FF
FF00000000FF
FF00000000FF
FF00000000FF
FF00000000FF
FF00000000FF
FF00000000FF
FF00000000FF
FF00000000FF
FF00000000FF
FF00000000FF
FF00000000FF
FF00000000FF
FF00000000FF
FF00000000FF
FF00000000FF
FF00000000FF
FF00000000FF
FF00000000FF
FF00000000FF
FF00000000FF
FF00000000FF
FF00000000FF
FF00000000FF
FFFFFFFFFFFF
FFFFFFFFFFFF
FFFFFFFFFFFF
FFFFFFFFFFFF
FFFFFFFFFFFF
FFFFFFFFFFFF
FFFFFFFFFFFF
FF00000000FF
FF00000000FF
FF00000000FF
FF00000000FF
FF00000000FF
FF00000000FF
FF00000000FF
FF00000000FF
FF00000000FF
FF00000000FF
FF00000000FF
FF00000000FF
FF00000000FF
FF00000000FF
FF00000000FF
FF00000000FF
FF00000000FF
FF00000000FF
FF00000000FF
FF00000000FF
FF00000000FF
FF00000000FF
FF00000000FF
FF00000000FF
FF00000000FF
FF00000000FF
FF00000000FF
FF00000000FF
FF00000000FF
ENDCHAR
STARTCHAR 0125
ENCODING 293
SWIDTH 557 0
DWIDTH 48 0
BBX 44 81 -2 0
BITMAP
01FF00000000
01FF80000000
03FFC0000000
07FFC0000000
07FFE0000000
0FE7F0000000
1FC7F0000000
1F83F8000000
3F01F8000000
7F00FC000000
7E007E000000
FC003E000000
F8003F000000
000000000000
000000000000
000000000000
000000000000
000000000000
00FE00000000
00FE00000000
00FE00000000
00FE00000000
00FE00000000
00FE00000000
00FE00000000
00FE00000000
00FE00000000
00FE00000000
00FE00000000
00FE00000000
00FE00000000
00FE00000000
00FE00000000
00FE00000000
00FE00000000
00FE007FC000
00FE03FFF800
00FE0FFFFE00
00FE1FFFFF00
00FE3FFFFF80
00FE7FFFFFC0
00FEFF87FFE0
00FFFC007FE0
00FFF0003FE0
00FFE0001FF0
00FFC0000FF0
00FFC0000FF0
00FF80000FF0
00FF800007F0
00FF000007F0
00FF000007F0
00FF000007F0
00FF000007F0
00FE000007F0
00FE000007F0
00FE000007F0
00FE000007F0
00FE000007F0
00FE000007F0
00FE000007F0
00FE000007F0
00FE000007F0
00FE000007F0
00FE000007F0
00FE000007F0
00FE000007F0
00FE000007F0
00FE000007F0
00FE000007F0
00FE000007F0
00FE000007F0
00FE000007F0
00FE000007F0
00FE000007F0
00FE000007F0
00FE000007F0
00FE000007F0
00FE000007F0
00FE000007F0
00FE000007F0
00FE000007F0
ENDCHAR
STARTCHAR 0126
ENCODING 294
SWIDTH 720 0
DWIDTH 62 0
BBX 61 63 1 0
BITMAP
03FC00000003FC00
03FC00000003FC00
03FC00000003FC00
03FC00000003FC00
03FC00000003FC00
03FC00000003FC00
03FC00000003FC00
03FC00000003FC00
03FC00000003FC00
03FC00000003FC00
03FC00000003FC00
03FC00000003FC00
03FC00000003FC00
03FC00000003FC00
FFFFFFFFFFFFFFF8
FFFFFFFFFFFFFFF8
FFFFFFFFFFFFFFF8
FFFFFFFFFFFFFFF8
FFFFFFFFFFFFFFF8
FFFFFFFFFFFFFFF8
03FC00000003FC00
03FC00000003FC00
03FC00000003FC00
03FC00000003FC00
03FC00000003FC00
03FC00000003FC00
03FC00000003FC00
03FFFFFFFFFFFC00
03FFFFFFFFFFFC00
03FFFFFFFFFFFC00
03FFFFFFFFFFFC00
03FFFFFFFFFFFC00
03FFFFFFFFFFFC00
03FFFFFFFFFFFC00
03FC00000003FC00
03FC00000003FC00
03FC00000003FC00
03FC00000003FC00
03FC00000003FC00
03FC00000003FC00
03FC00000003FC00
03FC00000003FC00
03FC00000003FC00
03FC00000003FC00
03FC00000003FC00
03FC00000003FC00
03FC00000003FC00
03FC00000003FC00
03FC00000003FC00
03FC00000003FC00
03FC00000003FC00
03FC00000003FC00
03FC00000003FC00
03FC00000003FC00
03FC00000003FC00
03FC00000003FC00
03FC00000003FC00
03FC00000003FC00
03FC00000003FC00
03FC00000003FC00
03FC00000003FC00
03FC00000003FC00
03FC00000003FC00
ENDCHAR
STARTCHAR 0127
ENCODING 295
SWIDTH 557 0
DWIDTH 48 0
BBX 41 63 1 0
BITMAP
07F000000000
07F000000000
07F000000000
07F000000000
07F000000000
07F000000000
07F000000000
FFFFFFFC0000
FFFFFFFC0000
FFFFFFFC0000
FFFFFFFC0000
FFFFFFFC0000
07F000000000
07F000000000
07F000000000
07F000000000
07F000000000
07F003FE0000
07F01FFFC000
07F07FFFF000
07F0FFFFF800
07F1FFFFFC00
07F3FFFFFE00
07F7FC3FFF00
07FFE003FF00
07FFC001FF00
07FF0000FF80
07FE00007F80
07FE00007F80
07FC00007F80
07FC00003F80
07F800003F80
07F800003F80
07F800003F80
07F800003F80
07F000003F80
07F000003F80
07F000003F80
07F000003F80
07F000003F80
07F000003F80
07F000003F80
07F000003F80
07F000003F80
07F000003F80
07F000003F80
07F000003F80
07F000003F80
07F000003F80
07F000003F80
07F000003F80
07F000003F80
07F000003F80
07F000003F80
07F000003F80
07F000003F80
07F000003F80
07F000003F80
07F000003F80
07F000003F80
07F000003F80
07F000003F80
07F000003F80
ENDCHAR
STARTCHAR 0128
ENCODING 296
SWIDTH 278 0
DWIDTH 24 0
BBX 27 79 -2 0
BITMAP
07E003E0
1FF807E0
1FFF07E0
3FFFFFC0
7FFFFFC0
7FFFFF80
7C1FFF80
FC03FF00
F8007C00
00000000
00000000
00000000
00000000
00000000
00000000
00000000
001FE000
001FE000
001FE000
001FE000
001FE000
001FE000
001FE000
001FE000
001FE000
001FE000
001FE000
001FE000
001FE000
001FE000
001FE000
001FE000
001FE000
001FE000
001FE000
001FE000
001FE000
001FE000
001FE000
001FE000
001FE000
001FE000
001FE000
001FE000
001FE000
001FE000
001FE000
001FE000
001FE000
001FE000
001FE000
001FE000
001FE000
001FE000
001FE000
001FE000
001FE000
001FE000
001FE000
001FE000
001FE000
001FE000
001FE000
001FE000
001FE000
001FE000
001FE000
001FE000
001FE000
001FE000
001FE000
001FE000
001FE000
001FE000
001FE000
001FE000
001FE000
001FE000
001FE000
ENDCHAR
STARTCHAR 0129
ENCODING 297
SWIDTH 278 0
DWIDTH 24 0
BBX 27 62 -2 0
BITMAP
07E003E0
1FF807E0
1FFF07E0
3FFFFFC0
7FFFFFC0
7FFFFF80
7C1FFF80
FC03FF00
F800FC00
00000000
00000000
00000000
00000000
00000000
00000000
00000000
00000000
003F8000
003F8000
003F8000
003F8000
003F8000
003F8000
003F8000
003F8000
003F8000
003F8000
003F8000
003F8000
003F8000
003F8000
003F8000
003F8000
003F8000
003F8000
003F8000
003F8000
003F8000
003F8000
003F8000
003F8000
003F8000
003F8000
003F8000
003F8000
003F8000
003F8000
003F8000
003F8000
003F8000
003F8000
003F8000
003F8000
003F8000
003F8000
003F8000
003F8000
003F8000
003F8000
003F8000
003F8000
003F8000
ENDCHAR
STARTCHAR 012A
ENCODING 298
SWIDTH 278 0
DWIDTH 24 0
BBX 22 78 2 0
BITMAP
FFFFFC
FFFFFC
FFFFFC
FFFFFC
FFFFFC
FFFFFC
000000
000000
000000
000000
000000
000000
000000
000000
000000
01FE00
01FE00
01FE00
01FE00
01FE00
01FE00
01FE00
01FE00
01FE00
01FE00
01FE00
01FE00
01FE00
01FE00
01FE00
01FE00
01FE00
01FE00
01FE00
01FE00
01FE00
01FE00
01FE00
01FE00
01FE00
01FE00
01FE00
01FE00
01FE00
01FE00
01FE00
01FE00
01FE00
01FE00
01FE00
01FE00
01FE00
01FE00
01FE00
01FE00
01FE00
01FE00
01FE00
01FE00
01FE00
01FE00
01FE00
01FE00
01FE00
01FE00
01FE00
01FE00
01FE00
01FE00
01FE00
01FE00
01FE00
01FE00
01FE00
01FE00
01FE00
01FE00
01FE00
ENDCHAR
STARTCHAR 012B
ENCODING 299
SWIDTH 278 0
DWIDTH 24 0
BBX 22 60 1 0
BITMAP
FFFFFC
FFFFFC
FFFFFC
FFFFFC
FFFFFC
FFFFFC
000000
000000
000000
000000
000000
000000
000000
000000
000000
01FC00
01FC00
01FC00
01FC00
01FC00
01FC00
01FC00
01FC00
01FC00
01FC00
01FC00
01FC00
01FC00
01FC00
01FC00
01FC00
01FC00
01FC00
01FC00
01FC00
01FC00
01FC00
01FC00
01FC00
01FC00
01FC00
01FC00
01FC00
01FC00
01FC00
01FC00
01FC00
01FC00
01FC00
01FC00
01FC00
01FC00
01FC00
01FC00
01FC00
01FC00
01FC00
01FC00
01FC00
01FC00
ENDCHAR
ENDFONT
